<svg width="29" height="28" viewBox="0 0 29 28" fill="none" xmlns="http://www.w3.org/2000/svg">
<g clip-path="url(#clip0)">
<path d="M25.059 27.9586H7.41351C6.50506 27.9586 5.76611 27.2173 5.76611 26.306V19.0574C5.76611 18.994 5.81732 18.9427 5.88055 18.9427H17.1218C18.0345 18.9427 18.7771 18.1978 18.7771 17.2822V11.8571C18.7771 10.9416 18.0345 10.1967 17.1218 10.1967H5.88055C5.81732 10.1967 5.76611 10.1453 5.76611 10.0819V1.68868C5.76611 0.777419 6.5052 0.0361328 7.41351 0.0361328H19.198C19.2613 0.0361328 19.3125 0.0874835 19.3125 0.150883V5.73678C19.3125 6.52195 19.9484 7.16068 20.7301 7.16068H26.5921C26.6553 7.16068 26.7065 7.21203 26.7065 7.27543V26.3059C26.7065 27.2173 25.9674 27.9586 25.059 27.9586ZM5.99483 19.1722V26.306C5.99483 27.0908 6.63122 27.7291 7.41337 27.7291H25.0588C25.8411 27.7291 26.4775 27.0906 26.4775 26.306V7.39033H20.7298C19.822 7.39033 19.0833 6.64861 19.0833 5.73692V0.265633H7.41351C6.63136 0.265633 5.99498 0.904074 5.99498 1.68868V9.96733H17.1219C18.1608 9.96733 19.0061 10.815 19.0061 11.8571V17.2822C19.0061 18.3243 18.1608 19.172 17.1219 19.172H5.99483V19.1722Z" fill="white" stroke="white" stroke-width="0.5"/>
<path d="M26.5915 7.3903H20.7295C19.8217 7.3903 19.083 6.64859 19.083 5.7369V0.151003C19.083 0.104959 19.1103 0.0635056 19.1525 0.0454324C19.1944 0.0272158 19.2435 0.0362524 19.2767 0.068239L26.6707 7.19279C26.7044 7.2252 26.7151 7.27498 26.6976 7.3183C26.6802 7.36161 26.6383 7.3903 26.5915 7.3903ZM19.3117 0.420378V5.7369C19.3117 6.52207 19.9477 7.1608 20.7294 7.1608H26.3071L19.3117 0.420378Z" fill="white" stroke="white" stroke-width="0.5"/>
<path d="M5.87987 19.1721H4.19614C3.15724 19.1721 2.31201 18.3244 2.31201 17.2823V11.8571C2.31201 10.815 3.15724 9.96729 4.19614 9.96729H5.87987C5.94309 9.96729 5.9943 10.0186 5.9943 10.082C5.9943 10.1454 5.94309 10.1968 5.87987 10.1968H4.19614C3.2834 10.1968 2.54088 10.9417 2.54088 11.8572V17.2823C2.54088 18.1979 3.2834 18.9428 4.19614 18.9428H5.87987C5.94309 18.9428 5.9943 18.9941 5.9943 19.0575C5.9943 19.1209 5.94309 19.1721 5.87987 19.1721Z" fill="white"/>
<rect x="1.9126" y="9.34375" width="18.5634" height="10.6371" rx="1" fill="#12784A"/>
<path d="M6.21285 15.2432H5.2302V16.7457C5.2302 16.9604 5.1795 17.1235 5.07894 17.2353C4.97922 17.3465 4.84984 17.4019 4.69732 17.4019C4.53533 17.4019 4.40406 17.3477 4.3075 17.2368C4.20694 17.1262 4.15771 16.9651 4.15771 16.752V12.662C4.15771 12.4246 4.21304 12.2561 4.32054 12.1538C4.43078 12.0523 4.6016 12.0029 4.83617 12.0029H6.21285C6.61971 12.0029 6.93359 12.0331 7.15237 12.0955C7.36843 12.1573 7.5565 12.2573 7.71386 12.3966C7.87122 12.5364 7.99029 12.7079 8.0736 12.9115C8.15564 13.1145 8.1933 13.3414 8.1933 13.5959C8.1933 14.1361 8.02858 14.5471 7.69619 14.8247C7.36443 15.104 6.87132 15.2432 6.21285 15.2432ZM5.95367 12.8103H5.2302V14.4327H5.95367C6.20528 14.4327 6.41586 14.4059 6.58689 14.3519C6.75645 14.2998 6.88499 14.2133 6.97524 14.0927C7.06486 13.9705 7.10799 13.8136 7.10799 13.618C7.10799 13.3828 7.04088 13.1929 6.90224 13.0461C6.74762 12.8883 6.43164 12.8103 5.95367 12.8103Z" fill="white"/>
<path d="M9.75583 12.0029H11.1514C11.516 12.0029 11.8284 12.0365 12.0882 12.1044C12.3468 12.1717 12.5834 12.2985 12.7968 12.4843C13.3479 12.9575 13.6229 13.6769 13.6229 14.6424C13.6229 14.9608 13.597 15.2521 13.5402 15.5141C13.4862 15.7774 13.4001 16.0153 13.2838 16.2267C13.1681 16.4379 13.0198 16.6271 12.8393 16.7931C12.6977 16.9208 12.5424 17.0222 12.3741 17.1003C12.2046 17.1771 12.0234 17.2334 11.8305 17.2636C11.6349 17.295 11.4167 17.3096 11.174 17.3096H9.77687C9.58206 17.3096 9.43627 17.2815 9.33593 17.2212C9.2381 17.1621 9.17373 17.0798 9.14386 16.9729C9.11314 16.8644 9.1001 16.7252 9.1001 16.5539V12.662C9.1001 12.4301 9.15143 12.2616 9.25535 12.1586C9.35696 12.0538 9.524 12.0029 9.75583 12.0029ZM10.1709 12.8527V16.4556H10.9821C11.1605 16.4556 11.3008 16.4514 11.402 16.4419C11.5026 16.4324 11.6065 16.4077 11.7173 16.3691C11.8261 16.3313 11.9191 16.2773 11.9984 16.2073C12.356 15.9029 12.5359 15.3776 12.5359 14.6357C12.5359 14.1117 12.4593 13.7195 12.2992 13.4575C12.1427 13.1969 11.9483 13.0324 11.7173 12.9603C11.4855 12.8883 11.2078 12.8527 10.8796 12.8527H10.1709Z" fill="white"/>
<path d="M17.7278 12.8322H15.6155V14.1899H17.382C17.5448 14.1899 17.667 14.2262 17.7478 14.2996C17.8284 14.3737 17.8702 14.4724 17.8702 14.5945C17.8702 14.7179 17.8286 14.8167 17.7463 14.888C17.663 14.9608 17.5433 14.9977 17.3817 14.9977H15.6152V16.7457C15.6152 16.9686 15.5648 17.1332 15.4655 17.2401C15.3649 17.3479 15.2376 17.4019 15.0805 17.4019C14.9219 17.4019 14.7939 17.3477 14.6928 17.238C14.5937 17.129 14.543 16.9651 14.543 16.7457V12.662C14.543 12.5084 14.5663 12.3808 14.612 12.2835C14.6572 12.1848 14.7289 12.1141 14.8268 12.0681C14.9231 12.0257 15.0483 12.0029 15.1995 12.0029H17.7278C17.8988 12.0029 18.0259 12.0407 18.1079 12.1162C18.1913 12.1936 18.2319 12.2924 18.2319 12.4145C18.2319 12.5413 18.1915 12.6415 18.1079 12.7176C18.0259 12.7936 17.8988 12.8322 17.7278 12.8322Z" fill="white"/>
</g>
<defs>
<clipPath id="clip0">
<rect width="27.8451" height="27.9224" fill="white" transform="translate(0.586914 0.0361328)"/>
</clipPath>
</defs>
</svg>
