<svg width="33" height="33" viewBox="0 0 33 33" fill="none" xmlns="http://www.w3.org/2000/svg">
<path d="M16.5 33C25.6127 33 33 25.6127 33 16.5C33 7.3873 25.6127 0 16.5 0C7.3873 0 0 7.3873 0 16.5C0 25.6127 7.3873 33 16.5 33Z" fill="url(#paint0_linear)"/>
<path d="M13.4749 24.0625C12.9403 24.0625 13.0312 23.8607 12.8468 23.3516L11.2749 18.1785L23.3749 11" fill="#C8DAEA"/>
<path d="M13.4751 24.0625C13.8876 24.0625 14.0698 23.8738 14.3001 23.65L16.5001 21.5108L13.7559 19.856" fill="#A9C9DD"/>
<path d="M13.7553 19.8564L20.4048 24.7692C21.1636 25.1879 21.7111 24.971 21.9002 24.0648L24.6069 11.3098C24.884 10.1988 24.1834 9.69477 23.4574 10.0244L7.56377 16.1529C6.4789 16.5881 6.48536 17.1933 7.36605 17.463L11.4447 18.7361L20.8872 12.7789C21.333 12.5086 21.7422 12.6538 21.4064 12.9519" fill="url(#paint1_linear)"/>
<defs>
<linearGradient id="paint0_linear" x1="22.011" y1="5.511" x2="13.761" y2="24.75" gradientUnits="userSpaceOnUse">
<stop stop-color="#37AEE2"/>
<stop offset="1" stop-color="#1E96C8"/>
</linearGradient>
<linearGradient id="paint1_linear" x1="18.5683" y1="16.5014" x2="21.1433" y2="22.3684" gradientUnits="userSpaceOnUse">
<stop stop-color="#EFF7FC"/>
<stop offset="1" stop-color="white"/>
</linearGradient>
</defs>
</svg>
