<svg width="36" height="34" viewBox="0 0 36 34" fill="none" xmlns="http://www.w3.org/2000/svg">
<path d="M1.25879 33.0871L3.61719 24.8905C2.16113 22.4914 1.39893 19.77 1.39893 16.9836C1.40234 8.26286 8.85351 1.1665 18.0137 1.1665C22.457 1.16976 26.6269 2.81689 29.7646 5.80517C32.8989 8.79345 34.6284 12.7681 34.625 16.9933C34.6216 25.7173 27.167 32.8104 18.0137 32.8104C18.0103 32.8104 18.0137 32.8104 18.0137 32.8104H18.0068C15.2246 32.8104 12.4936 32.1463 10.0669 30.8865L1.25879 33.0871Z" fill="white"/>
<path d="M1.25925 33.5029C1.14304 33.5029 1.03367 33.4574 0.948219 33.3792C0.838844 33.2718 0.797828 33.1188 0.838844 32.9756L3.14597 24.945C1.71726 22.5231 0.961891 19.7725 0.961891 16.9827C0.965308 8.03092 8.61472 0.749023 18.0141 0.749023C22.5703 0.752278 26.853 2.44173 30.0727 5.51139C33.2925 8.5778 35.0664 12.6566 35.063 16.9925C35.0595 25.9443 27.4101 33.2262 18.0141 33.2262C15.2217 33.2262 12.4634 32.5719 10.0127 31.3285L1.37205 33.4867C1.33445 33.4964 1.29685 33.5029 1.25925 33.5029Z" fill="white"/>
<path d="M18.0141 1.16634C22.4574 1.1696 26.6273 2.81673 29.765 5.80501C32.8993 8.79329 34.6288 12.7679 34.6254 16.9932C34.622 25.7171 27.1674 32.8102 18.0141 32.8102H18.0072C15.225 32.8102 12.494 32.1462 10.0673 30.8864L1.25917 33.0869L3.61757 24.8903C2.16152 22.4912 1.39931 19.7699 1.39931 16.9834C1.40273 8.2627 8.8539 1.16634 18.0141 1.16634ZM18.0141 0.333008C8.37196 0.333008 0.527726 7.80046 0.524308 16.9834C0.524308 19.7894 1.26601 22.5531 2.67763 25.001L0.414933 32.8656C0.332902 33.1553 0.418351 33.4613 0.637101 33.6729C0.804581 33.8324 1.03017 33.9202 1.25917 33.9202C1.33437 33.9202 1.40956 33.9105 1.48134 33.891L9.9579 31.7751C12.4325 32.999 15.2079 33.6436 18.0072 33.6468C27.6527 33.6468 35.497 26.1761 35.5004 16.9964C35.5038 12.5465 33.6854 8.36361 30.3837 5.21582C27.0819 2.06803 22.6864 0.336263 18.0141 0.333008Z" fill="#CFD8DC"/>
<path d="M27.7783 7.69303C25.1704 5.20931 21.7046 3.83887 18.0166 3.83887C10.4014 3.83887 4.20459 9.73405 4.20117 16.9834C4.20117 19.4671 4.93262 21.8857 6.31348 23.9788L6.6416 24.4769L5.24707 29.3271L10.4731 28.0218L10.979 28.3083C13.0981 29.5062 15.5283 30.1409 18.0063 30.1409H18.0132C25.6216 30.1409 31.8149 24.2425 31.8184 16.9932C31.8218 13.4808 30.3862 10.1768 27.7783 7.69303Z" fill="#40C351"/>
<path fill-rule="evenodd" clip-rule="evenodd" d="M13.8613 10.3721C13.5503 9.71126 13.2222 9.69824 12.9248 9.68848C12.6821 9.67871 12.4053 9.67871 12.1284 9.67871C11.855 9.67871 11.4038 9.77637 11.0244 10.1735C10.6416 10.5674 9.56836 11.5244 9.56836 13.471C9.56836 15.4144 11.0586 17.2959 11.2637 17.5596C11.4722 17.82 14.1382 21.9411 18.356 23.5264C21.8628 24.8415 22.5771 24.5811 23.3359 24.516C24.0981 24.4476 25.7935 23.5589 26.1387 22.6344C26.4839 21.7132 26.4839 20.9222 26.3813 20.7562C26.2788 20.5902 26.0019 20.4925 25.585 20.2939C25.1714 20.0954 23.1309 19.1416 22.748 19.0081C22.3686 18.8779 22.0918 18.8128 21.8149 19.2067C21.5381 19.6006 20.7417 20.4925 20.499 20.7562C20.2563 21.0199 20.0171 21.0524 19.6001 20.8571C19.1865 20.6585 17.8501 20.2419 16.2642 18.8942C15.0303 17.846 14.1963 16.5537 13.9536 16.1566C13.7109 15.7627 13.9263 15.5479 14.1348 15.3493C14.3228 15.1735 14.5518 14.887 14.7603 14.6559C14.9653 14.4248 15.0337 14.262 15.1738 13.9984C15.3105 13.7347 15.2422 13.5036 15.1396 13.305C15.0371 13.1064 14.2305 11.1533 13.8613 10.3721Z" fill="white"/>
</svg>
