<svg width="218" height="93" viewBox="0 0 218 93" fill="none" xmlns="http://www.w3.org/2000/svg">
<path d="M158.105 44.7051C158.105 45.2422 157.837 45.82 157.3 46.4385C156.86 46.9105 156.51 47.1465 156.25 47.1465C156.217 47.1465 156.104 47.1139 155.908 47.0488L155.469 47.3418C155.111 47.6185 154.826 47.7568 154.614 47.7568L154.224 47.708L154.272 47.0977L154.468 45.7061L154.419 44.7051L154.858 41.751L154.614 40.457L154.468 37.6006L154.321 36.5996L154.37 34.1582L154.272 32.5469L154.37 31.5947L154.004 28.4453L154.321 27.8105L153.906 27.6396V27.0537L153.564 25.5889L153.613 24.1973L153.369 23.6113L152.759 23.7578L152.563 24.0508L152.661 24.7588L151.367 26.7119L151.318 27.249L150.903 27.6396L150.659 28.2988L150.317 28.8115L150.171 29.6904L149.512 31.1553L149.414 31.6924C148.877 32.1318 148.511 32.5306 148.315 32.8887L147.51 34.6953L145.312 38.4551L143.75 41.3604L143.359 41.9463L141.919 43.2891C141.74 43.4355 141.65 43.5739 141.65 43.7041C141.65 43.7041 141.659 43.7122 141.675 43.7285C141.691 43.7448 141.707 43.7692 141.724 43.8018C141.821 44.1924 141.87 44.4447 141.87 44.5586L141.821 44.8027C141.512 44.8516 141.284 44.9492 141.138 45.0957C141.007 45.2259 140.885 45.4456 140.771 45.7549C140.56 46.3245 140.381 46.7233 140.234 46.9512C140.104 47.1628 139.925 47.3255 139.697 47.4395C139.486 47.5534 139.16 47.6592 138.721 47.7568C138.298 47.2848 138.053 46.9756 137.988 46.8291C137.923 46.6826 137.866 46.4385 137.817 46.0967L137.622 45.9014C137.622 45.5596 137.419 45.291 137.012 45.0957L136.816 45.291L136.45 44.6562L135.864 43.0449L135.352 42.3613L134.814 40.8477L134.204 39.9443C134.416 39.5537 134.521 39.1875 134.521 38.8457C134.521 38.5853 134.465 38.4062 134.351 38.3086L133.569 37.6494L130.518 31.5947L129.761 30.0078H129.81L129.956 29.3486L129.565 28.543L129.419 27.8105L128.906 28.0547L128.613 27.542C128.109 26.6794 127.791 26.0853 127.661 25.7598C127.531 25.4342 127.368 24.946 127.173 24.2949C126.75 24.2949 126.481 24.1647 126.367 23.9043L126.001 24.71H125.61L125.513 24.9053C125.741 25.2471 125.854 25.5807 125.854 25.9062L125.708 27.7617C125.692 28.0547 125.667 28.2907 125.635 28.4697C125.618 28.6325 125.578 28.7627 125.513 28.8604C125.464 28.9417 125.35 29.1045 125.171 29.3486L125.757 30.5449L125.659 31.1553L125.61 32.8887L125.464 33.9385L125.61 39.2119L125.317 39.9932C125.545 40.4652 125.659 40.9372 125.659 41.4092V41.6045V41.8975C125.236 41.9463 124.959 42.0521 124.829 42.2148C124.699 42.3776 124.609 42.7031 124.561 43.1914L125.464 43.5088L125.513 44.0459V44.6074C125.513 45.0957 125.448 45.3968 125.317 45.5107L123.462 46.7559L122.559 47.4883L122.217 47.5615L121.704 47.4883L121.655 47.1953L121.558 46.7559L122.021 45.6084V43.2402L122.412 40.3105L122.363 38.748L122.314 38.2109L122.412 37.4541L122.363 36.8438C122.607 36.6647 122.754 36.3962 122.803 36.0381L123.071 35.8916C123.022 35.5824 122.965 35.387 122.9 35.3057L122.607 34.6953C122.607 34.6139 122.599 34.5488 122.583 34.5C122.583 34.4512 122.575 34.4023 122.559 34.3535C122.559 34.1094 122.697 33.8408 122.974 33.5479C122.697 33.0758 122.559 32.6608 122.559 32.3027V32.1562L122.705 29.1533L122.559 26.541L122.607 26.0039L123.413 26.248C123.576 26.0365 123.657 25.8574 123.657 25.7109V25.54L122.559 25.4424L122.461 24.2461L123.267 24.1973L123.364 23.709C123.364 23.416 123.128 23.18 122.656 23.001L122.412 21.6582H122.656L122.705 21.3408L122.314 18.9482L122.363 17.8008L121.924 16.8486C121.924 16.5231 122.217 16.222 122.803 15.9453L123.267 16.043L123.56 15.4082L124.072 15.1885L125.171 14.3584C125.415 14.1794 125.627 14.0898 125.806 14.0898L126.318 14.2119C126.335 14.5212 126.383 14.749 126.465 14.8955C126.562 15.0257 126.758 15.1641 127.051 15.3105C127.083 15.5221 127.132 15.7174 127.197 15.8965C127.262 16.0592 127.368 16.2627 127.515 16.5068C127.677 16.751 127.897 17.1009 128.174 17.5566L127.954 18.0938L127.71 18.8994L127.808 19.1924L128.564 19.5586L129.15 21.3896L128.662 22.1465L128.955 22.293L129.15 22.8057C129.639 22.8382 130.046 23.1393 130.371 23.709L131.152 25.4424L132.056 28.0059C131.632 28.3802 131.421 28.6813 131.421 28.9092L131.665 29.4951L132.202 29.5439C132.479 29.5765 132.658 29.6335 132.739 29.7148C132.821 29.7962 132.91 29.9753 133.008 30.252L132.568 30.96C132.747 31.1878 132.91 31.3018 133.057 31.3018H133.35L133.667 31.7412C134.302 32.9294 134.619 33.6455 134.619 33.8896L134.424 34.6465L134.253 35.208L134.717 35.4521L135.205 35.5498L135.767 36.3066L136.719 37.3076L136.963 38.2598L137.5 38.748L138.159 40.3594L138.721 40.9453L139.502 42.5078L139.917 42.8496L140.503 42.2881L142.261 40.3105L143.164 38.748L143.97 37.2588L145.166 35.208L147.412 29.959L148.315 28.5918L148.56 27.0537L149.805 24.2461L150 23.4893L150.317 23.3916L150.61 23.1475V22.9521L151.001 22.7568L150.952 22.3418L150.513 22.1465C150.643 21.4629 150.806 21.0641 151.001 20.9502L151.465 20.7549L151.904 20.3887C151.709 20.0469 151.465 19.6807 151.172 19.29C151.432 18.932 151.562 18.639 151.562 18.4111C151.562 18.2972 151.546 18.2077 151.514 18.1426L151.953 17.6543L152.71 16.5068L154.15 15.3105C154.769 14.7734 155.143 14.5049 155.273 14.5049L155.859 14.6514L155.713 16.3115L155.908 16.5068L156.372 16.458C156.828 16.458 157.056 16.5882 157.056 16.8486L157.007 17.8008L156.812 18.6064L156.519 18.5088L156.421 18.9482L156.763 19.8516L156.86 25.0518V25.2959C156.86 25.5563 156.795 25.776 156.665 25.9551L156.006 26.8584C155.941 26.9235 155.908 27.1188 155.908 27.4443C156.038 27.6396 156.169 27.7699 156.299 27.835C156.429 27.8838 156.632 27.9082 156.909 27.9082L156.958 28.8115L156.86 32.8398L157.251 34.5977L157.471 37.6494L157.666 39.7002C157.666 39.9769 157.601 40.3105 157.471 40.7012C157.682 40.9616 157.812 41.1813 157.861 41.3604C157.91 41.5394 157.959 42.0033 158.008 42.752L158.105 44.6562V44.7051Z" fill="#EC982D"/>
<path d="M185.913 45.3398L185.669 45.8037L185.278 46.3896L184.57 46.6582L183.569 47.1953L182.617 47.4883C182.015 47.7324 181.665 47.8545 181.567 47.8545C181.453 47.8545 181.34 47.7894 181.226 47.6592C181.128 47.5452 181.079 47.4395 181.079 47.3418C181.079 47.179 181.16 46.8128 181.323 46.2432C181.405 46.0804 181.47 45.7956 181.519 45.3887L181.03 45.7061L178.833 46.4385C178.394 46.6501 177.954 46.7559 177.515 46.7559H177.466H176.514L175.366 47.293L174.585 47.3906L172.314 47.8545L171.387 47.708L170.728 47.9521L170.264 48.0498L169.531 48.001L167.92 47.6592L166.821 47.5615C166.073 47.4639 165.422 47.2116 164.868 46.8047C164.331 46.3815 163.932 45.8444 163.672 45.1934L163.013 44.9492L162.866 44.3389L162.817 43.8994L162.476 42.752L163.379 40.9453L163.672 40.1396C163.77 39.9281 164.071 39.6188 164.575 39.2119L166.479 37.6494L167.285 37.3564L168.628 36.7949C168.644 36.7949 168.677 36.8031 168.726 36.8193C168.774 36.8193 168.823 36.8275 168.872 36.8438C169.198 36.1439 169.816 35.7939 170.728 35.7939L170.874 35.6475H171.387C171.598 35.387 171.81 35.208 172.021 35.1104C172.233 35.0127 172.632 34.9069 173.218 34.793L176.27 34.2559L177.173 34.3535L178.32 34.1094L180.371 33.8896C181.071 33.7269 181.421 33.3932 181.421 32.8887C181.421 32.8236 181.405 32.7747 181.372 32.7422L181.128 31.6436L181.323 30.0566C181.274 29.7148 181.152 29.4707 180.957 29.3242C180.762 29.1615 180.469 29.0557 180.078 29.0068L179.736 28.4453C179.378 27.8594 179.085 27.485 178.857 27.3223C178.63 27.1432 178.198 26.9886 177.563 26.8584L176.172 26.541L174.829 26.4922L174.17 26.5898C174.023 26.5247 173.91 26.4434 173.828 26.3457C173.747 26.248 173.682 26.1016 173.633 25.9062L172.974 26.1992L172.217 26.9072L169.824 28.1035C169.32 28.3802 168.986 28.6488 168.823 28.9092L168.481 29.3975C168.319 29.6579 168.099 29.7881 167.822 29.7881L167.334 29.6904L166.626 29.3486L165.869 29.2021C165.625 29.1208 165.381 28.9824 165.137 28.7871C164.893 28.5918 164.771 28.4128 164.771 28.25C164.771 28.1523 164.787 28.1035 164.819 28.1035L165.234 27.8105L166.016 27.2002L166.87 27.0537L168.164 26.3945L169.775 25.8574L170.215 25.7598L171.265 25.1982L172.119 25.3447L175.073 24.71L176.318 24.7588H177.271L178.271 25.1006L181.177 25.6621L181.616 25.9062V26.248L181.274 26.4434C181.372 27.013 181.576 27.2979 181.885 27.2979C181.917 27.2816 181.942 27.2734 181.958 27.2734C181.974 27.2572 181.999 27.249 182.031 27.249L182.715 26.9561H182.812C182.975 26.9561 183.081 27.0374 183.13 27.2002L183.618 28.1035L184.131 28.4941V29.0557L184.033 30.3008C184.033 30.8379 184.294 31.3018 184.814 31.6924L185.132 35.3057L184.473 36.209L185.229 37.0879L185.278 37.4053L185.132 39.7002L185.327 41.458V41.8486V42.4102L184.985 42.5078C185.018 42.9147 185.042 43.1751 185.059 43.2891C185.075 43.403 185.132 43.5739 185.229 43.8018C185.327 44.0133 185.441 44.2656 185.571 44.5586L185.913 45.3398ZM182.031 41.0918C181.787 40.8802 181.632 40.7012 181.567 40.5547L181.665 39.5537L181.47 37.3076L181.763 36.6484L180.981 36.209L180.566 36.3066L178.32 36.1602L177.271 36.209L176.465 35.6475L175.977 35.9404L174.634 35.9893L173.682 36.3555L173.12 36.0381L172.437 36.4531L168.774 38.2109L167.969 38.7969L167.334 39.749L166.479 40.2617C166.349 40.3919 166.284 40.5384 166.284 40.7012C166.284 40.7012 166.284 40.7093 166.284 40.7256C166.3 40.7419 166.317 40.7663 166.333 40.7988L166.528 41.0918L166.479 41.3115L167.017 43.5088L166.479 44.9004L166.87 45.3887L167.529 44.6074C167.757 44.8027 167.969 44.9655 168.164 45.0957C168.359 45.2259 168.595 45.3398 168.872 45.4375C169.149 45.5189 169.499 45.6084 169.922 45.7061L170.435 46.3896L172.119 46.5605L172.583 46.0967L173.071 46.3408L173.413 46.1455L173.682 45.999C174.072 46.1292 174.3 46.1943 174.365 46.1943C174.854 46.1943 175.488 45.9665 176.27 45.5107C176.318 45.4782 176.383 45.4456 176.465 45.4131C176.546 45.3643 176.668 45.291 176.831 45.1934C178.296 45.1934 179.264 44.8923 179.736 44.29L180.225 43.6553L181.421 42.6543L181.47 42.3613L181.421 42.0439C181.665 41.9626 181.82 41.8649 181.885 41.751C181.95 41.637 181.999 41.4173 182.031 41.0918Z" fill="#EC982D"/>
<path d="M212.72 45.291C212.72 45.4049 212.508 45.6735 212.085 46.0967L211.621 46.5605C211.263 46.9349 210.864 47.236 210.425 47.4639C210.002 47.6917 209.652 47.8057 209.375 47.8057C209.245 47.8057 208.911 47.5046 208.374 46.9023L205.688 43.8994C205.575 43.7855 205.257 43.1344 204.736 41.9463H204.028L203.076 41.0918C202.588 40.5221 202.254 40.1559 202.075 39.9932C201.896 39.8304 201.628 39.6514 201.27 39.4561L200.781 39.1387C200.635 38.5527 200.35 37.9749 199.927 37.4053L199.243 37.7959L198.877 38.748L197.925 39.5537L197.021 40.75C196.582 41.3034 196.2 41.6696 195.874 41.8486L195.142 42.2881L194.58 42.9473L192.822 45.8037C192.497 46.3083 191.968 46.707 191.235 47L190.991 47.9033H190.332C189.437 47.9033 188.989 47.5697 188.989 46.9023C188.989 46.5605 189.152 46.2269 189.478 45.9014L192.725 42.8008L193.384 42.2881L194.824 40.3594L197.339 37.7471L198.242 36.7949L197.778 36.1113L196.533 34.793L196.191 33.5479L195.239 33.2549L194.043 32.0098L192.822 31.0576L192.627 29.9102C192.529 29.5684 192.35 29.3975 192.09 29.3975C191.943 29.3975 191.772 29.43 191.577 29.4951L191.187 29.2021C190.438 28.6325 189.925 28.2093 189.648 27.9326C189.388 27.6396 189.168 27.3141 188.989 26.9561L189.526 26.3945C190.031 25.89 190.446 25.5563 190.771 25.3936C191.113 25.2145 191.65 25.0843 192.383 25.0029L192.578 24.8076H192.822L193.188 25.2471L194.141 26.3457L195.239 27.9082C195.565 28.1849 195.728 28.429 195.728 28.6406V28.8604C196.053 29.2835 196.289 29.5439 196.436 29.6416C196.582 29.7393 196.81 29.7881 197.119 29.7881L198.022 30.9111C198.966 31.7738 199.438 32.3353 199.438 32.5957L199.39 33.3525L199.341 33.4014C199.341 33.5316 199.455 33.7188 199.683 33.9629C199.927 34.1908 200.146 34.3047 200.342 34.3047C200.651 34.3047 201.017 34.0036 201.44 33.4014L201.929 32.6934C202.401 32.6771 202.726 32.6038 202.905 32.4736C203.084 32.3434 203.263 32.0342 203.442 31.5459L203.271 31.1064L203.687 30.7402C204.582 30.0078 205.046 29.5439 205.078 29.3486L205.273 28.2988L206.03 27.3467L207.129 25.8086L207.837 25.3447C208.341 24.9541 208.789 24.7588 209.18 24.7588C209.554 24.7588 209.741 24.9704 209.741 25.3936C209.741 25.5889 209.701 25.7435 209.619 25.8574L208.374 27.542L207.52 28.8604L206.323 30.1543L204.028 32.791L201.88 35.1104L201.636 35.8428C202.059 35.8753 202.352 35.9404 202.515 36.0381C202.677 36.1195 202.865 36.3229 203.076 36.6484L203.638 36.7461L204.126 37.2588L205.835 39.0898C206.128 39.4479 206.559 39.8141 207.129 40.1885C207.699 40.6117 207.983 40.929 207.983 41.1406C207.983 41.2546 207.918 41.3766 207.788 41.5068L207.935 41.7021C208.341 41.7021 208.659 41.8486 208.887 42.1416C209.277 42.1416 209.546 42.1823 209.692 42.2637C209.839 42.3451 210.05 42.5566 210.327 42.8984C210.571 43.1914 210.889 43.4762 211.279 43.7529C212.24 44.404 212.72 44.9167 212.72 45.291Z" fill="#EC982D"/>
<path d="M34.1533 35.5957C34.1533 35.6934 34.137 35.7585 34.1045 35.791L33.8604 37.3047V38.0371L33.1035 39.209L32.2002 41.04L31.9072 41.5527C31.5492 41.3086 31.3132 41.1865 31.1992 41.1865L30.6621 41.4062L30.7109 42.1387L30.1982 42.1875L30.7598 42.5049L30.8574 42.7979L29.0996 44.2383L27.6592 45.2393C26.8779 45.8089 26.1943 46.1751 25.6084 46.3379C24.7946 46.9076 24.0296 47.3307 23.3135 47.6074C22.6136 47.9004 21.8568 48.0957 21.043 48.1934C20.2292 48.291 19.1305 48.3398 17.7471 48.3398C16.1195 48.3398 14.8906 48.2585 14.0605 48.0957C13.2467 47.9492 12.262 47.6156 11.1064 47.0947L10.7646 47.6074L9.71484 47.1924L9.10449 47.4854C8.64876 47.1598 8.16862 46.9645 7.66406 46.8994L7.49316 46.6064H7.29785H7.00488L5.39355 46.7529C5.24707 46.7041 5.05176 46.5007 4.80762 46.1426L3.85547 45.9961L4.00195 46.4355L3.5625 46.7529C3.10677 47.0459 2.82194 47.1924 2.70801 47.1924C2.56152 47.1924 2.39062 47.1436 2.19531 47.0459L2.04883 46.1914L2 45.8496L2.65918 45.3857L4.6123 44.5557L5.34473 43.5059L5.75977 42.8955L5.90625 38.2568L6.00391 37.7441L5.71094 37.0361L6.24805 35.4492L5.80859 35.5957L5.75977 34.4971C5.75977 34.0413 5.82487 33.4717 5.95508 32.7881L6.39453 32.5928L6.49219 32.3975L6.10156 31.1523L6.39453 30.2979L5.90625 29.1016L6.15039 27.0996L6.05273 26.5381H5.71094L5.44238 25.708L5.56445 25.0488L5.34473 24.8047L5.39355 24.4385L5.2959 23.0469L5.39355 21.8018L5.19824 21.0938L5.34473 20.6543L5.44238 20.3369L5.34473 19.9951C5.21452 19.7673 5.125 19.5638 5.07617 19.3848C5.04362 19.1895 5.00293 18.7256 4.9541 17.9932L4.90527 17.2852C5.16569 17.1549 5.2959 16.9759 5.2959 16.748L5.24707 16.4062C4.79134 16.3574 4.34375 16.1702 3.9043 15.8447L3.0498 15.9424L2.95215 15.6982H2.75684V15.3564L3.24512 14.8926L4.6123 14.4043L5.10059 13.9404C5.44238 13.6475 5.84115 13.501 6.29688 13.501L7.2002 13.5986L8.25 13.501L8.86035 13.6963L12.791 13.5498L13.1572 13.8916L13.6455 14.0381L13.8408 13.8428L14.7441 13.6475L16.7461 13.8428L18.7969 13.9893C19.6921 14.0381 20.457 14.2741 21.0918 14.6973L21.5557 14.3555L22.459 14.5508L23.0449 14.6973H23.8018L24.4609 14.8438C25.3236 15.3809 25.7549 15.7959 25.7549 16.0889C25.7549 16.5771 25.584 17.0817 25.2422 17.6025L24.998 18.1885L24.6074 18.1396C24.2331 18.1396 24.0459 18.3105 24.0459 18.6523L23.9971 19.5068L22.9473 19.9463L22.0928 20.752L19.749 21.9971L18.9922 22.6562V22.9004L19.7002 23.2422L20.4082 23.8037L21.043 24.0479L21.2627 23.8525L22.8496 24.3408C22.8496 25.1058 23.0042 25.4883 23.3135 25.4883C23.5739 25.4883 23.8343 25.3581 24.0947 25.0977L24.7051 25.0488C25.0632 25.0488 25.3236 25.1058 25.4863 25.2197C25.6491 25.3174 25.7874 25.4964 25.9014 25.7568H26.292L26.6582 26.0986L27.0488 25.9521L29.8076 27.4414V27.9541L30.2959 28.1982C31.0609 28.54 31.4434 28.89 31.4434 29.248C31.4434 29.4759 31.3783 29.7282 31.248 30.0049C31.6387 30.4281 31.9235 30.6396 32.1025 30.6396L32.4932 30.4932C33.1605 31.3558 33.4941 32.0231 33.4941 32.4951C33.4941 32.609 33.3639 32.7799 33.1035 33.0078L33.25 33.1543L33.2012 33.6426C33.8359 34.4889 34.1533 35.14 34.1533 35.5957ZM20.3105 17.1875C18.748 16.3249 17.5924 15.8936 16.8438 15.8936L16.1602 15.9912L15.5986 15.6494L15.0127 15.7471L12.5469 15.5029L11.4482 15.6494C10.4066 15.6982 9.4707 15.8773 8.64062 16.1865L8.5918 16.6504L8.7627 18.457L8.00586 19.6533L7.95703 19.8486L8.00586 20.0439V20.3857L8.95801 20.6543L9.05566 21.1914C9.12077 21.9401 9.15332 22.3958 9.15332 22.5586C9.15332 22.8841 9.05566 23.234 8.86035 23.6084C9.43001 23.4619 9.77995 23.3398 9.91016 23.2422L10.2031 23.0957L12.1074 23.0469C12.1725 23.0306 12.2295 23.0225 12.2783 23.0225C12.3271 23.0062 12.3923 22.9899 12.4736 22.9736C12.5713 22.9411 12.6689 22.9085 12.7666 22.876C12.8643 22.8434 12.9456 22.819 13.0107 22.8027L13.6455 22.6074C13.9385 22.8353 14.1745 22.9492 14.3535 22.9492C14.5163 22.9492 14.6465 22.9004 14.7441 22.8027L15.5986 21.9971L17.9912 21.2891C18.3493 21.1426 18.7318 20.874 19.1387 20.4834C19.5618 20.0765 19.8467 19.694 19.9932 19.3359C20.2048 18.9128 20.3105 18.1966 20.3105 17.1875ZM29.5635 37.2559L29.5146 36.9873L29.1484 34.8389C28.9694 33.7646 28.8392 33.0811 28.7578 32.7881C28.6927 32.4788 28.5218 32.1859 28.2451 31.9092C27.8219 31.4046 27.6104 31.1198 27.6104 31.0547L27.3418 30.3467L27.0488 29.9561L26.1455 29.6875L25.6572 29.6387C24.9736 28.9714 24.5423 28.6051 24.3633 28.54L20.75 27.3438L20.0908 26.9043L18.9434 26.7578L18.1133 25.8057C17.8691 25.5615 17.5843 25.4395 17.2588 25.4395C17.0309 25.4395 16.8763 25.5778 16.7949 25.8545L16.2578 25.6592L16.209 26.001L15.7451 26.0498L15.2568 25.8057L14.0605 25.5371H12.9619L11.8633 25.293L10.252 25.1465C9.95898 25.1465 9.52767 25.293 8.95801 25.5859L9.25098 27.6367L8.5918 28.3936L8.64062 29.1504C8.73828 30.0293 8.80339 30.5339 8.83594 30.6641C8.86849 30.778 8.99056 31.0059 9.20215 31.3477L9.10449 32.6904L9.15332 34.2529L9.25098 34.8389C9.25098 35.3923 9.13704 35.848 8.90918 36.2061C8.90918 36.6781 9.02311 37.0931 9.25098 37.4512L8.44531 38.208L8.49414 39.209L9.20215 39.502L9.2998 39.9902L9.44629 41.6992L9.91016 43.1885C9.77995 43.7581 9.14518 44.0918 8.00586 44.1895L7.85938 44.5557C8.26628 44.637 8.55924 44.7266 8.73828 44.8242C8.91732 44.9219 9.12077 45.0928 9.34863 45.3369L10.0078 45.459L11.8145 45.8008L13.6943 45.9473L16.209 46.5088L18.5527 46.3867L21.7021 46.4355C21.9788 46.4355 22.2474 46.3704 22.5078 46.2402L23.3135 45.9473L24.0947 45.6055L24.998 44.7998L26.3408 43.9453C26.7152 43.7174 27.0895 43.2048 27.4639 42.4072L28.1963 40.7959L28.6602 40.0879L28.8555 39.0869L29.5635 37.2559Z" fill="black"/>
<path d="M56.2725 26.5381C56.2725 26.6195 56.2399 26.6927 56.1748 26.7578L54.7832 27.8564L54.0264 28.6377L53.5869 28.8086L52.9277 28.3936L52.4883 27.9541L51.0234 27.9053L49.6318 27.3438L49.0947 27.1973C48.8831 27.5553 48.6634 27.7832 48.4355 27.8809C48.2077 27.9622 47.7438 28.0029 47.0439 28.0029L46.2383 28.3447L45.6279 28.1494L45.1396 28.54L43.1865 30.0537C42.861 30.4769 42.6738 31.2581 42.625 32.3975L42.5762 34.2529L42.0391 34.5947C42.3646 35.1481 42.5273 35.6852 42.5273 36.2061H42.8936L42.9424 36.8896L43.04 40.0391L43.0889 41.6992L42.9912 43.1885C42.4867 43.4814 42.2344 43.7174 42.2344 43.8965C42.2344 43.929 42.2995 44.0755 42.4297 44.3359L43.0889 44.1895L43.04 44.4092L43.2354 45.3857V45.5078C43.2354 45.752 43.1051 46.0042 42.8447 46.2646C42.5843 46.5251 42.3158 46.6715 42.0391 46.7041L41.0869 46.8018L39.6465 47.5586L39.0361 47.1924L39.1338 46.7041L39.4756 45.2881L39.3291 43.4082L39.4756 43.1396H39.9883V42.8467L39.9395 42.4072L39.6465 41.6992L39.5732 40.6982L39.3779 39.8438V39.7949V39.1357L39.4268 38.3545C39.4919 38.2731 39.557 38.1917 39.6221 38.1104C39.7035 38.0127 39.8011 37.8743 39.915 37.6953C40.0452 37.5163 40.1836 37.2965 40.3301 37.0361L40.5742 36.4502L40.5254 36.2061C39.7604 36.2061 39.3779 36.0352 39.3779 35.6934L39.4756 33.8379L39.3291 32.0068C39.3779 31.8441 39.4837 31.6895 39.6465 31.543V30.835L39.3291 30.542L39.2314 29.9561L39.1826 28.6377L38.6455 27.5879C38.7594 27.002 39.0199 26.5055 39.4268 26.0986L40.9404 25.293L41.8438 24.707C42.2995 24.8372 42.6087 24.9919 42.7715 25.1709C42.9505 25.3499 43.04 25.6429 43.04 26.0498V26.1963V26.8555C43.04 27.4577 43.1702 27.7588 43.4307 27.7588H43.5283L44.7734 27.0996L45.9941 26.6357L48.0938 25.4883L48.7773 25.1953L49.3389 25.3418L50.4375 25C51.0723 24.8047 51.5524 24.707 51.8779 24.707L52.9277 24.8047C53.2533 25.2604 53.5218 25.4883 53.7334 25.4883C53.766 25.472 53.7904 25.4639 53.8066 25.4639C53.8229 25.4476 53.8473 25.4395 53.8799 25.4395L54.4414 25.1465C54.5716 25.0814 54.6693 25.0488 54.7344 25.0488C55.1413 25.0488 55.5238 25.2686 55.8818 25.708C56.1423 26.0173 56.2725 26.2939 56.2725 26.5381Z" fill="black"/>
<path d="M64.4268 12.5977C64.4268 12.9557 64.3372 13.1917 64.1582 13.3057L62.376 14.5996L61.668 15.3076L60.374 16.1865C59.5114 16.8213 58.9906 17.1387 58.8115 17.1387C58.7301 17.1387 58.6406 17.0898 58.543 16.9922C58.4616 16.8783 58.4209 16.7643 58.4209 16.6504C58.4209 16.276 58.5186 15.9912 58.7139 15.7959L61.2285 13.4033L62.5713 11.5967C62.7666 11.499 62.9863 11.4502 63.2305 11.4502C63.556 11.4502 63.8327 11.5641 64.0605 11.792C64.3047 12.0036 64.4268 12.2721 64.4268 12.5977ZM62.9619 25.5371C62.6527 26.2207 62.4736 26.8555 62.4248 27.4414L62.2783 29.8584L61.8145 30.6885C61.8145 30.721 61.8063 30.7536 61.79 30.7861C61.79 30.8187 61.7819 30.8594 61.7656 30.9082C61.7656 31.1198 61.9691 31.3477 62.376 31.5918L62.2783 32.3486V37.085L62.1807 40.8936L62.5225 42.5049V43.335L62.6201 44.9951C62.5387 45.2393 62.026 45.7194 61.082 46.4355L59.8613 47.3877C59.666 47.5993 59.4219 47.7051 59.1289 47.7051C58.9173 47.7051 58.7301 47.64 58.5674 47.5098C58.4046 47.3796 58.3232 47.2412 58.3232 47.0947C58.3232 46.6715 58.4535 46.1751 58.7139 45.6055L58.9092 44.8975L58.665 44.6533L59.0312 40.5518L59.1777 40.1367L59.8125 40.0391V39.2578C59.8125 38.7533 59.7718 38.3789 59.6904 38.1348C59.609 37.8906 59.4056 37.5651 59.0801 37.1582L59.1289 36.3525V36.2061L59.0801 35.791C59.0801 35.2539 59.1777 34.7738 59.373 34.3506L59.0312 33.9355L59.0801 32.5928C59.3079 32.4626 59.4219 32.3161 59.4219 32.1533L59.373 31.7383L58.665 31.6406V30.9082L58.7139 30.249V29.248C58.7139 28.8086 58.665 28.4831 58.5674 28.2715C58.486 28.0599 58.2907 27.832 57.9814 27.5879C58.193 27.0182 58.6732 26.5218 59.4219 26.0986L61.7656 24.7559C62.2051 24.8047 62.6038 25.0651 62.9619 25.5371Z" fill="black"/>
<path d="M90.0127 42.3584C90.0127 42.4561 89.9964 42.5374 89.9639 42.6025L89.6709 43.8477C89.6709 43.8639 89.6709 43.8883 89.6709 43.9209C89.6872 43.9535 89.7035 43.9941 89.7197 44.043L88.6699 45.3369L88.0596 45.5078L87.1074 46.1426L86.7168 46.2402L85.6182 46.8018H85.5205L83.958 46.7529C83.6813 46.7529 83.2988 46.8669 82.8105 47.0947L81.5654 47.8027L79.6123 47.9492L77.6592 47.8027L77.2197 47.4365L75.7793 47.2412L74.168 46.8018L71.9219 46.2891L70.8721 45.3857L69.9199 44.4092L70.2129 43.5547C69.9036 43.6849 69.6188 43.75 69.3584 43.75H69.1631L68.7236 43.2373L68.1133 42.1875L67.7715 41.748L67.625 40.3564L67.8203 39.6484L67.625 39.2578L67.1123 38.6963L67.4297 37.4512L67.3076 35.2051L68.1621 33.7402L69.2119 31.5918L70.5791 30.4443L73.0205 28.1006L73.7285 27.5879L74.6807 26.9043L75.1201 26.7578L76.1211 26.001L79.2705 25L80.0273 24.8047C80.0599 24.8047 80.0843 24.8128 80.1006 24.8291C80.1331 24.8291 80.1576 24.8372 80.1738 24.8535L81.4189 25.3906L82.6641 25.0488L85.0078 25.4395L87.0098 25.1465C87.2539 25.2116 87.5225 25.3092 87.8154 25.4395C87.6852 25.9603 87.5387 26.3102 87.376 26.4893C87.2295 26.652 86.9121 26.8392 86.4238 27.0508L86.375 27.5879L85.374 28.1982L84.666 28.54H84.5684L83.9092 28.4424L83.0791 28.54L79.3193 27.9541C79.1891 27.9215 79.002 27.9053 78.7578 27.9053C78.5299 27.9053 78.3672 27.9215 78.2695 27.9541L76.2188 28.3447H75.5596C75.0062 28.4424 74.4609 28.8737 73.9238 29.6387L72.874 30.0049L72.4102 31.0059L71.5801 31.1523C71.6452 31.2826 71.6777 31.3965 71.6777 31.4941L70.6768 33.4473L70.5791 34.3018L70.6279 35.791C70.6442 36.5072 70.7012 37.1012 70.7988 37.5732C70.8965 38.0452 71.0674 38.5173 71.3115 38.9893L71.1162 39.5508C70.9535 39.8275 70.8721 40.0065 70.8721 40.0879C70.8721 40.1855 70.9209 40.3076 71.0186 40.4541C71.5068 40.5843 71.7428 40.6494 71.7266 40.6494C71.873 40.7633 72.1172 41.0645 72.459 41.5527L73.1182 42.4561C73.1507 42.5212 73.1833 42.5944 73.2158 42.6758C73.2484 42.7572 73.2972 42.863 73.3623 42.9932H73.9238L74.2168 43.4082L75.8281 44.5557L76.5117 45.1416L77.3174 45.3857L78.0254 45.6543L79.124 45.7031L81.9316 45.9961C81.9642 46.0124 81.9886 46.0286 82.0049 46.0449C82.0212 46.0449 82.0293 46.0449 82.0293 46.0449C82.306 46.0449 82.8838 45.8089 83.7627 45.3369L84.2266 45.5078L85.9111 44.3359C86.3506 44.2708 86.7819 44.0918 87.2051 43.7988C87.6283 43.5059 88.1979 42.985 88.9141 42.2363C89.1257 41.9759 89.3291 41.8457 89.5244 41.8457C89.6546 41.8457 89.7686 41.8945 89.8662 41.9922C89.9639 42.0898 90.0127 42.2119 90.0127 42.3584Z" fill="black"/>
<path d="M117.723 44.8975C117.723 45.1416 117.535 45.5892 117.161 46.2402L117.063 46.4355C116.738 47.1029 116.29 47.4772 115.721 47.5586L114.427 47.7051L113.914 47.998C113.849 48.0306 113.768 48.0469 113.67 48.0469C113.507 48.0469 113.393 48.0306 113.328 47.998L112.327 47.6562L110.813 47.2412L109.568 46.7041L109.08 46.3867L109.129 45.752C109.129 45.3451 108.828 45.1416 108.226 45.1416H107.664L107.518 45.459L106.98 45.1416L103.782 42.5049L103.025 42.2363L99.0703 38.9893C98.9401 38.9242 98.8262 38.8916 98.7285 38.8916C98.6309 38.8916 98.5332 38.9486 98.4355 39.0625C98.3542 39.1602 98.3135 39.2741 98.3135 39.4043V39.4531L98.875 45.9961C98.875 46.2077 98.7611 46.4274 98.5332 46.6553C98.3216 46.8669 98.1182 46.9971 97.9229 47.0459L96.2627 47.4365L95.6279 47.8516L95.0664 48.0957C94.8385 47.819 94.7246 47.583 94.7246 47.3877V47.1436L95.1641 44.1895L94.9199 39.3066L95.4326 39.2578C95.6279 39.0137 95.7256 38.8021 95.7256 38.623C95.7256 38.5742 95.7093 38.4521 95.6768 38.2568C95.1722 38.0127 94.9199 37.7604 94.9199 37.5C94.9199 37.3047 95.1559 36.7676 95.6279 35.8887C95.5954 35.6771 95.3757 35.5306 94.9688 35.4492V34.7412L94.8711 32.3975L94.8223 30.835L94.9199 28.9551C95.1641 28.8249 95.3187 28.7028 95.3838 28.5889C95.4489 28.4587 95.4814 28.2308 95.4814 27.9053L94.8711 27.8076L94.7734 20.8496C95.1803 20.6706 95.3838 20.4346 95.3838 20.1416C95.3838 19.8812 95.3431 19.6126 95.2617 19.3359L94.7734 18.9453V17.8955L94.4316 15.2588L94.6758 12.793L94.4316 11.792L94.2119 11.6455L94.1631 10.9375L93.8213 8.05664L93.8701 5.29785L93.6748 4.63867L93.9189 3.00293L93.7236 2.58789C93.8213 2.39258 93.8945 2.27865 93.9434 2.24609C94.0085 2.19727 94.2038 2.11589 94.5293 2.00195C94.5618 1.9694 95.0094 1.61947 95.8721 0.952148L96.3604 0.537109C96.5719 0.537109 96.8079 0.472005 97.0684 0.341797L97.5322 0L97.874 0.195312V0.585938H97.7275L97.4834 1.9043L97.6299 6.00586L97.5322 8.25195C97.5322 8.78906 97.5973 9.40755 97.7275 10.1074L97.2637 10.498L97.166 12.6465L97.3613 13.0859L97.874 13.1592L97.9229 13.5498L97.874 15.0879L98.0693 16.1377L98.0205 16.6016L98.1182 18.457L98.0205 21.8994V24.1943V24.2432L97.7764 25.8057V26.0986C97.7764 26.3916 97.8089 26.5951 97.874 26.709L98.4111 27.6367C98.4274 27.6693 98.4355 27.7018 98.4355 27.7344C98.4518 27.7507 98.46 27.7751 98.46 27.8076L98.2646 29.248V29.4922L98.46 32.4463V33.0566L98.4111 34.2041L98.2158 35.8398V35.8887C98.2158 36.1003 98.2972 36.4502 98.46 36.9385L98.7773 36.792L99.876 35.8887L101.414 34.8389L104.661 31.4941L107.811 28.3447L109.324 26.5381C109.78 25.9847 110.594 25.3743 111.766 24.707L112.425 25.1953C112.864 25.5046 113.084 25.7568 113.084 25.9521C113.084 26.4242 112.726 27.0589 112.01 27.8564L111.521 28.0029C111.163 28.1169 110.936 28.2227 110.838 28.3203C110.757 28.4017 110.651 28.597 110.521 28.9062C109.983 28.9062 109.503 29.0039 109.08 29.1992V29.7852C109.08 30.2409 108.958 30.5583 108.714 30.7373L107.273 31.8359L106.614 32.3975L106.272 32.4463H105.882C105.768 32.9834 105.646 33.3008 105.516 33.3984L104.466 34.0088L103.611 34.8389L102.83 35.4492C102.358 35.7422 102.122 36.0758 102.122 36.4502C102.122 36.8408 102.439 37.2233 103.074 37.5977C104.913 38.6882 105.914 39.4043 106.077 39.7461L106.834 41.3086C107.013 41.5853 107.477 41.862 108.226 42.1387L108.86 41.748L111.814 43.042C112.059 43.1559 112.181 43.3105 112.181 43.5059L112.132 43.7988L113.133 44.4092L113.523 44.043L114.622 44.4092L115.281 44.7021H115.965C116.144 44.7021 116.364 44.7673 116.624 44.8975C116.852 44.6696 117.072 44.5557 117.283 44.5557C117.43 44.5557 117.535 44.5882 117.601 44.6533C117.682 44.7021 117.723 44.7835 117.723 44.8975Z" fill="black"/>
<path d="M4.452 68.07C3.74267 68.07 3.10333 67.9113 2.534 67.594C1.96467 67.2673 1.51667 66.8193 1.19 66.25C0.863333 65.6807 0.7 65.0367 0.7 64.318C0.7 63.5993 0.863333 62.9553 1.19 62.386C1.51667 61.8167 1.96467 61.3733 2.534 61.056C3.10333 60.7387 3.74267 60.58 4.452 60.58C5.16133 60.58 5.80067 60.7387 6.37 61.056C6.93933 61.3733 7.38267 61.8167 7.7 62.386C8.02667 62.9553 8.19 63.5993 8.19 64.318C8.19 65.0367 8.02667 65.6807 7.7 66.25C7.38267 66.8193 6.93933 67.2673 6.37 67.594C5.80067 67.9113 5.16133 68.07 4.452 68.07ZM4.452 67.188C4.97467 67.188 5.44133 67.0713 5.852 66.838C6.272 66.5953 6.59867 66.2547 6.832 65.816C7.06533 65.3773 7.182 64.878 7.182 64.318C7.182 63.758 7.06533 63.2587 6.832 62.82C6.59867 62.3813 6.272 62.0453 5.852 61.812C5.44133 61.5693 4.97467 61.448 4.452 61.448C3.92933 61.448 3.458 61.5693 3.038 61.812C2.62733 62.0453 2.30067 62.3813 2.058 62.82C1.82467 63.2587 1.708 63.758 1.708 64.318C1.708 64.878 1.82467 65.3773 2.058 65.816C2.30067 66.2547 2.62733 66.5953 3.038 66.838C3.458 67.0713 3.92933 67.188 4.452 67.188ZM19.2044 64.304C19.2044 65.452 18.8264 66.3527 18.0704 67.006C17.3144 67.6593 16.2457 68.014 14.8644 68.07V70.716H13.8984V68.084C12.5264 68.028 11.4624 67.6733 10.7064 67.02C9.95972 66.3573 9.58639 65.452 9.58639 64.304C9.58639 63.1653 9.95972 62.274 10.7064 61.63C11.4624 60.986 12.5264 60.636 13.8984 60.58V57.612H14.8644V60.58C16.2457 60.6453 17.3144 61 18.0704 61.644C18.8264 62.288 19.2044 63.1747 19.2044 64.304ZM10.5664 64.304C10.5664 65.1813 10.8464 65.8673 11.4064 66.362C11.9757 66.8567 12.8064 67.1367 13.8984 67.202V61.462C12.8157 61.518 11.9897 61.7933 11.4204 62.288C10.8511 62.7733 10.5664 63.4453 10.5664 64.304ZM14.8644 67.202C15.9564 67.146 16.7871 66.8707 17.3564 66.376C17.9351 65.8813 18.2244 65.1907 18.2244 64.304C18.2244 63.436 17.9351 62.7593 17.3564 62.274C16.7871 61.7887 15.9564 61.518 14.8644 61.462V67.202ZM21.3066 60.636H22.3006V66.488L27.2146 60.636H28.0966V68H27.1026V62.148L22.2026 68H21.3066V60.636ZM38.6173 67.132V69.848H37.6793V68H30.9453V60.636H31.9393V67.132H36.4333V60.636H37.4273V67.132H38.6173ZM40.5156 60.636H41.5096V66.488L46.4236 60.636H47.3056V68H46.3116V62.148L41.4116 68H40.5156V60.636ZM52.6882 60.58C53.6496 60.58 54.3869 60.8227 54.9002 61.308C55.4136 61.784 55.6702 62.4933 55.6702 63.436V68H54.7182V66.852C54.4942 67.2347 54.1629 67.5333 53.7242 67.748C53.2949 67.9627 52.7816 68.07 52.1842 68.07C51.3629 68.07 50.7096 67.874 50.2242 67.482C49.7389 67.09 49.4962 66.572 49.4962 65.928C49.4962 65.3027 49.7202 64.7987 50.1682 64.416C50.6256 64.0333 51.3489 63.842 52.3382 63.842H54.6762V63.394C54.6762 62.7593 54.4989 62.2787 54.1442 61.952C53.7896 61.616 53.2716 61.448 52.5902 61.448C52.1236 61.448 51.6756 61.5273 51.2462 61.686C50.8169 61.8353 50.4482 62.0453 50.1402 62.316L49.6922 61.574C50.0656 61.2567 50.5136 61.014 51.0362 60.846C51.5589 60.6687 52.1096 60.58 52.6882 60.58ZM52.3382 67.286C52.8982 67.286 53.3789 67.16 53.7802 66.908C54.1816 66.6467 54.4802 66.2733 54.6762 65.788V64.584H52.3662C51.1062 64.584 50.4762 65.0227 50.4762 65.9C50.4762 66.3293 50.6396 66.67 50.9662 66.922C51.2929 67.1647 51.7502 67.286 52.3382 67.286ZM64.3363 60.636V68H63.3423V61.518H59.8143L59.7163 63.338C59.6417 64.8687 59.4643 66.0447 59.1843 66.866C58.9043 67.6873 58.405 68.098 57.6863 68.098C57.4903 68.098 57.2523 68.0607 56.9723 67.986L57.0423 67.132C57.2103 67.1693 57.327 67.188 57.3923 67.188C57.775 67.188 58.0643 67.0107 58.2603 66.656C58.4563 66.3013 58.587 65.8627 58.6523 65.34C58.7177 64.8173 58.7737 64.1267 58.8203 63.268L58.9463 60.636H64.3363ZM70.326 63.24C71.25 63.2493 71.95 63.4547 72.426 63.856C72.9114 64.2573 73.154 64.836 73.154 65.592C73.154 66.376 72.8927 66.978 72.37 67.398C71.8567 67.818 71.11 68.0233 70.13 68.014L67.162 68V60.636H68.156V63.212L70.326 63.24ZM70.074 67.258C70.7554 67.2673 71.2687 67.132 71.614 66.852C71.9687 66.5627 72.146 66.1427 72.146 65.592C72.146 65.0507 71.9734 64.6493 71.628 64.388C71.2827 64.1267 70.7647 63.9913 70.074 63.982L68.156 63.954V67.23L70.074 67.258ZM75.0507 60.636H76.0447V63.898H80.6787V60.636H81.6727V68H80.6787V64.752H76.0447V68H75.0507V60.636ZM87.592 63.24C88.516 63.2493 89.2207 63.4547 89.706 63.856C90.1913 64.2573 90.434 64.836 90.434 65.592C90.434 66.376 90.1727 66.978 89.65 67.398C89.1273 67.818 88.3807 68.0233 87.41 68.014L84.498 68V60.636H85.492V63.212L87.592 63.24ZM91.666 60.636H92.66V68H91.666V60.636ZM87.354 67.258C88.0353 67.2673 88.5487 67.132 88.894 66.852C89.2487 66.5627 89.426 66.1427 89.426 65.592C89.426 65.0507 89.2533 64.6493 88.908 64.388C88.5627 64.1267 88.0447 63.9913 87.354 63.982L85.492 63.954V67.23L87.354 67.258ZM95.4902 60.636H96.4842V66.488L101.398 60.636H102.28V68H101.286V62.148L96.3862 68H95.4902V60.636ZM98.8362 59.572C98.2015 59.572 97.6975 59.4133 97.3242 59.096C96.9508 58.7787 96.7595 58.3307 96.7502 57.752H97.4642C97.4735 58.116 97.6042 58.41 97.8562 58.634C98.1082 58.8487 98.4348 58.956 98.8362 58.956C99.2375 58.956 99.5642 58.8487 99.8162 58.634C100.078 58.41 100.213 58.116 100.222 57.752H100.936C100.927 58.3307 100.731 58.7787 100.348 59.096C99.9748 59.4133 99.4708 59.572 98.8362 59.572ZM115.975 67.132V69.778H115.037V68H108.443V69.778H107.505V67.132H107.925C108.42 67.104 108.756 66.74 108.933 66.04C109.11 65.34 109.232 64.36 109.297 63.1L109.395 60.636H114.827V67.132H115.975ZM110.207 63.156C110.16 64.2013 110.072 65.0647 109.941 65.746C109.81 66.418 109.577 66.88 109.241 67.132H113.833V61.518H110.291L110.207 63.156ZM117.912 60.636H118.906V66.488L123.82 60.636H124.702V68H123.708V62.148L118.808 68H117.912V60.636ZM130.631 68.07C129.903 68.07 129.249 67.9113 128.671 67.594C128.101 67.2767 127.653 66.8333 127.327 66.264C127 65.6853 126.837 65.0367 126.837 64.318C126.837 63.5993 127 62.9553 127.327 62.386C127.653 61.8167 128.101 61.3733 128.671 61.056C129.249 60.7387 129.903 60.58 130.631 60.58C131.265 60.58 131.83 60.706 132.325 60.958C132.829 61.2007 133.225 61.56 133.515 62.036L132.773 62.54C132.53 62.176 132.222 61.9053 131.849 61.728C131.475 61.5413 131.069 61.448 130.631 61.448C130.099 61.448 129.618 61.5693 129.189 61.812C128.769 62.0453 128.437 62.3813 128.195 62.82C127.961 63.2587 127.845 63.758 127.845 64.318C127.845 64.8873 127.961 65.3913 128.195 65.83C128.437 66.2593 128.769 66.5953 129.189 66.838C129.618 67.0713 130.099 67.188 130.631 67.188C131.069 67.188 131.475 67.0993 131.849 66.922C132.222 66.7447 132.53 66.474 132.773 66.11L133.515 66.614C133.225 67.09 132.829 67.454 132.325 67.706C131.821 67.9487 131.256 68.07 130.631 68.07ZM140.483 61.518H137.697V68H136.703V61.518H133.917V60.636H140.483V61.518ZM145.714 60.58C146.405 60.58 147.03 60.7387 147.59 61.056C148.15 61.364 148.589 61.8027 148.906 62.372C149.223 62.9413 149.382 63.59 149.382 64.318C149.382 65.0553 149.223 65.7087 148.906 66.278C148.589 66.8473 148.15 67.2907 147.59 67.608C147.039 67.916 146.414 68.07 145.714 68.07C145.117 68.07 144.575 67.9487 144.09 67.706C143.614 67.454 143.222 67.09 142.914 66.614V70.716H141.92V60.636H142.872V62.092C143.171 61.6067 143.563 61.2333 144.048 60.972C144.543 60.7107 145.098 60.58 145.714 60.58ZM145.644 67.188C146.157 67.188 146.624 67.0713 147.044 66.838C147.464 66.5953 147.791 66.2547 148.024 65.816C148.267 65.3773 148.388 64.878 148.388 64.318C148.388 63.758 148.267 63.2633 148.024 62.834C147.791 62.3953 147.464 62.0547 147.044 61.812C146.624 61.5693 146.157 61.448 145.644 61.448C145.121 61.448 144.65 61.5693 144.23 61.812C143.819 62.0547 143.493 62.3953 143.25 62.834C143.017 63.2633 142.9 63.758 142.9 64.318C142.9 64.878 143.017 65.3773 143.25 65.816C143.493 66.2547 143.819 66.5953 144.23 66.838C144.65 67.0713 145.121 67.188 145.644 67.188ZM151.518 60.636H152.512V66.488L157.426 60.636H158.308V68H157.314V62.148L152.414 68H151.518V60.636ZM164.726 60.818C165.408 60.818 166.014 60.972 166.546 61.28C167.088 61.5787 167.508 62.0033 167.806 62.554C168.105 63.0953 168.254 63.716 168.254 64.416C168.254 65.1347 168.096 65.774 167.778 66.334C167.47 66.8847 167.036 67.314 166.476 67.622C165.916 67.93 165.272 68.084 164.544 68.084C163.322 68.084 162.374 67.6547 161.702 66.796C161.03 65.9373 160.694 64.752 160.694 63.24C160.694 61.6627 160.993 60.454 161.59 59.614C162.197 58.774 163.14 58.2047 164.418 57.906L167.722 57.15L167.89 58.06L164.782 58.774C163.728 59.0073 162.953 59.4227 162.458 60.02C161.964 60.608 161.693 61.4807 161.646 62.638C161.945 62.0687 162.36 61.6253 162.892 61.308C163.424 60.9813 164.036 60.818 164.726 60.818ZM164.572 67.258C165.086 67.258 165.543 67.1413 165.944 66.908C166.355 66.6653 166.672 66.3293 166.896 65.9C167.13 65.4707 167.246 64.9853 167.246 64.444C167.246 63.9027 167.134 63.4267 166.91 63.016C166.686 62.6053 166.369 62.288 165.958 62.064C165.557 61.8307 165.095 61.714 164.572 61.714C164.05 61.714 163.583 61.8307 163.172 62.064C162.771 62.288 162.454 62.6053 162.22 63.016C161.996 63.4267 161.884 63.9027 161.884 64.444C161.884 64.9853 161.996 65.4707 162.22 65.9C162.454 66.3293 162.776 66.6653 163.186 66.908C163.597 67.1413 164.059 67.258 164.572 67.258ZM173.549 63.24C174.473 63.2493 175.173 63.4547 175.649 63.856C176.134 64.2573 176.377 64.836 176.377 65.592C176.377 66.376 176.115 66.978 175.593 67.398C175.079 67.818 174.333 68.0233 173.353 68.014L170.385 68V60.636H171.379V63.212L173.549 63.24ZM173.297 67.258C173.978 67.2673 174.491 67.132 174.837 66.852C175.191 66.5627 175.369 66.1427 175.369 65.592C175.369 65.0507 175.196 64.6493 174.851 64.388C174.505 64.1267 173.987 63.9913 173.297 63.982L171.379 63.954V67.23L173.297 67.258ZM184.601 60.58C185.292 60.58 185.913 60.7387 186.463 61.056C187.023 61.3733 187.462 61.8167 187.779 62.386C188.097 62.9553 188.255 63.5993 188.255 64.318C188.255 65.0367 188.097 65.6807 187.779 66.25C187.462 66.8193 187.023 67.2673 186.463 67.594C185.913 67.9113 185.292 68.07 184.601 68.07C183.948 68.07 183.355 67.93 182.823 67.65C182.291 67.3607 181.857 66.964 181.521 66.46C181.195 65.956 181.003 65.3773 180.947 64.724H179.267V68H178.273V60.636H179.267V63.814H180.961C181.036 63.1793 181.237 62.6193 181.563 62.134C181.899 61.6393 182.329 61.2567 182.851 60.986C183.374 60.7153 183.957 60.58 184.601 60.58ZM184.601 67.202C185.105 67.202 185.558 67.0807 185.959 66.838C186.37 66.5953 186.692 66.2547 186.925 65.816C187.159 65.3773 187.275 64.878 187.275 64.318C187.275 63.758 187.159 63.2587 186.925 62.82C186.692 62.3813 186.37 62.0453 185.959 61.812C185.558 61.5693 185.105 61.448 184.601 61.448C184.097 61.448 183.64 61.5693 183.229 61.812C182.828 62.0453 182.511 62.3813 182.277 62.82C182.044 63.2587 181.927 63.758 181.927 64.318C181.927 64.878 182.044 65.3773 182.277 65.816C182.511 66.2547 182.828 66.5953 183.229 66.838C183.64 67.0807 184.097 67.202 184.601 67.202ZM195.293 61.518H192.507V68H191.513V61.518H188.727V60.636H195.293V61.518ZM199.427 68.07C198.717 68.07 198.078 67.9113 197.509 67.594C196.939 67.2673 196.491 66.8193 196.165 66.25C195.838 65.6807 195.675 65.0367 195.675 64.318C195.675 63.5993 195.838 62.9553 196.165 62.386C196.491 61.8167 196.939 61.3733 197.509 61.056C198.078 60.7387 198.717 60.58 199.427 60.58C200.136 60.58 200.775 60.7387 201.345 61.056C201.914 61.3733 202.357 61.8167 202.675 62.386C203.001 62.9553 203.165 63.5993 203.165 64.318C203.165 65.0367 203.001 65.6807 202.675 66.25C202.357 66.8193 201.914 67.2673 201.345 67.594C200.775 67.9113 200.136 68.07 199.427 68.07ZM199.427 67.188C199.949 67.188 200.416 67.0713 200.827 66.838C201.247 66.5953 201.573 66.2547 201.807 65.816C202.04 65.3773 202.157 64.878 202.157 64.318C202.157 63.758 202.04 63.2587 201.807 62.82C201.573 62.3813 201.247 62.0453 200.827 61.812C200.416 61.5693 199.949 61.448 199.427 61.448C198.904 61.448 198.433 61.5693 198.013 61.812C197.602 62.0453 197.275 62.3813 197.033 62.82C196.799 63.2587 196.683 63.758 196.683 64.318C196.683 64.878 196.799 65.3773 197.033 65.816C197.275 66.2547 197.602 66.5953 198.013 66.838C198.433 67.0713 198.904 67.188 199.427 67.188ZM209.083 60.58C209.774 60.58 210.399 60.7387 210.959 61.056C211.519 61.364 211.958 61.8027 212.275 62.372C212.592 62.9413 212.751 63.59 212.751 64.318C212.751 65.0553 212.592 65.7087 212.275 66.278C211.958 66.8473 211.519 67.2907 210.959 67.608C210.408 67.916 209.783 68.07 209.083 68.07C208.486 68.07 207.944 67.9487 207.459 67.706C206.983 67.454 206.591 67.09 206.283 66.614V70.716H205.289V60.636H206.241V62.092C206.54 61.6067 206.932 61.2333 207.417 60.972C207.912 60.7107 208.467 60.58 209.083 60.58ZM209.013 67.188C209.526 67.188 209.993 67.0713 210.413 66.838C210.833 66.5953 211.16 66.2547 211.393 65.816C211.636 65.3773 211.757 64.878 211.757 64.318C211.757 63.758 211.636 63.2633 211.393 62.834C211.16 62.3953 210.833 62.0547 210.413 61.812C209.993 61.5693 209.526 61.448 209.013 61.448C208.49 61.448 208.019 61.5693 207.599 61.812C207.188 62.0547 206.862 62.3953 206.619 62.834C206.386 63.2633 206.269 63.758 206.269 64.318C206.269 64.878 206.386 65.3773 206.619 65.816C206.862 66.2547 207.188 66.5953 207.599 66.838C208.019 67.0713 208.49 67.188 209.013 67.188ZM5.95 88.084C4.97933 88.084 4.09733 87.8693 3.304 87.44C2.52 87.0013 1.904 86.404 1.456 85.648C1.01733 84.892 0.798 84.0427 0.798 83.1C0.798 82.1573 1.01733 81.308 1.456 80.552C1.904 79.796 2.52 79.2033 3.304 78.774C4.09733 78.3353 4.97933 78.116 5.95 78.116C6.92067 78.116 7.79333 78.3307 8.568 78.76C9.352 79.1893 9.968 79.7867 10.416 80.552C10.864 81.308 11.088 82.1573 11.088 83.1C11.088 84.0427 10.864 84.8967 10.416 85.662C9.968 86.418 9.352 87.0107 8.568 87.44C7.79333 87.8693 6.92067 88.084 5.95 88.084ZM5.95 87.16C6.72467 87.16 7.42467 86.9873 8.05 86.642C8.67533 86.2873 9.16533 85.802 9.52 85.186C9.87467 84.5607 10.052 83.8653 10.052 83.1C10.052 82.3347 9.87467 81.644 9.52 81.028C9.16533 80.4027 8.67533 79.9173 8.05 79.572C7.42467 79.2173 6.72467 79.04 5.95 79.04C5.17533 79.04 4.47067 79.2173 3.836 79.572C3.21067 79.9173 2.716 80.4027 2.352 81.028C1.99733 81.644 1.82 82.3347 1.82 83.1C1.82 83.8653 1.99733 84.5607 2.352 85.186C2.716 85.802 3.21067 86.2873 3.836 86.642C4.47067 86.9873 5.17533 87.16 5.95 87.16ZM17.8582 88.084C16.8875 88.084 16.0055 87.8693 15.2122 87.44C14.4282 87.0013 13.8122 86.404 13.3642 85.648C12.9255 84.892 12.7062 84.0427 12.7062 83.1C12.7062 82.1573 12.9255 81.308 13.3642 80.552C13.8122 79.796 14.4282 79.2033 15.2122 78.774C16.0055 78.3353 16.8875 78.116 17.8582 78.116C18.8289 78.116 19.7015 78.3307 20.4762 78.76C21.2602 79.1893 21.8762 79.7867 22.3242 80.552C22.7722 81.308 22.9962 82.1573 22.9962 83.1C22.9962 84.0427 22.7722 84.8967 22.3242 85.662C21.8762 86.418 21.2602 87.0107 20.4762 87.44C19.7015 87.8693 18.8289 88.084 17.8582 88.084ZM17.8582 87.16C18.6329 87.16 19.3329 86.9873 19.9582 86.642C20.5835 86.2873 21.0735 85.802 21.4282 85.186C21.7829 84.5607 21.9602 83.8653 21.9602 83.1C21.9602 82.3347 21.7829 81.644 21.4282 81.028C21.0735 80.4027 20.5835 79.9173 19.9582 79.572C19.3329 79.2173 18.6329 79.04 17.8582 79.04C17.0835 79.04 16.3789 79.2173 15.7442 79.572C15.1189 79.9173 14.6242 80.4027 14.2602 81.028C13.9055 81.644 13.7282 82.3347 13.7282 83.1C13.7282 83.8653 13.9055 84.5607 14.2602 85.186C14.6242 85.802 15.1189 86.2873 15.7442 86.642C16.3789 86.9873 17.0835 87.16 17.8582 87.16ZM29.7664 88.084C28.7957 88.084 27.9137 87.8693 27.1204 87.44C26.3364 87.0013 25.7204 86.404 25.2724 85.648C24.8337 84.892 24.6144 84.0427 24.6144 83.1C24.6144 82.1573 24.8337 81.308 25.2724 80.552C25.7204 79.796 26.3364 79.2033 27.1204 78.774C27.9137 78.3353 28.7957 78.116 29.7664 78.116C30.7371 78.116 31.6097 78.3307 32.3844 78.76C33.1684 79.1893 33.7844 79.7867 34.2324 80.552C34.6804 81.308 34.9044 82.1573 34.9044 83.1C34.9044 84.0427 34.6804 84.8967 34.2324 85.662C33.7844 86.418 33.1684 87.0107 32.3844 87.44C31.6097 87.8693 30.7371 88.084 29.7664 88.084ZM29.7664 87.16C30.5411 87.16 31.2411 86.9873 31.8664 86.642C32.4917 86.2873 32.9817 85.802 33.3364 85.186C33.6911 84.5607 33.8684 83.8653 33.8684 83.1C33.8684 82.3347 33.6911 81.644 33.3364 81.028C32.9817 80.4027 32.4917 79.9173 31.8664 79.572C31.2411 79.2173 30.5411 79.04 29.7664 79.04C28.9917 79.04 28.2871 79.2173 27.6524 79.572C27.0271 79.9173 26.5324 80.4027 26.1684 81.028C25.8137 81.644 25.6364 82.3347 25.6364 83.1C25.6364 83.8653 25.8137 84.5607 26.1684 85.186C26.5324 85.802 27.0271 86.2873 27.6524 86.642C28.2871 86.9873 28.9917 87.16 29.7664 87.16ZM41.0407 78.2H48.2087V79.082H42.0627V82.288H45.2687C46.426 82.288 47.3033 82.526 47.9007 83.002C48.5073 83.478 48.8107 84.1687 48.8107 85.074C48.8107 86.0167 48.484 86.74 47.8307 87.244C47.1867 87.748 46.258 88 45.0447 88H41.0407V78.2ZM45.0307 87.174C45.936 87.174 46.6173 87.0013 47.0747 86.656C47.5413 86.3107 47.7747 85.7973 47.7747 85.116C47.7747 84.444 47.546 83.9447 47.0887 83.618C46.6407 83.282 45.9547 83.114 45.0307 83.114H42.0627V87.174H45.0307ZM54.4605 83.506H52.2205V88H51.2125V78.2H52.2205V82.596H54.4605L57.7785 78.2H58.8985L55.2585 82.96L59.1085 88H57.9185L54.4605 83.506ZM64.5603 82.876C65.2043 83.0347 65.7083 83.324 66.0723 83.744C66.4457 84.164 66.6323 84.668 66.6323 85.256C66.6323 85.8253 66.455 86.3247 66.1003 86.754C65.7457 87.1833 65.2743 87.5147 64.6863 87.748C64.0983 87.972 63.459 88.084 62.7683 88.084C62.115 88.084 61.471 87.9813 60.8363 87.776C60.211 87.5613 59.6463 87.244 59.1423 86.824L59.5203 86.082C59.9497 86.446 60.4397 86.726 60.9903 86.922C61.541 87.1087 62.0963 87.202 62.6563 87.202C63.1883 87.202 63.6783 87.118 64.1263 86.95C64.5743 86.782 64.929 86.544 65.1903 86.236C65.461 85.9187 65.5963 85.5453 65.5963 85.116C65.5963 84.5467 65.3723 84.108 64.9243 83.8C64.4763 83.492 63.8463 83.338 63.0343 83.338H60.9343V82.498H62.9783C63.669 82.498 64.2057 82.3533 64.5883 82.064C64.9803 81.7653 65.1763 81.3547 65.1763 80.832C65.1763 80.2533 64.929 79.8007 64.4343 79.474C63.9397 79.138 63.319 78.97 62.5723 78.97C62.1057 78.97 61.6343 79.04 61.1583 79.18C60.6823 79.3107 60.2297 79.5113 59.8003 79.782L59.4503 78.928C60.421 78.3493 61.471 78.06 62.6003 78.06C63.263 78.06 63.8697 78.1673 64.4203 78.382C64.971 78.5967 65.405 78.9047 65.7223 79.306C66.049 79.7073 66.2123 80.1787 66.2123 80.72C66.2123 81.2427 66.0677 81.6953 65.7783 82.078C65.489 82.4513 65.083 82.7173 64.5603 82.876ZM77.3208 84.192C78.3195 84.4253 78.8188 85.0273 78.8188 85.998C78.8188 86.642 78.5808 87.1367 78.1048 87.482C77.6288 87.8273 76.9195 88 75.9768 88H72.6308V80.636H75.8788C76.7188 80.636 77.3768 80.7993 77.8528 81.126C78.3288 81.4527 78.5668 81.9193 78.5668 82.526C78.5668 82.9273 78.4548 83.2727 78.2308 83.562C78.0161 83.842 77.7128 84.052 77.3208 84.192ZM73.5968 83.912H75.8088C76.3781 83.912 76.8121 83.8047 77.1108 83.59C77.4188 83.3753 77.5728 83.0627 77.5728 82.652C77.5728 82.2413 77.4188 81.9333 77.1108 81.728C76.8121 81.5227 76.3781 81.42 75.8088 81.42H73.5968V83.912ZM75.9348 87.216C76.5695 87.216 77.0455 87.1133 77.3628 86.908C77.6801 86.7027 77.8388 86.3807 77.8388 85.942C77.8388 85.5033 77.6941 85.1813 77.4048 84.976C77.1155 84.7613 76.6581 84.654 76.0328 84.654H73.5968V87.216H75.9348ZM94.5704 87.104V90.296H93.6044V88H85.0504V78.2H86.0724V87.104H91.9944V78.2H93.0164V87.104H94.5704ZM107.117 83.086C107.117 84.3833 106.655 85.4053 105.731 86.152C104.816 86.8893 103.533 87.2813 101.881 87.328V88.336H100.915V87.328C99.2625 87.272 97.9745 86.8753 97.0505 86.138C96.1358 85.4007 95.6785 84.3833 95.6785 83.086C95.6785 81.7887 96.1358 80.7713 97.0505 80.034C97.9745 79.2967 99.2625 78.9 100.915 78.844V77.864H101.881V78.844C103.523 78.9 104.807 79.3013 105.731 80.048C106.655 80.7853 107.117 81.798 107.117 83.086ZM101.881 86.502C103.234 86.446 104.279 86.124 105.017 85.536C105.754 84.948 106.123 84.1313 106.123 83.086C106.123 82.0407 105.749 81.224 105.003 80.636C104.265 80.048 103.225 79.7307 101.881 79.684V86.502ZM96.6725 83.086C96.6725 84.1313 97.0412 84.948 97.7785 85.536C98.5252 86.1147 99.5705 86.4367 100.915 86.502V79.684C99.5518 79.74 98.5018 80.062 97.7645 80.65C97.0365 81.2287 96.6725 82.0407 96.6725 83.086ZM113.766 88.084C112.796 88.084 111.914 87.8693 111.12 87.44C110.336 87.0013 109.72 86.404 109.272 85.648C108.834 84.892 108.614 84.0427 108.614 83.1C108.614 82.1573 108.834 81.308 109.272 80.552C109.72 79.796 110.336 79.2033 111.12 78.774C111.914 78.3353 112.796 78.116 113.766 78.116C114.737 78.116 115.61 78.3307 116.384 78.76C117.168 79.1893 117.784 79.7867 118.232 80.552C118.68 81.308 118.904 82.1573 118.904 83.1C118.904 84.0427 118.68 84.8967 118.232 85.662C117.784 86.418 117.168 87.0107 116.384 87.44C115.61 87.8693 114.737 88.084 113.766 88.084ZM113.766 87.16C114.541 87.16 115.241 86.9873 115.866 86.642C116.492 86.2873 116.982 85.802 117.336 85.186C117.691 84.5607 117.868 83.8653 117.868 83.1C117.868 82.3347 117.691 81.644 117.336 81.028C116.982 80.4027 116.492 79.9173 115.866 79.572C115.241 79.2173 114.541 79.04 113.766 79.04C112.992 79.04 112.287 79.2173 111.652 79.572C111.027 79.9173 110.532 80.4027 110.168 81.028C109.814 81.644 109.636 82.3347 109.636 83.1C109.636 83.8653 109.814 84.5607 110.168 85.186C110.532 85.802 111.027 86.2873 111.652 86.642C112.287 86.9873 112.992 87.16 113.766 87.16Z" fill="black"/>
</svg>
