<svg width="35" height="35" fill="none" xmlns="http://www.w3.org/2000/svg"><path d="M17.5 35.001c9.665 0 17.5-7.835 17.5-17.5C35 7.834 27.165 0 17.5 0S0 7.835 0 17.5c0 9.666 7.835 17.501 17.5 17.501z" fill="#DC4E41"/><path d="M6.093 18.285c-.062 3.011 2.012 5.885 4.864 6.822 2.688.903 5.991.227 7.78-2.074 1.305-1.613 1.602-3.763 1.46-5.77-2.3-.022-4.602-.015-6.9-.011-.004.82 0 1.636.003 2.456 1.378.038 2.757.02 4.134.049-.347 1.192-1.14 2.3-2.342 2.731-2.322 1.024-5.285-.313-6.015-2.749-.882-2.332.561-5.147 2.945-5.826 1.478-.52 3 .066 4.266.834.64-.6 1.24-1.24 1.829-1.888-1.437-1.202-3.284-1.94-5.182-1.777-3.724.044-6.984 3.482-6.842 7.203zm18.583-3.101c-.007.685-.014 1.374-.017 2.06-.69.007-1.375.01-2.06.014v2.053c.685.003 1.374.007 2.06.014.007.686.007 1.371.014 2.06.682 0 1.367-.003 2.053 0 .004-.689.007-1.374.014-2.064l2.06-.01v-2.053c-.685-.004-1.375-.007-2.06-.014l-.014-2.06h-2.05z" fill="#DC4E41"/><path d="M6.093 18.284c-.141-3.72 3.117-7.159 6.842-7.203 1.898-.162 3.745.575 5.181 1.777a32.745 32.745 0 01-1.829 1.888c-1.264-.768-2.787-1.354-4.265-.834-2.384.68-3.828 3.494-2.946 5.826.73 2.436 3.694 3.773 6.015 2.75 1.203-.431 1.995-1.54 2.343-2.732-1.378-.028-2.756-.01-4.134-.049-.003-.82-.007-1.636-.003-2.456 2.298-.004 4.599-.01 6.9.01.142 2.009-.155 4.159-1.46 5.77-1.789 2.302-5.092 2.978-7.78 2.075-2.852-.937-4.926-3.81-4.864-6.822zm18.583-3.1h2.05l.014 2.06c.685.007 1.374.01 2.06.014v2.053l-2.06.01c-.007.69-.01 1.375-.014 2.064-.686-.004-1.372 0-2.053 0-.007-.69-.007-1.375-.014-2.06-.686-.008-1.375-.01-2.06-.014v-2.054c.685-.003 1.371-.007 2.06-.014.003-.685.01-1.374.017-2.06z" fill="#fff"/></svg>