<svg width="14" height="14" fill="none" xmlns="http://www.w3.org/2000/svg"><g clip-path="url(#clip0)"><path d="M3.063 13.683H.226V4.547h2.837v9.136zM1.643 3.3a1.651 1.651 0 11-.016-3.302A1.651 1.651 0 011.643 3.3zM13.68 13.683h-2.83V9.236c0-1.06-.021-2.419-1.475-2.419-1.475 0-1.7 1.151-1.7 2.343v4.523H4.84V4.547h2.72v1.247h.04a2.981 2.981 0 012.684-1.475c2.87 0 3.4 1.891 3.4 4.346v5.018h-.004z" fill="#fff"/></g><defs><clipPath id="clip0"><path fill="#fff" d="M0 0h13.683v13.683H0z"/></clipPath></defs></svg>