<svg width="14" height="14" fill="none" xmlns="http://www.w3.org/2000/svg"><g clip-path="url(#clip0)"><path d="M6.843 3.332a3.507 3.507 0 103.242 2.164 3.5 3.5 0 00-3.242-2.164zm0 5.788a2.28 2.28 0 110-4.56 2.28 2.28 0 010 4.56zm4.469-5.931a.818.818 0 11-1.636 0 .818.818 0 011.636 0zm2.323.83a4.049 4.049 0 00-1.105-2.866A4.075 4.075 0 009.664.048c-1.129-.064-4.515-.064-5.644 0a4.069 4.069 0 00-2.866 1.1A4.062 4.062 0 00.048 4.016c-.064 1.129-.064 4.515 0 5.644a4.049 4.049 0 001.105 2.866 4.08 4.08 0 002.866 1.106c1.129.064 4.515.064 5.644 0a4.049 4.049 0 002.866-1.105 4.075 4.075 0 001.106-2.865c.064-1.129.064-4.512 0-5.641v-.002zm-1.459 6.853a2.31 2.31 0 01-1.3 1.3 15.076 15.076 0 01-4.033.275 15.192 15.192 0 01-4.033-.275 2.31 2.31 0 01-1.3-1.3 15.077 15.077 0 01-.275-4.032c-.088-1.35.004-2.707.275-4.033a2.309 2.309 0 011.3-1.3 15.077 15.077 0 014.033-.275c1.35-.088 2.707.004 4.033.275a2.31 2.31 0 011.3 1.3c.272 1.326.365 2.682.275 4.033.09 1.35-.003 2.706-.275 4.032z" fill="#fff"/></g><defs><clipPath id="clip0"><path fill="#fff" d="M0 0h13.683v13.68H0z"/></clipPath></defs></svg>