<svg width="14" height="14" viewBox="0 0 14 14" fill="none" xmlns="http://www.w3.org/2000/svg">
<g clip-path="url(#clip0)">
<path d="M6.843 3.332C6.14938 3.332 5.47134 3.53768 4.89462 3.92304C4.31789 4.30839 3.86839 4.85611 3.60295 5.49693C3.33752 6.13775 3.26807 6.84289 3.40339 7.52318C3.5387 8.20347 3.87271 8.82836 4.36318 9.31882C4.85364 9.80929 5.47853 10.1433 6.15882 10.2786C6.83911 10.4139 7.54425 10.3445 8.18507 10.079C8.82589 9.81361 9.37361 9.36411 9.75896 8.78738C10.1443 8.21066 10.35 7.53262 10.35 6.839C10.3509 6.37819 10.2608 5.92174 10.0849 5.49584C9.90901 5.06993 9.65072 4.68296 9.32488 4.35712C8.99904 4.03128 8.61207 3.77299 8.18616 3.59708C7.76026 3.42116 7.3038 3.33108 6.843 3.332ZM6.843 9.12C6.39206 9.12 5.95124 8.98628 5.5763 8.73575C5.20136 8.48522 4.90912 8.12913 4.73655 7.71252C4.56399 7.2959 4.51884 6.83747 4.60681 6.39519C4.69478 5.95292 4.91193 5.54666 5.2308 5.2278C5.54966 4.90893 5.95592 4.69178 6.39819 4.60381C6.84047 4.51584 7.2989 4.56099 7.71552 4.73355C8.13213 4.90612 8.48822 5.19836 8.73875 5.5733C8.98928 5.94824 9.123 6.38906 9.123 6.84C9.12194 7.44437 8.88139 8.02368 8.45404 8.45104C8.02668 8.87839 7.44737 9.11894 6.843 9.12ZM11.312 3.189C11.312 3.35079 11.264 3.50894 11.1741 3.64346C11.0843 3.77798 10.9565 3.88282 10.807 3.94473C10.6576 4.00665 10.4931 4.02285 10.3344 3.99128C10.1757 3.95972 10.03 3.88181 9.91559 3.76741C9.80119 3.65301 9.72328 3.50726 9.69172 3.34858C9.66016 3.18991 9.67635 3.02543 9.73827 2.87597C9.80018 2.7265 9.90502 2.59874 10.0395 2.50886C10.1741 2.41897 10.3322 2.371 10.494 2.371C10.6015 2.37074 10.708 2.39171 10.8073 2.43273C10.9067 2.47374 10.997 2.53399 11.073 2.61C11.149 2.68601 11.2093 2.77629 11.2503 2.87565C11.2913 2.97502 11.3123 3.0815 11.312 3.189ZM13.635 4.019C13.6574 2.95561 13.2605 1.92612 12.53 1.153C11.7554 0.424929 10.7269 0.0283949 9.664 0.048C8.535 -0.016 5.149 -0.016 4.02 0.048C2.95769 0.0264061 1.92907 0.4212 1.154 1.148C0.423881 1.92221 0.0267477 2.95203 0.048 4.016C-0.016 5.145 -0.016 8.531 0.048 9.66C0.0256049 10.7234 0.422532 11.7529 1.153 12.526C1.92776 13.254 2.95606 13.6508 4.019 13.632C5.148 13.696 8.534 13.696 9.663 13.632C10.7264 13.6544 11.7559 13.2575 12.529 12.527C13.2572 11.7528 13.6541 10.7247 13.635 9.662C13.699 8.533 13.699 5.15 13.635 4.021V4.019ZM12.176 10.872C12.0599 11.1662 11.8846 11.4333 11.661 11.657C11.4373 11.8806 11.1702 12.0559 10.876 12.172C9.55011 12.4443 8.19358 12.5368 6.843 12.447C5.49242 12.5354 4.13608 12.4429 2.81 12.172C2.51584 12.0559 2.24866 11.8806 2.02504 11.657C1.80141 11.4333 1.62611 11.1662 1.51 10.872C1.2378 9.54643 1.14531 8.19025 1.235 6.84C1.14663 5.48942 1.23911 4.13308 1.51 2.807C1.62611 2.51284 1.80141 2.24566 2.02504 2.02204C2.24866 1.79841 2.51584 1.62311 2.81 1.507C4.13589 1.23471 5.49242 1.14222 6.843 1.232C8.19358 1.14363 9.54992 1.23611 10.876 1.507C11.1702 1.62311 11.4373 1.79841 11.661 2.02204C11.8846 2.24566 12.0599 2.51284 12.176 2.807C12.4483 4.13289 12.5408 5.48942 12.451 6.84C12.5408 8.19025 12.4483 9.54645 12.176 10.872Z" fill="white"/>
</g>
<defs>
<clipPath id="clip0">
<rect width="13.683" height="13.68" fill="white"/>
</clipPath>
</defs>
</svg>
