<svg width="16" height="13" viewBox="0 0 16 13" fill="none" xmlns="http://www.w3.org/2000/svg">
<g clip-path="url(#clip0)">
<path d="M13.751 3.10204C13.761 3.23804 13.761 3.37404 13.761 3.51004C13.7691 4.68593 13.5435 5.8517 13.0972 6.93965C12.651 8.0276 11.993 9.01603 11.1615 9.84753C10.33 10.679 9.34156 11.337 8.25361 11.7833C7.16566 12.2295 5.99989 12.4551 4.824 12.447C3.11385 12.4519 1.43871 11.9626 0 11.038C0.252023 11.0658 0.505456 11.0789 0.759 11.077C2.17287 11.0807 3.54674 10.6079 4.659 9.73504C4.00359 9.72311 3.36827 9.50681 2.84173 9.11635C2.3152 8.72588 1.92373 8.18074 1.722 7.55704C1.91816 7.58822 2.11638 7.6046 2.315 7.60604C2.59407 7.60525 2.87192 7.5693 3.142 7.49904C2.43099 7.35544 1.79156 6.97026 1.33223 6.40885C0.872895 5.84745 0.621958 5.14441 0.622 4.41904V4.37604C1.0572 4.6194 1.54376 4.75646 2.042 4.77604C1.37553 4.33146 0.903783 3.64938 0.722975 2.86891C0.542166 2.08844 0.665923 1.26839 1.069 0.576039C1.85833 1.54693 2.84291 2.34108 3.95889 2.90699C5.07486 3.4729 6.29733 3.79795 7.547 3.86104C7.4965 3.62433 7.47036 3.38307 7.469 3.14104C7.46962 2.51105 7.65949 1.89577 8.01398 1.37498C8.36848 0.854195 8.87126 0.451916 9.45713 0.220305C10.043 -0.011306 10.6849 -0.061567 11.2997 0.0760388C11.9145 0.213645 12.4738 0.53277 12.905 0.992039C13.609 0.856587 14.284 0.599762 14.9 0.233039C14.6657 0.958907 14.1747 1.57438 13.519 1.96404C14.1428 1.89309 14.7526 1.72928 15.328 1.47804C14.8981 2.1041 14.3656 2.65314 13.753 3.10204H13.751Z" fill="white"/>
</g>
<defs>
<clipPath id="clip0">
<rect width="15.327" height="12.448" fill="white"/>
</clipPath>
</defs>
</svg>
