<svg width="16" height="13" fill="none" xmlns="http://www.w3.org/2000/svg"><g clip-path="url(#clip0)"><path d="M13.751 3.102c.01.136.01.272.01.408a8.875 8.875 0 01-8.937 8.937A8.876 8.876 0 010 11.038c.252.028.505.04.759.039a6.29 6.29 0 003.9-1.342 3.147 3.147 0 01-2.937-2.178c.196.031.394.048.593.049.28 0 .557-.037.827-.107a3.142 3.142 0 01-2.52-3.08v-.043c.435.243.922.38 1.42.4a3.146 3.146 0 01-.973-4.2 8.929 8.929 0 006.478 3.285 3.546 3.546 0 01-.078-.72A3.144 3.144 0 0112.905.992 6.184 6.184 0 0014.9.233a3.133 3.133 0 01-1.381 1.731 6.3 6.3 0 001.809-.486 6.751 6.751 0 01-1.575 1.624h-.002z" fill="#fff"/></g><defs><clipPath id="clip0"><path fill="#fff" d="M0 0h15.327v12.448H0z"/></clipPath></defs></svg>