<svg width="35" height="35" fill="none" xmlns="http://www.w3.org/2000/svg"><path d="M17.5 35C27.165 35 35 27.165 35 17.5S27.165 0 17.5 0 0 7.835 0 17.5 7.835 35 17.5 35z" fill="#55ACEE"/><path d="M28.22 12.577a8.348 8.348 0 01-2.402.658 4.194 4.194 0 001.84-2.314A8.374 8.374 0 0125 11.936a4.184 4.184 0 00-7.128 3.816A11.874 11.874 0 019.25 11.38a4.183 4.183 0 001.294 5.585 4.154 4.154 0 01-1.895-.523v.052a4.185 4.185 0 003.356 4.102 4.167 4.167 0 01-1.89.072 4.188 4.188 0 003.909 2.905 8.393 8.393 0 01-6.193 1.732 11.832 11.832 0 006.411 1.88c7.694 0 11.902-6.374 11.902-11.902 0-.182-.004-.362-.012-.541a8.48 8.48 0 002.087-2.165z" fill="#F1F2F2"/></svg>