<svg width="35" height="35" fill="none" xmlns="http://www.w3.org/2000/svg"><path d="M17.5 35C27.165 35 35 27.165 35 17.5S27.165 0 17.5 0 0 7.835 0 17.5 7.835 35 17.5 35z" fill="#4D76A1"/><path fill-rule="evenodd" clip-rule="evenodd" d="M16.84 25.175h1.373s.415-.045.627-.274c.195-.21.188-.603.188-.603s-.026-1.843.829-2.114c.843-.268 1.926 1.78 3.074 2.569.867.596 1.527.465 1.527.465l3.069-.043s1.605-.099.844-1.36c-.063-.104-.444-.934-2.282-2.64-1.924-1.787-1.666-1.498.652-4.587 1.411-1.882 1.975-3.03 1.8-3.522-.169-.469-1.207-.345-1.207-.345l-3.455.022s-.257-.035-.447.078c-.185.112-.305.371-.305.371s-.546 1.456-1.276 2.694c-1.538 2.613-2.153 2.75-2.405 2.588-.585-.378-.439-1.518-.439-2.329 0-2.532.384-3.587-.748-3.86-.375-.091-.652-.151-1.612-.16-1.233-.014-2.276.003-2.867.292-.393.193-.697.622-.512.646.228.03.746.14 1.02.513.354.482.341 1.564.341 1.564s.204 2.98-.475 3.35c-.465.254-1.104-.264-2.476-2.634-.703-1.214-1.233-2.556-1.233-2.556s-.103-.251-.285-.385a1.433 1.433 0 00-.531-.215l-3.283.022s-.493.014-.674.228c-.161.19-.013.585-.013.585s2.57 6.014 5.48 9.044c2.67 2.779 5.7 2.596 5.7 2.596z" fill="#fff"/></svg>