<svg width="12" height="7" viewBox="0 0 12 7" fill="none" xmlns="http://www.w3.org/2000/svg">
<path d="M6.00132 2.11057L10.537 6.74449C10.6167 6.82566 10.7113 6.89001 10.8155 6.93385C10.9196 6.97769 11.0311 7.00017 11.1437 7C11.2563 6.99983 11.3678 6.97702 11.4718 6.93287C11.5758 6.88873 11.6702 6.8241 11.7497 6.74269C11.8292 6.66128 11.8923 6.56468 11.9352 6.4584C11.9781 6.35213 12.0002 6.23826 12 6.12329C11.9998 6.00833 11.9775 5.89453 11.9342 5.78838C11.891 5.68223 11.8277 5.58581 11.748 5.50464L6.60901 0.254838C6.45308 0.0960948 6.24317 0.0048797 6.023 0.000190168C5.80283 -0.00449936 5.58938 0.0776983 5.4271 0.229663L0.252048 5.50104C0.0909955 5.66498 0.000331345 5.88752 1.01505e-06 6.1197C-0.000329315 6.35188 0.0897005 6.57468 0.250286 6.73909C0.410871 6.90351 0.628857 6.99607 0.85629 6.9964C1.08372 6.99674 1.30197 6.90483 1.46302 6.74089L6.00132 2.11057Z" fill="#333333"/>
</svg>
