<svg width="30" height="30" viewBox="0 0 30 30" fill="none" xmlns="http://www.w3.org/2000/svg">
<path d="M28.418 2.20996H1.58203C1.1626 2.21046 0.760495 2.37729 0.463914 2.67387C0.167333 2.97046 0.000496219 3.37256 0 3.79199L0 20.7537C0.000496219 21.1731 0.167333 21.5752 0.463914 21.8718C0.760495 22.1684 1.1626 22.3352 1.58203 22.3357H28.418C28.8374 22.3352 29.2395 22.1684 29.5361 21.8718C29.8327 21.5752 29.9995 21.1731 30 20.7537V3.79199C29.9995 3.37256 29.8327 2.97046 29.5361 2.67387C29.2395 2.37729 28.8374 2.21046 28.418 2.20996ZM1.58203 3.03027H28.418C28.6199 3.03052 28.8135 3.11085 28.9563 3.25365C29.0991 3.39645 29.1794 3.59005 29.1797 3.79199V5.49191H0.820312V3.79199C0.820561 3.59005 0.900893 3.39645 1.04369 3.25365C1.18649 3.11085 1.38009 3.03052 1.58203 3.03027ZM29.1797 8.35574H0.820312V6.31223H29.1797V8.35574ZM28.418 21.5154H1.58203C1.38009 21.5152 1.18649 21.4348 1.04369 21.2921C0.900893 21.1493 0.820561 20.9557 0.820312 20.7537V9.17559H29.1797V20.7537C29.1794 20.9557 29.0991 21.1493 28.9563 21.2921C28.8135 21.4348 28.6199 21.5152 28.418 21.5154Z" fill="#4F4F4F"/>
<path d="M25.1524 14.1841C25.0055 14.0372 24.8311 13.9206 24.6392 13.8411C24.4473 13.7616 24.2416 13.7207 24.0338 13.7207C23.8261 13.7207 23.6204 13.7616 23.4285 13.8411C23.2366 13.9206 23.0622 14.0372 22.9153 14.1841L22.1941 14.9062L21.4722 14.1841C21.3253 14.0372 21.1509 13.9206 20.959 13.8411C20.7671 13.7616 20.5613 13.7207 20.3536 13.7207C20.1458 13.7207 19.9401 13.7616 19.7482 13.8411C19.5562 13.9206 19.3818 14.0372 19.2349 14.1841L17.6812 15.738C17.3851 16.0349 17.2188 16.4372 17.2188 16.8565C17.2188 17.2759 17.3851 17.6782 17.6812 17.9751L19.2349 19.529C19.3818 19.6759 19.5562 19.7924 19.7482 19.8719C19.9401 19.9514 20.1458 19.9924 20.3536 19.9924C20.5613 19.9924 20.7671 19.9514 20.959 19.8719C21.1509 19.7924 21.3253 19.6759 21.4722 19.529L22.1941 18.8069L22.916 19.529C23.0629 19.6759 23.2373 19.7924 23.4292 19.8719C23.6211 19.9514 23.8268 19.9924 24.0346 19.9924C24.2423 19.9924 24.448 19.9514 24.6399 19.8719C24.8318 19.7924 25.0062 19.6759 25.1531 19.529L26.707 17.9751C27.0032 17.6782 27.1695 17.2759 27.1695 16.8565C27.1695 16.4372 27.0032 16.0349 26.707 15.738L25.1524 14.1841ZM20.8915 18.9489C20.7462 19.0876 20.5532 19.1649 20.3524 19.1649C20.1516 19.1649 19.9586 19.0876 19.8133 18.9489L18.2597 17.3952C18.1168 17.2522 18.0366 17.0583 18.0366 16.8562C18.0366 16.654 18.1168 16.4602 18.2597 16.3171L19.8133 14.7635C19.9585 14.6247 20.1516 14.5473 20.3524 14.5473C20.5532 14.5473 20.7463 14.6247 20.8915 14.7635L22.4449 16.3174C22.5159 16.3881 22.5721 16.4721 22.6106 16.5646C22.649 16.6571 22.6687 16.7563 22.6687 16.8564C22.6687 16.9566 22.649 17.0558 22.6106 17.1483C22.5721 17.2408 22.5159 17.3248 22.4449 17.3955L21.9033 17.9371L20.8915 18.9489ZM26.1262 17.3952L24.5726 18.9489C24.4274 19.0877 24.2343 19.1651 24.0335 19.1651C23.8327 19.1651 23.6396 19.0877 23.4944 18.9489L22.7733 18.2263L23.025 17.9746C23.1719 17.8277 23.2885 17.6534 23.3681 17.4614C23.4476 17.2695 23.4885 17.0637 23.4885 16.856C23.4885 16.6482 23.4476 16.4424 23.3681 16.2505C23.2885 16.0585 23.1719 15.8842 23.025 15.7373L22.7733 15.4853L23.4954 14.7635C23.6405 14.6246 23.8336 14.5471 24.0344 14.5471C24.2353 14.5471 24.4284 14.6246 24.5735 14.7635L26.1272 16.3171C26.2699 16.4603 26.3499 16.6542 26.3498 16.8564C26.3496 17.0585 26.2692 17.2523 26.1262 17.3952Z" fill="#4F4F4F"/>
<path d="M13.7128 19.1719H2.75391C2.64513 19.1719 2.5408 19.2151 2.46388 19.292C2.38696 19.3689 2.34375 19.4733 2.34375 19.582C2.34375 19.6908 2.38696 19.7951 2.46388 19.8721C2.5408 19.949 2.64513 19.9922 2.75391 19.9922H13.7128C13.8216 19.9922 13.9259 19.949 14.0028 19.8721C14.0798 19.7951 14.123 19.6908 14.123 19.582C14.123 19.4733 14.0798 19.3689 14.0028 19.292C13.9259 19.2151 13.8216 19.1719 13.7128 19.1719Z" fill="#4F4F4F"/>
<path d="M13.7128 17.166H2.75391C2.64513 17.166 2.5408 17.2092 2.46388 17.2861C2.38696 17.3631 2.34375 17.4674 2.34375 17.5762C2.34375 17.685 2.38696 17.7893 2.46388 17.8662C2.5408 17.9431 2.64513 17.9863 2.75391 17.9863H13.7128C13.8216 17.9863 13.9259 17.9431 14.0028 17.8662C14.0798 17.7893 14.123 17.685 14.123 17.5762C14.123 17.4674 14.0798 17.3631 14.0028 17.2861C13.9259 17.2092 13.8216 17.166 13.7128 17.166Z" fill="#4F4F4F"/>
<path d="M13.7128 15.1602H2.75391C2.64513 15.1602 2.5408 15.2034 2.46388 15.2803C2.38696 15.3572 2.34375 15.4615 2.34375 15.5703C2.34375 15.6791 2.38696 15.7834 2.46388 15.8603C2.5408 15.9373 2.64513 15.9805 2.75391 15.9805H13.7128C13.8216 15.9805 13.9259 15.9373 14.0028 15.8603C14.0798 15.7834 14.123 15.6791 14.123 15.5703C14.123 15.4615 14.0798 15.3572 14.0028 15.2803C13.9259 15.2034 13.8216 15.1602 13.7128 15.1602Z" fill="#4F4F4F"/>
</svg>
