<svg width="15" height="15" viewBox="0 0 15 15" fill="none" xmlns="http://www.w3.org/2000/svg">
<rect width="15" height="15" rx="7.5" fill="#F7F7F7"/>
<path d="M6.814 11.5V6.275H8.112V11.5H6.814ZM7.463 5.076C7.23567 5.076 7.056 5.01 6.924 4.878C6.79933 4.746 6.737 4.581 6.737 4.383C6.737 4.19233 6.803 4.031 6.935 3.899C7.067 3.75967 7.243 3.69 7.463 3.69C7.67567 3.69 7.848 3.756 7.98 3.888C8.112 4.02 8.178 4.185 8.178 4.383C8.178 4.581 8.112 4.746 7.98 4.878C7.848 5.01 7.67567 5.076 7.463 5.076Z" fill="#12784A"/>
</svg>
