<svg width="30" height="30" viewBox="0 0 30 30" fill="none" xmlns="http://www.w3.org/2000/svg">
<g clip-path="url(#clip0)">
<path d="M4.38239 13.5934C4.31393 13.5935 4.24627 13.5786 4.18419 13.5497C4.12211 13.5208 4.06711 13.4787 4.02305 13.4263C3.97899 13.3739 3.94694 13.3125 3.92917 13.2464C3.91139 13.1803 3.90831 13.111 3.92014 13.0436C4.32324 10.7712 5.41457 8.67741 7.0465 7.04548C8.67844 5.41356 10.7722 4.32224 13.0447 3.91916C13.1671 3.89768 13.2931 3.92573 13.3949 3.99713C13.4966 4.06854 13.5659 4.17745 13.5874 4.2999C13.6088 4.42236 13.5808 4.54833 13.5094 4.6501C13.438 4.75188 13.3291 4.82112 13.2066 4.8426C11.1238 5.21203 9.20475 6.21227 7.709 7.70801C6.21325 9.20376 5.21301 11.1228 4.84358 13.2056C4.82455 13.3142 4.76788 13.4125 4.68354 13.4834C4.59921 13.5543 4.49258 13.5933 4.38239 13.5934Z" fill="#4F4F4F"/>
<path d="M16.8752 23.0872C16.7578 23.0872 16.6447 23.0433 16.5582 22.9639C16.4717 22.8846 16.4181 22.7757 16.408 22.6588C16.3979 22.5419 16.432 22.4254 16.5036 22.3324C16.5753 22.2394 16.6792 22.1767 16.7948 22.1566C18.8776 21.7872 20.7966 20.7869 22.2924 19.2912C23.7882 17.7954 24.7884 15.8764 25.1579 13.7936C25.1681 13.7326 25.1903 13.6742 25.2232 13.6218C25.2561 13.5694 25.299 13.5241 25.3495 13.4884C25.4 13.4527 25.4571 13.4273 25.5174 13.4137C25.5778 13.4002 25.6402 13.3987 25.7011 13.4094C25.762 13.4201 25.8202 13.4427 25.8724 13.476C25.9245 13.5093 25.9695 13.5525 26.0049 13.6033C26.0402 13.6541 26.0651 13.7113 26.0783 13.7718C26.0914 13.8322 26.0924 13.8947 26.0812 13.9555C25.6781 16.228 24.5868 18.3218 22.9549 19.9537C21.323 21.5856 19.2292 22.677 16.9567 23.08C16.9298 23.0848 16.9025 23.0872 16.8752 23.0872Z" fill="#4F4F4F"/>
<path d="M4.21875 15.4688C4.47763 15.4688 4.6875 15.2589 4.6875 15C4.6875 14.7411 4.47763 14.5312 4.21875 14.5312C3.95987 14.5312 3.75 14.7411 3.75 15C3.75 15.2589 3.95987 15.4688 4.21875 15.4688Z" fill="#4F4F4F"/>
<path d="M15 4.6875C15.2589 4.6875 15.4688 4.47763 15.4688 4.21875C15.4688 3.95987 15.2589 3.75 15 3.75C14.7411 3.75 14.5312 3.95987 14.5312 4.21875C14.5312 4.47763 14.7411 4.6875 15 4.6875Z" fill="#4F4F4F"/>
<path d="M25.7812 12.4688C26.0401 12.4688 26.25 12.2589 26.25 12C26.25 11.7411 26.0401 11.5312 25.7812 11.5312C25.5224 11.5312 25.3125 11.7411 25.3125 12C25.3125 12.2589 25.5224 12.4688 25.7812 12.4688Z" fill="#4F4F4F"/>
<path d="M15 26.25C15.2589 26.25 15.4688 26.0401 15.4688 25.7812C15.4688 25.5224 15.2589 25.3125 15 25.3125C14.7411 25.3125 14.5312 25.5224 14.5312 25.7812C14.5312 26.0401 14.7411 26.25 15 26.25Z" fill="#4F4F4F"/>
<path d="M14.0625 26.0625C11.2812 26.0625 8.5624 25.2378 6.24982 23.6926C3.93725 22.1474 2.13481 19.9511 1.07045 17.3815C0.00609186 14.8119 -0.272393 11.9844 0.270216 9.25654C0.812824 6.52868 2.15215 4.02298 4.11884 2.0563C6.75608 -0.580929 10.3329 -2.06251 14.0625 -2.0625C17.7922 -2.06249 21.369 -0.580907 24.0062 2.05633C26.6435 4.69356 28.125 8.27042 28.125 12C28.125 15.7296 26.6434 19.3065 24.0062 21.9437C22.7034 23.2536 21.1538 24.2922 19.4469 24.9991C17.7401 25.7061 15.91 26.0676 14.0625 26.0625ZM14.0625 -1.12499C11.4667 -1.12499 8.92908 -0.355225 6.77069 1.08697C4.61229 2.52916 2.93002 4.57901 1.93662 6.97729C0.943221 9.37557 0.683302 12.0146 1.18973 14.5606C1.69617 17.1066 2.9462 19.4452 4.78177 21.2808C7.24319 23.7422 10.5816 25.125 14.0625 25.125C17.5435 25.125 20.8819 23.7422 23.3433 21.2808C25.8047 18.8194 27.1876 15.481 27.1876 12C27.1876 8.51904 25.8047 5.18065 23.3433 2.71923C22.1274 1.49664 20.681 0.527366 19.088 -0.132494C17.495 -0.792355 15.7868 -1.1297 14.0625 -1.12499Z" fill="#4F4F4F"/>
<path d="M17.3438 17.3438C17.4681 17.3438 17.5873 17.2944 17.6752 17.2065C17.7631 17.1185 17.8125 16.9993 17.8125 16.875C17.8125 16.7507 17.7631 16.6315 17.6752 16.5435C17.5873 16.4556 17.4681 16.4062 17.3438 16.4062H14.0625V15.4688H16.875C17.6209 15.4688 18.3363 15.1724 18.8637 14.645C19.3912 14.1175 19.6875 13.4022 19.6875 12.6562C19.6875 11.9103 19.3912 11.195 18.8637 10.6675C18.3363 10.1401 17.6209 9.84375 16.875 9.84375H13.5938C13.4694 9.84375 13.3502 9.89314 13.2623 9.98104C13.1744 10.069 13.125 10.1882 13.125 10.3125V14.5312H12.6562C12.5319 14.5312 12.4127 14.5806 12.3248 14.6685C12.2369 14.7565 12.1875 14.8757 12.1875 15C12.1875 15.1243 12.2369 15.2435 12.3248 15.3315C12.4127 15.4194 12.5319 15.4688 12.6562 15.4688H13.125V16.4062H12.6562C12.5319 16.4062 12.4127 16.4556 12.3248 16.5435C12.2369 16.6315 12.1875 16.7507 12.1875 16.875C12.1875 16.9993 12.2369 17.1185 12.3248 17.2065C12.4127 17.2944 12.5319 17.3438 12.6562 17.3438H13.125V20.625C13.125 20.7493 13.1744 20.8685 13.2623 20.9565C13.3502 21.0444 13.4694 21.0938 13.5938 21.0938C13.7181 21.0938 13.8373 21.0444 13.9252 20.9565C14.0131 20.8685 14.0625 20.7493 14.0625 20.625V17.3438H17.3438ZM18.75 12.6562C18.7494 13.1534 18.5517 13.6299 18.2002 13.9815C17.8487 14.333 17.3721 14.5307 16.875 14.5312H14.0625V10.7812H16.875C17.3721 10.7818 17.8487 10.9795 18.2002 11.331C18.5517 11.6826 18.7494 12.1591 18.75 12.6562Z" fill="#4F4F4F"/>
</g>
<defs>
<clipPath id="clip0">
<rect width="30" height="30" fill="white"/>
</clipPath>
</defs>
</svg>
