<svg width="24" height="28" viewBox="0 0 24 28" fill="none" xmlns="http://www.w3.org/2000/svg">
<path d="M21.8079 27.087H5.27653C4.42544 27.087 3.73315 26.3944 3.73315 25.543V18.7709C3.73315 18.7117 3.78113 18.6637 3.84036 18.6637H14.3718C15.227 18.6637 15.9226 17.9678 15.9226 17.1124V12.0439C15.9226 11.1886 15.227 10.4926 14.3718 10.4926H3.84036C3.78113 10.4926 3.73315 10.4447 3.73315 10.3854V2.54392C3.73315 1.69256 4.42558 1 5.27653 1H16.317C16.3762 1 16.4242 1.04798 16.4242 1.10721V6.32591C16.4242 7.05948 17.02 7.65622 17.7523 7.65622H23.2442C23.3034 7.65622 23.3514 7.70419 23.3514 7.76342V25.5429C23.3514 26.3944 22.6589 27.087 21.8079 27.087ZM3.94743 18.8781V25.543C3.94743 26.2762 4.54364 26.8725 5.2764 26.8725H21.8077C22.5406 26.8725 23.1368 26.2761 23.1368 25.543V7.87076H17.7521C16.9015 7.87076 16.2095 7.17781 16.2095 6.32605V1.21441H5.27653C4.54377 1.21441 3.94757 1.81089 3.94757 2.54392V10.2784H14.372C15.3453 10.2784 16.1371 11.0704 16.1371 12.0439V17.1124C16.1371 18.086 15.3453 18.878 14.372 18.878H3.94743V18.8781Z" fill="black" stroke="black" stroke-width="0.5"/>
<path d="M23.2434 7.87074H17.7516C16.901 7.87074 16.209 7.17778 16.209 6.32602V1.10732C16.209 1.0643 16.2346 1.02557 16.2741 1.00869C16.3134 0.991669 16.3593 1.00011 16.3904 1.03L23.3176 7.68621C23.3491 7.7165 23.3592 7.763 23.3428 7.80347C23.3265 7.84394 23.2872 7.87074 23.2434 7.87074ZM16.4233 1.35899V6.32602C16.4233 7.05959 17.0191 7.65633 17.7514 7.65633H22.977L16.4233 1.35899Z" fill="white" stroke="black" stroke-width="0.5"/>
<path d="M3.83916 18.8781H2.26175C1.28844 18.8781 0.496582 18.0861 0.496582 17.1125V12.0439C0.496582 11.0703 1.28844 10.2783 2.26175 10.2783H3.83916C3.8984 10.2783 3.94637 10.3263 3.94637 10.3855C3.94637 10.4448 3.8984 10.4927 3.83916 10.4927H2.26175C1.40664 10.4927 0.710996 11.1886 0.710996 12.044V17.1125C0.710996 17.9679 1.40664 18.6638 2.26175 18.6638H3.83916C3.8984 18.6638 3.94637 18.7118 3.94637 18.771C3.94637 18.8302 3.8984 18.8781 3.83916 18.8781Z" fill="white"/>
<rect y="9.69531" width="17.3913" height="9.93789" rx="1" fill="#12784A"/>
<path d="M4.15194 15.207H3.23133V16.6107C3.23133 16.8113 3.18383 16.9636 3.08962 17.0681C2.9962 17.172 2.87499 17.2238 2.7321 17.2238C2.58034 17.2238 2.45735 17.1731 2.36689 17.0695C2.27268 16.9662 2.22656 16.8156 2.22656 16.6166V12.7954C2.22656 12.5737 2.2784 12.4162 2.37911 12.3206C2.48239 12.2258 2.64242 12.1797 2.86218 12.1797H4.15194C4.53311 12.1797 4.82717 12.2079 5.03214 12.2662C5.23455 12.324 5.41075 12.4174 5.55817 12.5475C5.7056 12.6781 5.81715 12.8384 5.8952 13.0286C5.97206 13.2182 6.00734 13.4302 6.00734 13.6679C6.00734 14.1727 5.85302 14.5566 5.54162 14.816C5.23081 15.0769 4.76883 15.207 4.15194 15.207ZM3.90912 12.9339H3.23133V14.4498H3.90912C4.14484 14.4498 4.34213 14.4247 4.50236 14.3743C4.66122 14.3256 4.78164 14.2448 4.86619 14.1321C4.95015 14.0179 4.99055 13.8713 4.99055 13.6886C4.99055 13.4688 4.92768 13.2915 4.7978 13.1543C4.65294 13.0069 4.35691 12.9339 3.90912 12.9339Z" fill="white"/>
<path d="M7.47175 12.1797H8.77924C9.1208 12.1797 9.41348 12.211 9.65689 12.2745C9.89911 12.3374 10.1208 12.4558 10.3207 12.6294C10.8371 13.0715 11.0947 13.7436 11.0947 14.6457C11.0947 14.9431 11.0704 15.2153 11.0172 15.4601C10.9665 15.706 10.8859 15.9283 10.7769 16.1258C10.6685 16.3231 10.5296 16.4999 10.3605 16.655C10.2279 16.7742 10.0824 16.869 9.92473 16.942C9.76588 17.0137 9.59618 17.0663 9.41545 17.0945C9.23216 17.1239 9.02778 17.1375 8.80033 17.1375H7.49146C7.30896 17.1375 7.17237 17.1113 7.07836 17.0549C6.98671 16.9997 6.9264 16.9229 6.89842 16.8229C6.86964 16.7216 6.85742 16.5915 6.85742 16.4315V12.7954C6.85742 12.5788 6.90551 12.4213 7.00287 12.3251C7.09807 12.2272 7.25456 12.1797 7.47175 12.1797ZM7.86061 12.9736V16.3397H8.62059C8.78772 16.3397 8.91918 16.3357 9.01398 16.3269C9.10819 16.318 9.20555 16.2949 9.30942 16.2589C9.41131 16.2236 9.49843 16.1731 9.57273 16.1077C9.90778 15.8233 10.0763 15.3325 10.0763 14.6394C10.0763 14.1498 10.0046 13.7834 9.85457 13.5386C9.70793 13.2952 9.52582 13.1415 9.30942 13.0741C9.09222 13.0069 8.83206 12.9736 8.5246 12.9736H7.86061Z" fill="white"/>
<path d="M14.9388 12.9544H12.9598V14.2229H14.6148C14.7674 14.2229 14.8819 14.2568 14.9575 14.3254C15.033 14.3946 15.0723 14.4868 15.0723 14.6009C15.0723 14.7162 15.0332 14.8085 14.9562 14.8751C14.8781 14.9431 14.766 14.9776 14.6146 14.9776H12.9596V16.6107C12.9596 16.819 12.9123 16.9727 12.8193 17.0726C12.7251 17.1733 12.6059 17.2238 12.4586 17.2238C12.31 17.2238 12.1902 17.1731 12.0954 17.0707C12.0026 16.9688 11.9551 16.8156 11.9551 16.6107V12.7954C11.9551 12.6519 11.977 12.5327 12.0197 12.4418C12.0621 12.3496 12.1293 12.2836 12.221 12.2406C12.3112 12.201 12.4285 12.1797 12.5702 12.1797H14.9388C15.0991 12.1797 15.2181 12.215 15.295 12.2855C15.373 12.3579 15.4111 12.4501 15.4111 12.5642C15.4111 12.6827 15.3732 12.7763 15.295 12.8474C15.2181 12.9184 15.0991 12.9544 14.9388 12.9544Z" fill="white"/>
</svg>
