<svg width="50" height="50" viewBox="0 0 50 50" fill="none" xmlns="http://www.w3.org/2000/svg">
<path d="M1.24023 48.7591L4.5839 36.5571C2.51955 32.9857 1.43892 28.9345 1.43892 24.7865C1.44376 11.8043 12.0078 1.24023 24.9948 1.24023C31.2945 1.24508 37.2065 3.69711 41.655 8.14564C46.0987 12.5942 48.5508 18.511 48.5459 24.801C48.5411 37.788 37.9722 48.3472 24.9948 48.3472C24.99 48.3472 24.9948 48.3472 24.9948 48.3472H24.9851C21.0406 48.3472 17.1687 47.3587 13.7281 45.4833L1.24023 48.7591Z" fill="white"/>
<path d="M1.24212 49.3796C1.07736 49.3796 0.92229 49.3117 0.801143 49.1954C0.646074 49.0355 0.587923 48.8078 0.646074 48.5945L3.91706 36.6397C1.89147 33.0343 0.820526 28.9396 0.820526 24.7866C0.825372 11.4604 11.6705 0.620117 24.9967 0.620117C31.4563 0.624963 37.5282 3.13999 42.0931 7.70967C46.6579 12.2745 49.1729 18.3464 49.1681 24.8012C49.1632 38.1274 38.3181 48.9677 24.9967 48.9677C21.0376 48.9677 17.127 47.9936 13.6525 46.1425L1.40203 49.3553C1.34873 49.3699 1.29542 49.3796 1.24212 49.3796Z" fill="white"/>
<path d="M24.995 1.24055C31.2947 1.2454 37.2067 3.69742 41.6552 8.14596C46.0989 12.5945 48.5509 18.5113 48.5461 24.8013C48.5412 37.7883 37.9723 48.3475 24.995 48.3475H24.9853C21.0408 48.3475 17.1689 47.359 13.7283 45.4836L1.2404 48.7594L4.58407 36.5575C2.51972 32.986 1.43908 28.9349 1.43908 24.7868C1.44393 11.8046 12.008 1.24055 24.995 1.24055ZM24.995 0C11.3247 0 0.203378 11.1165 0.198532 24.7868C0.198532 28.9639 1.25009 33.0781 3.25145 36.7222L0.0434629 48.4299C-0.0728387 48.8612 0.0483085 49.3167 0.358446 49.6317C0.595895 49.8692 0.915725 50 1.2404 50C1.34701 50 1.45362 49.9855 1.55538 49.9564L13.5732 46.8066C17.0817 48.6286 21.0165 49.5881 24.9853 49.5929C38.6604 49.5929 49.7818 38.4716 49.7866 24.8062C49.7915 18.1818 47.2135 11.9548 42.5323 7.26885C37.8512 2.58286 31.6194 0.00484559 24.995 0Z" fill="#CFD8DC"/>
<path d="M38.8386 10.9563C35.1411 7.25887 30.2274 5.21875 24.9987 5.21875C14.202 5.21875 5.4164 13.9947 5.41155 24.7865C5.41155 28.4839 6.44857 32.0844 8.40632 35.2003L8.87152 35.9418L6.8944 43.1621L14.3038 41.2189L15.021 41.6454C18.0254 43.4287 21.4709 44.3736 24.9841 44.3736H24.9938C35.7808 44.3736 44.5616 35.5928 44.5664 24.801C44.5713 19.5723 42.536 14.6537 38.8386 10.9563Z" fill="#40C351"/>
<path fill-rule="evenodd" clip-rule="evenodd" d="M19.1072 14.9443C18.6662 13.9606 18.201 13.9412 17.7794 13.9266C17.4353 13.9121 17.0428 13.9121 16.6503 13.9121C16.2626 13.9121 15.623 14.0575 15.0851 14.6487C14.5423 15.235 13.0207 16.6597 13.0207 19.5576C13.0207 22.4506 15.1335 25.2515 15.4243 25.644C15.7199 26.0317 19.4997 32.1666 25.4795 34.5266C30.4514 36.4843 31.4642 36.0966 32.54 35.9997C33.6206 35.898 36.0242 34.575 36.5136 33.1988C37.0031 31.8274 37.0031 30.6499 36.8577 30.4027C36.7123 30.1556 36.3198 30.0102 35.7286 29.7146C35.1422 29.419 32.2492 27.9991 31.7065 27.8005C31.1686 27.6066 30.7761 27.5097 30.3836 28.0961C29.9911 28.6824 28.862 30.0102 28.5179 30.4027C28.1738 30.7952 27.8346 30.8437 27.2434 30.5529C26.6571 30.2573 24.7623 29.6371 22.5138 27.6309C20.7645 26.0705 19.5821 24.1467 19.238 23.5555C18.8939 22.9691 19.1992 22.6493 19.4948 22.3537C19.7614 22.092 20.086 21.6656 20.3816 21.3215C20.6724 20.9774 20.7693 20.7351 20.968 20.3426C21.1618 19.9501 21.0649 19.606 20.9195 19.3104C20.7742 19.0148 19.6305 16.1073 19.1072 14.9443Z" fill="white"/>
</svg>
