<svg width="12" height="14" fill="none" xmlns="http://www.w3.org/2000/svg"><path d="M5.797 14l-4.1-4.1a5.807 5.807 0 010-8.203 5.807 5.807 0 018.202 0 5.807 5.807 0 010 8.202l-4.102 4.102zm0-13.18a4.96 4.96 0 00-3.52 1.457 4.985 4.985 0 000 7.042l3.52 3.521L9.32 9.32a4.985 4.985 0 000-7.043A4.964 4.964 0 005.797.82z" fill="#fff"/><path d="M5.797 9.138A3.343 3.343 0 012.46 5.799 3.343 3.343 0 015.796 2.46a3.343 3.343 0 013.34 3.34 3.343 3.343 0 01-3.34 3.338zm0-5.857A2.521 2.521 0 003.28 5.799a2.521 2.521 0 002.518 2.519 2.521 2.521 0 002.519-2.519 2.521 2.521 0 00-2.519-2.518z" fill="#fff"/></svg>