<svg width="12" height="14" viewBox="0 0 12 14" fill="none" xmlns="http://www.w3.org/2000/svg">
<path d="M5.79737 14.0005L1.6961 9.89919C-0.565365 7.63773 -0.565365 3.95804 1.6961 1.69658C3.95756 -0.564877 7.63721 -0.564877 9.8987 1.69658C12.1602 3.95804 12.1602 7.63773 9.8987 9.89919L5.79737 14.0005ZM5.79737 0.820528C4.52217 0.820528 3.24698 1.30592 2.27619 2.27671C0.334619 4.21828 0.334619 7.37749 2.27619 9.31906L5.79737 12.8402L9.31854 9.31906C11.2601 7.37749 11.2601 4.21828 9.31854 2.27671C8.34776 1.30592 7.07256 0.820528 5.79737 0.820528Z" fill="white"/>
<path d="M5.79732 9.13797C3.9563 9.13797 2.4585 7.64017 2.4585 5.79915C2.4585 3.95813 3.9563 2.46033 5.79732 2.46033C7.63833 2.46033 9.13614 3.95813 9.13614 5.79915C9.13614 7.64017 7.63836 9.13797 5.79732 9.13797ZM5.79732 3.28076C4.40869 3.28076 3.27893 4.41052 3.27893 5.79915C3.27893 7.18781 4.40869 8.31754 5.79732 8.31754C7.18595 8.31754 8.31571 7.18778 8.31571 5.79915C8.31571 4.41049 7.18598 3.28076 5.79732 3.28076Z" fill="white"/>
</svg>
