<svg width="14" height="13" fill="none" xmlns="http://www.w3.org/2000/svg"><mask id="a" fill="#fff"><path d="M12.855 1.14A3.968 3.968 0 0010.053 0a3.974 3.974 0 00-2.805 1.14l-.247.244-.247-.244C5.314-.304 2.893-.387 1.344.955c-.069.06-.135.121-.199.185-1.527 1.536-1.527 3.91 0 5.445l5.493 5.403a.526.526 0 00.726 0l5.491-5.403c1.527-1.536 1.527-3.909 0-5.444z"/></mask><path d="M12.855 1.14l.71-.704-.002-.002-.708.707zM10.053 0l.002-1h-.003l.001 1zM7.248 1.14l.702.712.006-.005-.708-.707zm-.247.244l-.702.712.702.692.702-.692-.702-.712zm-.247-.244l-.709.706.007.006.702-.712zM1.344.955L.689.199l.655.756zm-.199.185L.437.434.436.435l.709.705zm0 5.445l-.71.705.009.008.701-.713zm5.493 5.403l.701-.713-.701.713zm.707.018l-.662-.75.662.75zm.02-.018l-.702-.713.701.713zm5.49-5.403l.701.713.008-.008-.709-.705zm.708-6.15A4.957 4.957 0 0010.055-1l-.003 2a2.969 2.969 0 012.095.847L13.563.434zM10.053-1C8.733-.999 7.46-.488 6.54.433l1.415 1.414A2.974 2.974 0 0110.054 1l-.002-2zM6.545.428L6.3.67l1.404 1.425.247-.244L6.546.428zM7.703.67L7.456.428 6.052 1.852l.247.244L7.703.671zm-.24-.237C5.648-1.386 2.63-1.484.688.2l1.31 1.512C3.154.71 4.98.777 6.045 1.846L7.462.434zM.688.2a4.72 4.72 0 00-.252.235l1.416 1.412c.047-.047.095-.092.146-.136L.689.2zM.436.435c-1.915 1.926-1.915 4.93 0 6.855l1.418-1.41c-1.139-1.146-1.139-2.89 0-4.035L.436.435zm.008 6.863L5.937 12.7l1.402-1.425-5.493-5.403L.444 7.298zM5.936 12.7c.567.558 1.48.578 2.071.055l-1.324-1.499a.48.48 0 01.33-.123.484.484 0 01.326.142L5.936 12.7zm2.07.055l.06-.055-1.404-1.425a.523.523 0 01.021-.02l1.324 1.5zm.06-.055l5.49-5.402-1.402-1.426-5.491 5.403L8.066 12.7zm5.498-5.41c1.915-1.926 1.915-4.929 0-6.854l-1.418 1.41c1.139 1.145 1.139 2.889 0 4.034l1.418 1.41z" fill="#fff" mask="url(#a)"/></svg>