<svg width="15" height="14" fill="none" xmlns="http://www.w3.org/2000/svg"><path d="M9.704 7.478H.477a.477.477 0 010-.955h9.227a.477.477 0 010 .955z" fill="#fff"/><path d="M7.159 10.023a.478.478 0 01-.337-.815L9.03 7 6.82 4.792a.478.478 0 01.676-.675l2.545 2.545a.477.477 0 010 .675L7.497 9.883a.474.474 0 01-.338.14z" fill="#fff"/><path d="M7.636 14a6.964 6.964 0 01-6.515-4.439.477.477 0 11.889-.348 6.015 6.015 0 005.626 3.833A6.053 6.053 0 0013.682 7 6.053 6.053 0 007.636.955c-2.5 0-4.71 1.505-5.626 3.833a.477.477 0 11-.888-.349A6.964 6.964 0 017.635 0c3.86 0 7 3.141 7 7 0 3.86-3.14 7-7 7z" fill="#fff"/></svg>