<svg width="58" height="64" fill="none" xmlns="http://www.w3.org/2000/svg"><path fill-rule="evenodd" clip-rule="evenodd" d="M24.918 2.222l.839-.544L24.669 0l-.84.543L2.12 14.615l-1.296.84 1.297.838 6.834 4.423.546.353.544-.355 7.7-5.022v9.813h2V12L18.2 13.008l-8.703 5.676-4.992-3.23L24.918 2.221zm-5.173 44.993h-2v6.31l-8.453 5.852V22.968l-.433-.297-6.433-4.423L.86 17.171v40.692h2v-36.89l4.432 3.047v39.174l1.57-1.086 10.452-7.237.431-.298v-7.358z" fill="#000"/><path d="M12.761 31.938v-3.941h2.537v.728H13.65v.86h.761c.422 0 .747.098.976.294.23.194.346.464.346.808 0 .396-.122.704-.368.924-.244.218-.59.327-1.039.327h-1.563zm.888-1.707v1.058h.52c.415 0 .623-.181.623-.544 0-.343-.198-.514-.596-.514h-.547zm4.113 1.775c-.564 0-1.024-.183-1.38-.55-.355-.367-.533-.847-.533-1.437 0-.622.18-1.126.542-1.511.36-.385.839-.577 1.435-.577.562 0 1.016.184 1.363.552.348.368.522.854.522 1.457 0 .619-.18 1.118-.542 1.497-.359.38-.828.57-1.407.57zm.039-3.311a.892.892 0 00-.742.352c-.184.232-.275.54-.275.926 0 .39.091.699.275.926a.88.88 0 00.72.34c.306 0 .549-.11.728-.33.18-.22.27-.528.27-.92 0-.408-.088-.726-.262-.954a.851.851 0 00-.714-.34zm4.632.035h-1.46v3.208h-.887v-3.941h2.347v.733zm3.717 3.208h-.967l-.28-.877H23.5l-.277.877h-.962l1.434-3.941h1.053l1.402 3.94zm-1.45-1.559l-.424-1.324a1.723 1.723 0 01-.066-.355h-.022a1.53 1.53 0 01-.068.344l-.43 1.335h1.01zm5.072 1.559h-.89v-1.605h-1.633v1.605h-.888v-3.941h.888v1.572h1.632v-1.572h.89v3.94zm4.33 1.074h-.78v-1.074H30.82v1.074h-.769v-1.8h.366c.509-.921.79-1.993.843-3.215h2.281v3.215h.56v1.8zm-1.451-1.8v-2.476h-.67c-.02.365-.09.775-.21 1.231a7.177 7.177 0 01-.442 1.245h1.322zm5.372.726h-.839v-2.166c0-.25.01-.462.028-.637h-.017a3.96 3.96 0 01-.197.326l-1.627 2.477h-.894v-3.941h.839v2.18c0 .268-.008.449-.022.54h.01c.01-.021.078-.129.204-.321l1.564-2.4h.95v3.942zm4.036 0h-.89v-1.605h-1.633v1.605h-.888v-3.941h.888v1.572h1.632v-1.572h.89v3.94zm3.448-.141c-.288.14-.663.21-1.127.21-.605 0-1.08-.178-1.426-.534-.347-.355-.52-.829-.52-1.42 0-.63.194-1.142.583-1.534.39-.392.896-.588 1.517-.588.385 0 .709.048.973.145v.855a1.724 1.724 0 00-.902-.236c-.37 0-.668.116-.896.349-.227.232-.34.548-.34.945 0 .381.107.685.321.913.215.225.503.338.866.338.346 0 .663-.085.95-.253v.81zm3.681.141h-1.12l-1.15-1.712a1.634 1.634 0 01-.104-.218H46.8v1.93h-.888v-3.941h.888v1.863h.014a3.14 3.14 0 01.11-.22l1.088-1.643h1.058l-1.374 1.88 1.492 2.06zm3.643 0h-.838v-2.166c0-.25.01-.462.028-.637h-.017a3.989 3.989 0 01-.198.326l-1.627 2.477h-.893v-3.941h.838v2.18c0 .268-.007.449-.022.54h.012c.009-.021.076-.129.203-.321l1.564-2.4h.95v3.942zm4.171 0h-.838v-2.166c0-.25.01-.462.028-.637h-.017a3.989 3.989 0 01-.198.326l-1.627 2.477h-.893v-3.941h.838v2.18c0 .268-.007.449-.022.54h.011c.01-.021.077-.129.204-.321l1.563-2.4h.951v3.942zm-.558-5.258a.991.991 0 01-.376.696c-.218.172-.488.258-.81.258-.329 0-.602-.086-.82-.258a.91.91 0 01-.352-.696h.633a.484.484 0 00.173.35.566.566 0 00.376.134.544.544 0 00.371-.138.496.496 0 00.173-.346h.632zM16.037 38.37h-1.12l-1.15-1.712a1.654 1.654 0 01-.104-.217h-.014v1.93h-.887v-3.942h.887v1.864h.014c.022-.052.059-.125.11-.22l1.088-1.644h1.058l-1.374 1.88 1.492 2.061zm3.643 0h-.838v-2.165c0-.25.01-.462.028-.638h-.017a3.953 3.953 0 01-.198.327l-1.627 2.476h-.893v-3.94h.838v2.179c0 .269-.007.45-.021.541h.01c.01-.022.078-.13.204-.322l1.564-2.399h.95v3.941zm1.514-1.357v1.357h-.888v-3.94h1.39c.994 0 1.49.418 1.49 1.255 0 .396-.143.717-.428.962-.284.244-.665.366-1.141.366h-.423zm0-1.902v1.228h.349c.473 0 .709-.207.709-.62 0-.406-.236-.608-.71-.608h-.348zm5.696 3.259h-.888v-3.166H24.37v3.166h-.888v-3.94h3.408v3.94zm4.165 0h-.838v-2.165c0-.25.01-.462.027-.638h-.016a3.953 3.953 0 01-.198.327l-1.627 2.476h-.893v-3.94h.838v2.179c0 .269-.007.45-.022.541h.011c.01-.022.077-.13.204-.322l1.563-2.399h.951v3.941zm3.789 0h-.89v-1.563a2.308 2.308 0 01-1.119.302c-.815 0-1.223-.392-1.223-1.176v-1.504h.885v1.427c0 .34.188.51.563.51.297 0 .595-.089.893-.269V34.43h.891v3.941zm4.056 0h-.891v-1.605h-1.633v1.605h-.887v-3.94h.887V36h1.633v-1.57h.89v3.941zm4.775 0h-.882v-3.94h.882v3.94zm-4.153 0v-3.94h.888v1.475h.58c.95 0 1.426.387 1.426 1.16 0 .412-.128.733-.385.962-.256.229-.618.343-1.085.343h-1.424zm.888-1.794v1.118h.401c.447 0 .67-.19.67-.569 0-.366-.217-.55-.654-.55h-.417zm7.433 1.794h-.838v-2.165c0-.25.009-.462.027-.638h-.016a3.96 3.96 0 01-.198.327L45.19 38.37h-.894v-3.94h.839v2.179c0 .269-.008.45-.022.541h.01c.01-.022.078-.13.204-.322l1.564-2.399h.95v3.941zm-.558-5.257a.991.991 0 01-.377.695c-.218.172-.488.258-.81.258-.328 0-.601-.086-.82-.258a.91.91 0 01-.351-.695h.632c.01.14.067.257.173.349.106.09.232.135.377.135a.544.544 0 00.37-.138.496.496 0 00.174-.346h.632zM12.509 44.657v-.777c.313.21.67.316 1.069.316.495 0 .742-.179.742-.536 0-.363-.272-.544-.816-.544h-.506v-.666h.484c.483 0 .725-.17.725-.51 0-.312-.206-.468-.618-.468-.295 0-.61.094-.946.28v-.725c.338-.154.71-.23 1.119-.23.43 0 .764.089 1 .268.239.178.358.42.358.726 0 .24-.068.444-.204.613a1 1 0 01-.574.338v.014c.28.036.5.138.657.305.16.164.239.37.239.615 0 .38-.138.674-.412.883-.275.208-.671.313-1.188.313-.49 0-.867-.072-1.13-.215zm6.581.146h-.968l-.28-.877h-1.401l-.278.877H15.2l1.435-3.941h1.052l1.402 3.941zm-1.451-1.558l-.424-1.325a1.734 1.734 0 01-.066-.354h-.021c-.01.115-.032.23-.07.343l-.428 1.336h1.009zm1.661 1.558v-3.941h1.435c.44 0 .778.08 1.014.242a.778.778 0 01.355.681.804.804 0 01-.217.558 1.13 1.13 0 01-.55.333v.01c.28.036.504.14.67.311a.866.866 0 01.253.63c0 .36-.129.648-.387.86-.259.21-.611.316-1.058.316H19.3zm.888-3.287v.934h.39c.184 0 .327-.044.432-.131a.456.456 0 00.16-.369c0-.29-.217-.434-.65-.434h-.332zm0 1.594v1.039h.481c.205 0 .366-.048.481-.143a.476.476 0 00.176-.39.444.444 0 00-.173-.371c-.114-.09-.273-.135-.479-.135h-.486zm4.108 1.762c-.565 0-1.024-.184-1.38-.55-.355-.368-.533-.847-.533-1.437 0-.623.18-1.127.541-1.512.361-.385.84-.577 1.435-.577.562 0 1.017.184 1.363.553.348.368.522.853.522 1.456 0 .62-.18 1.119-.541 1.498-.36.38-.828.569-1.407.569zm.038-3.312a.892.892 0 00-.742.352c-.183.233-.275.541-.275.926 0 .39.092.699.275.926a.88.88 0 00.72.341c.306 0 .549-.11.728-.33.18-.221.27-.528.27-.92 0-.41-.087-.727-.261-.954a.851.851 0 00-.715-.34zm5.993 4.318h-.78v-1.075h-2.501v1.075h-.77v-1.8h.366c.509-.922.79-1.994.843-3.216h2.281v3.215h.561v1.8zm-1.451-1.8V41.6h-.67c-.02.365-.09.775-.21 1.232-.119.456-.266.87-.442 1.245h1.322z" fill="#000"/></svg>