<svg width="83" height="93" fill="none" xmlns="http://www.w3.org/2000/svg"><path fill-rule="evenodd" clip-rule="evenodd" d="M34.975 2.222l.84-.544L34.725 0l-.839.544L1.65 21.438l-1.296.84 1.297.84L11.8 29.683l.545.353.544-.355 12.184-7.946v15.466h2V18.044l-1.546 1.008-13.186 8.6-8.307-5.375L34.975 2.222zM27.073 69.44h-2v9.625l-13.521 9.361V33.691l-.434-.298-9.551-6.567L0 25.75v59.018h2V29.55l7.552 5.192v57.5l1.569-1.087L26.643 80.41l.43-.298V69.439z" fill="#fff"/><path d="M17.19 46.754v-5.852h3.766v1.081h-2.448v1.278h1.13c.626 0 1.109.145 1.449.436.343.289.514.689.514 1.2 0 .588-.182 1.045-.547 1.371-.362.324-.876.486-1.542.486h-2.323zm1.318-2.534v1.57h.77c.619 0 .927-.269.927-.807 0-.509-.295-.763-.885-.763h-.812zm6.107 2.636c-.838 0-1.52-.272-2.048-.816-.528-.547-.792-1.259-.792-2.135 0-.925.268-1.673.804-2.244.536-.572 1.246-.857 2.13-.857.835 0 1.51.273 2.024.82.517.547.776 1.268.776 2.163 0 .92-.268 1.661-.804 2.224-.534.563-1.23.845-2.09.845zm.057-4.918c-.462 0-.83.174-1.102.523-.272.345-.408.804-.408 1.375 0 .58.136 1.038.408 1.375.273.338.629.506 1.07.506.454 0 .814-.163 1.081-.49.267-.329.4-.784.4-1.366 0-.607-.13-1.08-.388-1.417-.258-.337-.612-.506-1.06-.506zm6.879.053h-2.167v4.763h-1.318v-5.852h3.485v1.09zm5.52 4.763h-1.436l-.417-1.302h-2.081l-.412 1.302h-1.428l2.13-5.852h1.563l2.081 5.852zm-2.155-2.314l-.628-1.967a2.565 2.565 0 01-.098-.526h-.033a2.232 2.232 0 01-.102.51l-.636 1.983h1.497zm7.532 2.314h-1.322V44.37h-2.424v2.383h-1.318v-5.852h1.318v2.334h2.424v-2.334h1.322v5.852zm6.43 1.596h-1.159v-1.596h-3.714v1.596h-1.142v-2.674h.543c.756-1.368 1.173-2.96 1.252-4.774h3.387v4.774h.833v2.673zm-2.155-2.674V42h-.995a9.372 9.372 0 01-.31 1.828 10.663 10.663 0 01-.658 1.848h1.963zm7.977 1.078h-1.245v-3.216c0-.37.014-.685.041-.947h-.025a5.854 5.854 0 01-.293.486l-2.416 3.677h-1.327v-5.852h1.245v3.236c0 .4-.01.668-.032.804h.016c.014-.033.114-.192.302-.477l2.322-3.563H54.7v5.852zm5.993 0h-1.322V44.37h-2.424v2.383h-1.318v-5.852h1.318v2.334h2.424v-2.334h1.322v5.852zm5.12-.208c-.427.206-.985.31-1.673.31-.898 0-1.604-.264-2.118-.792-.514-.528-.771-1.23-.771-2.11 0-.936.288-1.695.865-2.277.58-.582 1.33-.873 2.252-.873.572 0 1.053.072 1.445.216v1.27a2.56 2.56 0 00-1.338-.352c-.55 0-.993.173-1.33.519-.338.345-.507.813-.507 1.404 0 .565.16 1.017.478 1.354.318.335.746.502 1.285.502.514 0 .985-.125 1.412-.375v1.204zm5.467.208h-1.665l-1.706-2.543a2.447 2.447 0 01-.155-.322h-.02v2.865h-1.319v-5.852h1.319v2.767h.02c.033-.076.087-.185.163-.327l1.616-2.44h1.572l-2.041 2.791 2.216 3.06zm5.41 0h-1.245v-3.216c0-.37.014-.685.04-.947h-.024a5.854 5.854 0 01-.293.486l-2.416 3.677h-1.327v-5.852h1.245v3.236c0 .4-.01.668-.033.804h.017c.013-.033.114-.192.302-.477l2.322-3.563h1.412v5.852zm6.193 0h-1.245v-3.216c0-.37.014-.685.041-.947h-.024a5.882 5.882 0 01-.294.486l-2.416 3.677h-1.326v-5.852h1.244v3.236c0 .4-.01.668-.032.804h.016c.014-.033.114-.192.302-.477l2.322-3.563h1.412v5.852zm-.828-7.807a1.471 1.471 0 01-.56 1.032c-.323.256-.725.384-1.204.384-.486 0-.892-.128-1.216-.383a1.353 1.353 0 01-.522-1.033h.939c.013.21.099.382.257.518.158.134.344.2.559.2a.808.808 0 00.55-.204.736.736 0 00.258-.514h.939zM22.054 56.306h-1.665l-1.706-2.543a2.43 2.43 0 01-.155-.322h-.02v2.864h-1.319v-5.852h1.319v2.767h.02c.033-.076.087-.185.163-.326l1.616-2.44h1.572l-2.041 2.79 2.216 3.062zm5.41 0h-1.245V53.09c0-.37.014-.686.04-.947h-.024a5.88 5.88 0 01-.293.486l-2.416 3.677h-1.327v-5.853h1.245v3.237c0 .4-.011.668-.033.804h.017c.013-.033.114-.192.302-.478l2.322-3.563h1.412v5.852zm2.246-2.016v2.016h-1.318v-5.853h2.065c1.475 0 2.212.622 2.212 1.865 0 .588-.212 1.064-.636 1.429-.422.362-.986.542-1.694.542h-.628zm0-2.825v1.825h.519c.702 0 1.053-.308 1.053-.923 0-.6-.351-.901-1.053-.901h-.518zm8.459 4.841H36.85v-4.702h-2.424v4.702h-1.319v-5.853h5.06v5.852zm6.185 0h-1.245V53.09c0-.37.014-.686.041-.947h-.024a5.88 5.88 0 01-.294.486l-2.416 3.677H39.09v-5.853h1.244v3.237c0 .4-.01.668-.033.804h.017c.013-.033.114-.192.302-.478l2.322-3.563h1.412v5.852zm5.626 0h-1.322v-2.322c-.547.299-1.1.448-1.661.448-1.211 0-1.816-.582-1.816-1.746v-2.233h1.314v2.118c0 .507.279.76.836.76.441 0 .883-.134 1.327-.4v-2.478h1.322v5.852zm6.022 0h-1.323v-2.384h-2.424v2.384h-1.318v-5.853h1.318v2.335h2.424v-2.335h1.323v5.852zm7.091 0h-1.31v-5.853h1.31v5.852zm-6.167 0v-5.853h1.319v2.192h.86c1.413 0 2.119.574 2.119 1.722 0 .612-.19 1.088-.572 1.428-.38.34-.918.51-1.612.51h-2.114zm1.319-2.665v1.66h.595c.664 0 .996-.281.996-.844 0-.544-.324-.816-.971-.816h-.62zm11.037 2.665h-1.245V53.09c0-.37.014-.686.041-.947h-.024a5.88 5.88 0 01-.294.486l-2.416 3.677h-1.326v-5.853h1.244v3.237c0 .4-.01.668-.032.804h.016c.014-.033.114-.192.302-.478l2.322-3.563h1.412v5.852zm-.828-7.807a1.47 1.47 0 01-.56 1.032c-.323.256-.725.384-1.203.384-.487 0-.893-.128-1.217-.384-.323-.256-.497-.6-.522-1.032h.939c.013.21.099.382.257.518a.84.84 0 00.559.2.808.808 0 00.55-.204.737.737 0 00.258-.514h.939zM16.815 65.641v-1.155c.466.313.995.47 1.588.47.735 0 1.102-.266 1.102-.796 0-.54-.404-.808-1.212-.808h-.751v-.988h.718c.718 0 1.077-.253 1.077-.76 0-.462-.306-.693-.918-.693-.438 0-.906.139-1.404.416V60.25a3.953 3.953 0 011.661-.343c.64 0 1.135.134 1.486.4.354.264.53.623.53 1.078 0 .356-.1.66-.302.91-.198.247-.483.414-.853.502v.02c.417.054.742.205.976.453.236.245.355.55.355.914 0 .563-.204 1-.612 1.31-.408.31-.996.465-1.763.465-.73 0-1.288-.106-1.678-.318zm9.773.216H25.15l-.416-1.302h-2.081l-.413 1.302h-1.428l2.13-5.852h1.563l2.082 5.852zm-2.155-2.314l-.628-1.967a2.563 2.563 0 01-.099-.526h-.032a2.227 2.227 0 01-.102.51l-.637 1.983h1.498zm2.467 2.314v-5.852h2.13c.653 0 1.155.12 1.506.36.351.239.527.576.527 1.011 0 .316-.108.592-.323.829a1.67 1.67 0 01-.816.494v.016c.416.052.748.205.996.461.25.256.375.567.375.935 0 .536-.191.961-.575 1.277-.384.313-.907.47-1.571.47H26.9zm1.318-4.88v1.387h.58c.272 0 .486-.065.64-.196a.678.678 0 00.237-.547c0-.43-.32-.645-.963-.645h-.494zm0 2.366v1.543h.715c.304 0 .542-.07.714-.212a.707.707 0 00.26-.58.66.66 0 00-.256-.55c-.169-.134-.405-.2-.71-.2h-.723zm6.1 2.617c-.838 0-1.521-.273-2.049-.817-.528-.547-.791-1.258-.791-2.134 0-.925.267-1.673.803-2.245.536-.571 1.247-.857 2.13-.857.836 0 1.51.274 2.025.82.517.547.775 1.268.775 2.163 0 .92-.268 1.661-.804 2.225-.533.563-1.23.844-2.09.844zm.057-4.918c-.463 0-.83.174-1.102.522-.272.346-.408.804-.408 1.375 0 .58.136 1.038.408 1.376.272.337.628.506 1.07.506.454 0 .814-.163 1.08-.49.267-.33.4-.785.4-1.367 0-.607-.129-1.079-.387-1.416-.258-.338-.612-.506-1.061-.506zm8.899 6.411h-1.16v-1.596h-3.713v1.596h-1.143V64.78h.543c.757-1.369 1.174-2.96 1.253-4.775h3.387v4.775h.833v2.673zm-2.155-2.673v-3.677h-.996a9.373 9.373 0 01-.31 1.828 10.658 10.658 0 01-.657 1.849h1.963z" fill="#fff"/></svg>