<svg width="83" height="93" viewBox="0 0 83 93" fill="none" xmlns="http://www.w3.org/2000/svg">
<path fill-rule="evenodd" clip-rule="evenodd" d="M34.975 2.2222L35.8142 1.67831L34.7264 0L33.8872 0.543895L1.65007 21.4384L0.354292 22.2782L1.65072 23.1171L11.7995 29.6839L12.3449 30.0368L12.889 29.682L25.0734 21.7356V37.2021H27.0734V19.8896V18.0435L25.5271 19.052L12.3406 27.6519L4.03365 22.2768L34.975 2.2222ZM27.0734 69.4393H25.0734V79.0641L11.5518 88.4252V34.2172V33.6912L11.1183 33.3932L1.56653 26.8263L0 25.7493V27.6504V83.7669V84.7669H2V83.7669V29.5514L9.55175 34.7432V90.3338V92.2423L11.121 91.156L26.6426 80.4102L27.0734 80.112V79.588V69.4393Z" fill="black"/>
<path d="M17.1875 46.7541V40.902H20.9542V41.9835H18.5056V43.2608H19.6361C20.2618 43.2608 20.7447 43.4064 21.0848 43.6975C21.4276 43.9859 21.599 44.3858 21.599 44.8973C21.599 45.4849 21.4167 45.942 21.0522 46.2685C20.6903 46.5922 20.1761 46.7541 19.5096 46.7541H17.1875ZM18.5056 44.2199V45.791H19.2769C19.8945 45.791 20.2033 45.5217 20.2033 44.983C20.2033 44.4742 19.9081 44.2199 19.3178 44.2199H18.5056Z" fill="black"/>
<path d="M24.6132 46.8561C23.7752 46.8561 23.0924 46.5841 22.5646 46.04C22.0368 45.4931 21.7729 44.7817 21.7729 43.9056C21.7729 42.9806 22.0408 42.2324 22.5768 41.6611C23.1128 41.0898 23.8229 40.8041 24.7071 40.8041C25.5423 40.8041 26.217 41.0775 26.7312 41.6244C27.2481 42.1712 27.5066 42.8922 27.5066 43.7873C27.5066 44.7068 27.2386 45.4482 26.7026 46.0114C26.1694 46.5746 25.4729 46.8561 24.6132 46.8561ZM24.6703 41.9386C24.2078 41.9386 23.8405 42.1127 23.5685 42.461C23.2964 42.8065 23.1604 43.2649 23.1604 43.8362C23.1604 44.4157 23.2964 44.8742 23.5685 45.2115C23.8405 45.5489 24.1969 45.7176 24.6377 45.7176C25.092 45.7176 25.4525 45.5543 25.7191 45.2278C25.9858 44.8987 26.1191 44.4429 26.1191 43.8607C26.1191 43.254 25.9898 42.782 25.7314 42.4446C25.4729 42.1073 25.1192 41.9386 24.6703 41.9386Z" fill="black"/>
<path d="M31.5492 41.9917H29.3822V46.7541H28.064V40.902H31.5492V41.9917Z" fill="black"/>
<path d="M37.0691 46.7541H35.6326L35.2163 45.4523H33.135L32.7229 46.7541H31.2945L33.4248 40.902H34.9878L37.0691 46.7541ZM34.9143 44.4402L34.2859 42.4732C34.2396 42.3263 34.207 42.1508 34.1879 41.9468H34.1553C34.1417 42.1182 34.1077 42.2882 34.0532 42.4569L33.4166 44.4402H34.9143Z" fill="black"/>
<path d="M42.4461 46.7541H41.1239V44.3708H38.6998V46.7541H37.3817V40.902H38.6998V43.2363H41.1239V40.902H42.4461V46.7541Z" fill="black"/>
<path d="M48.8761 48.3498H47.7171V46.7541H44.0034V48.3498H42.8608V45.6768H43.4035C44.1599 44.3083 44.5775 42.7167 44.6564 40.902H48.0436V45.6768H48.8761V48.3498ZM46.7213 45.6768V41.9998H45.7256C45.6957 42.5412 45.5923 43.1506 45.4154 43.8281C45.2386 44.5055 45.0196 45.1217 44.7584 45.6768H46.7213Z" fill="black"/>
<path d="M54.698 46.7541H53.4533V43.5383C53.4533 43.1683 53.4669 42.8527 53.4941 42.5916H53.4696C53.4125 42.7031 53.3145 42.865 53.1758 43.0772L50.7598 46.7541H49.4335V40.902H50.6782V44.1382C50.6782 44.5382 50.6673 44.8061 50.6456 44.9422H50.6619C50.6755 44.9095 50.7762 44.7504 50.9639 44.4647L53.2859 40.902H54.698V46.7541Z" fill="black"/>
<path d="M60.6912 46.7541H59.369V44.3708H56.9449V46.7541H55.6268V40.902H56.9449V43.2363H59.369V40.902H60.6912V46.7541Z" fill="black"/>
<path d="M65.8112 46.546C65.3841 46.7528 64.8263 46.8561 64.138 46.8561C63.2402 46.8561 62.5342 46.5922 62.02 46.0644C61.5058 45.5366 61.2487 44.8334 61.2487 43.9546C61.2487 43.0187 61.5371 42.2596 62.1139 41.6774C62.6934 41.0952 63.4442 40.8041 64.3665 40.8041C64.9379 40.8041 65.4194 40.8762 65.8112 41.0204V42.2896C65.4194 42.0556 64.9732 41.9386 64.4726 41.9386C63.9231 41.9386 63.4796 42.1114 63.1423 42.4569C62.8049 42.8024 62.6362 43.2704 62.6362 43.8607C62.6362 44.4266 62.7954 44.8782 63.1137 45.2156C63.432 45.5502 63.8605 45.7176 64.3992 45.7176C64.9134 45.7176 65.3841 45.5924 65.8112 45.3421V46.546Z" fill="black"/>
<path d="M71.278 46.7541H69.613L67.9072 44.2117C67.8745 44.1627 67.8228 44.0553 67.7521 43.8893H67.7317V46.7541H66.4135V40.902H67.7317V43.6689H67.7521C67.7847 43.5927 67.8392 43.4839 67.9153 43.3424L69.5314 40.902H71.1026L69.0621 43.6934L71.278 46.7541Z" fill="black"/>
<path d="M76.6877 46.7541H75.4431V43.5383C75.4431 43.1683 75.4567 42.8527 75.4839 42.5916H75.4594C75.4022 42.7031 75.3043 42.865 75.1656 43.0772L72.7496 46.7541H71.4233V40.902H72.668V44.1382C72.668 44.5382 72.6571 44.8061 72.6354 44.9422H72.6517C72.6653 44.9095 72.766 44.7504 72.9537 44.4647L75.2757 40.902H76.6877V46.7541Z" fill="black"/>
<path d="M82.881 46.7541H81.6363V43.5383C81.6363 43.1683 81.6499 42.8527 81.6771 42.5916H81.6526C81.5955 42.7031 81.4976 42.865 81.3588 43.0772L78.9429 46.7541H77.6166V40.902H78.8613V44.1382C78.8613 44.5382 78.8504 44.8061 78.8286 44.9422H78.8449C78.8585 44.9095 78.9592 44.7504 79.1469 44.4647L81.469 40.902H82.881V46.7541ZM82.0526 38.9473C82.0036 39.3798 81.8172 39.724 81.4935 39.9797C81.1697 40.2355 80.7684 40.3634 80.2896 40.3634C79.8026 40.3634 79.3972 40.2355 79.0735 39.9797C78.7497 39.724 78.5756 39.3798 78.5511 38.9473H79.4897C79.5033 39.1568 79.589 39.3295 79.7468 39.4655C79.9046 39.5989 80.091 39.6655 80.3059 39.6655C80.5181 39.6655 80.7018 39.5975 80.8568 39.4615C81.0119 39.3254 81.0976 39.154 81.1139 38.9473H82.0526Z" fill="black"/>
<path d="M22.052 56.3069H20.387L18.6811 53.7644C18.6485 53.7155 18.5968 53.608 18.5261 53.442H18.5056V56.3069H17.1875V50.4548H18.5056V53.2217H18.5261C18.5587 53.1455 18.6131 53.0367 18.6893 52.8952L20.3053 50.4548H21.8765L19.836 53.2461L22.052 56.3069Z" fill="black"/>
<path d="M27.4617 56.3069H26.217V53.0911C26.217 52.7211 26.2306 52.4055 26.2578 52.1443H26.2333C26.1762 52.2558 26.0783 52.4177 25.9395 52.6299L23.5236 56.3069H22.1973V50.4548H23.442V53.691C23.442 54.0909 23.4311 54.3589 23.4093 54.4949H23.4256C23.4392 54.4623 23.5399 54.3031 23.7276 54.0174L26.0497 50.4548H27.4617V56.3069Z" fill="black"/>
<path d="M29.7087 54.2909V56.3069H28.3905V50.4548H30.4555C31.9301 50.4548 32.6674 51.0764 32.6674 52.3198C32.6674 52.9074 32.4552 53.3835 32.0307 53.7481C31.609 54.1099 31.0445 54.2909 30.3371 54.2909H29.7087ZM29.7087 51.4669V53.291H30.227C30.9289 53.291 31.2798 52.9836 31.2798 52.3687C31.2798 51.7675 30.9289 51.4669 30.227 51.4669H29.7087Z" fill="black"/>
<path d="M38.1669 56.3069H36.8487V51.6056H34.4246V56.3069H33.1065V50.4548H38.1669V56.3069Z" fill="black"/>
<path d="M44.3519 56.3069H43.1072V53.0911C43.1072 52.7211 43.1209 52.4055 43.1481 52.1443H43.1236C43.0664 52.2558 42.9685 52.4177 42.8297 52.6299L40.4138 56.3069H39.0875V50.4548H40.3322V53.691C40.3322 54.0909 40.3213 54.3589 40.2996 54.4949H40.3159C40.3295 54.4623 40.4301 54.3031 40.6179 54.0174L42.9399 50.4548H44.3519V56.3069Z" fill="black"/>
<path d="M49.9779 56.3069H48.6557V53.9848C48.1089 54.2841 47.5552 54.4337 46.9948 54.4337C45.7841 54.4337 45.1787 53.8515 45.1787 52.6871V50.4548H46.4928V52.5728C46.4928 53.0788 46.7717 53.3318 47.3294 53.3318C47.7701 53.3318 48.2122 53.1985 48.6557 52.9319V50.4548H49.9779V56.3069Z" fill="black"/>
<path d="M55.9998 56.3069H54.6776V53.9236H52.2535V56.3069H50.9353V50.4548H52.2535V52.7891H54.6776V50.4548H55.9998V56.3069Z" fill="black"/>
<path d="M63.0908 56.3069H61.7809V50.4548H63.0908V56.3069ZM56.9245 56.3069V50.4548H58.2427V52.6462H59.1038C60.5158 52.6462 61.2218 53.2203 61.2218 54.3684C61.2218 54.9805 61.0313 55.4567 60.6504 55.7967C60.2695 56.1368 59.7322 56.3069 59.0385 56.3069H56.9245ZM58.2427 53.642V55.3029H58.8385C59.5023 55.3029 59.8342 55.0214 59.8342 54.4582C59.8342 53.9141 59.5105 53.642 58.863 53.642H58.2427Z" fill="black"/>
<path d="M69.28 56.3069H68.0353V53.0911C68.0353 52.7211 68.0489 52.4055 68.0761 52.1443H68.0517C67.9945 52.2558 67.8966 52.4177 67.7578 52.6299L65.3419 56.3069H64.0156V50.4548H65.2603V53.691C65.2603 54.0909 65.2494 54.3589 65.2276 54.4949H65.244C65.2576 54.4623 65.3582 54.3031 65.5459 54.0174L67.868 50.4548H69.28V56.3069ZM68.4516 48.5C68.4026 48.9326 68.2162 49.2767 67.8925 49.5325C67.5687 49.7882 67.1674 49.9161 66.6886 49.9161C66.2016 49.9161 65.7962 49.7882 65.4725 49.5325C65.1487 49.2767 64.9746 48.9326 64.9501 48.5H65.8887C65.9024 48.7095 65.988 48.8822 66.1458 49.0183C66.3036 49.1516 66.49 49.2182 66.7049 49.2182C66.9171 49.2182 67.1008 49.1502 67.2559 49.0142C67.4109 48.8782 67.4966 48.7068 67.513 48.5H68.4516Z" fill="black"/>
<path d="M16.8164 65.64V64.4851C17.2816 64.7979 17.8108 64.9544 18.4039 64.9544C19.1385 64.9544 19.5058 64.6891 19.5058 64.1586C19.5058 63.6199 19.1017 63.3506 18.2937 63.3506H17.5428V62.363H18.2611C18.9793 62.363 19.3384 62.11 19.3384 61.6039C19.3384 61.1414 19.0324 60.9102 18.4202 60.9102C17.9822 60.9102 17.5142 61.0489 17.0164 61.3264V60.249C17.517 60.0205 18.0706 59.9062 18.6773 59.9062C19.3167 59.9062 19.8118 60.0396 20.1628 60.3062C20.5165 60.5701 20.6933 60.9292 20.6933 61.3836C20.6933 61.74 20.5926 62.0433 20.3913 62.2936C20.1927 62.5412 19.9084 62.7085 19.5384 62.7956V62.816C19.9547 62.8704 20.2798 63.0214 20.5137 63.269C20.7504 63.5138 20.8688 63.8185 20.8688 64.1831C20.8688 64.7463 20.6647 65.1829 20.2566 65.4931C19.8486 65.8032 19.2609 65.9583 18.4937 65.9583C17.7645 65.9583 17.2055 65.8522 16.8164 65.64Z" fill="black"/>
<path d="M26.5886 65.8563H25.1522L24.7359 64.5545H22.6546L22.2424 65.8563H20.8141L22.9444 60.0042H24.5074L26.5886 65.8563ZM24.4339 63.5424L23.8054 61.5754C23.7592 61.4284 23.7265 61.253 23.7075 61.0489H23.6749C23.6612 61.2203 23.6272 61.3904 23.5728 61.559L22.9362 63.5424H24.4339Z" fill="black"/>
<path d="M26.9012 65.8563V60.0042H29.0315C29.6845 60.0042 30.1864 60.1239 30.5374 60.3633C30.8883 60.6027 31.0638 60.9401 31.0638 61.3754C31.0638 61.691 30.9564 61.9671 30.7414 62.2038C30.5292 62.4405 30.2571 62.6051 29.9252 62.6976V62.7139C30.3415 62.7656 30.6734 62.9194 30.921 63.1751C31.1713 63.4308 31.2964 63.7423 31.2964 64.1096C31.2964 64.6456 31.1046 65.0714 30.721 65.387C30.3374 65.6998 29.8137 65.8563 29.1499 65.8563H26.9012ZM28.2194 60.9755V62.363H28.7989C29.071 62.363 29.2845 62.2977 29.4396 62.1671C29.5974 62.0338 29.6763 61.8515 29.6763 61.6202C29.6763 61.1904 29.3553 60.9755 28.7132 60.9755H28.2194ZM28.2194 63.3424V64.885H28.9336C29.2383 64.885 29.4763 64.8143 29.6477 64.6728C29.8218 64.5313 29.9089 64.3382 29.9089 64.0933C29.9089 63.8593 29.8232 63.6757 29.6518 63.5424C29.4831 63.4091 29.2464 63.3424 28.9417 63.3424H28.2194Z" fill="black"/>
<path d="M34.3188 65.9583C33.4808 65.9583 32.7979 65.6862 32.2701 65.1421C31.7423 64.5953 31.4784 63.8838 31.4784 63.0078C31.4784 62.0828 31.7464 61.3346 32.2824 60.7632C32.8184 60.1919 33.5284 59.9062 34.4126 59.9062C35.2479 59.9062 35.9226 60.1797 36.4368 60.7265C36.9537 61.2734 37.2122 61.9943 37.2122 62.8894C37.2122 63.809 36.9442 64.5504 36.4082 65.1135C35.875 65.6767 35.1785 65.9583 34.3188 65.9583ZM34.3759 61.0408C33.9134 61.0408 33.5461 61.2149 33.2741 61.5631C33.002 61.9086 32.866 62.3671 32.866 62.9384C32.866 63.5179 33.002 63.9763 33.2741 64.3137C33.5461 64.651 33.9025 64.8197 34.3433 64.8197C34.7976 64.8197 35.1581 64.6565 35.4247 64.33C35.6913 64.0008 35.8247 63.5451 35.8247 62.9629C35.8247 62.3562 35.6954 61.8842 35.437 61.5468C35.1785 61.2094 34.8248 61.0408 34.3759 61.0408Z" fill="black"/>
<path d="M43.2748 67.4519H42.1158V65.8563H38.4022V67.4519H37.2595V64.7789H37.8023C38.5586 63.4104 38.9762 61.8189 39.0551 60.0042H42.4423V64.7789H43.2748V67.4519ZM41.1201 64.7789V61.102H40.1243C40.0944 61.6434 39.991 62.2528 39.8142 62.9302C39.6373 63.6077 39.4183 64.2239 39.1572 64.7789H41.1201Z" fill="black"/>
</svg>
