<svg width="11" height="11" viewBox="0 0 11 11" fill="none" xmlns="http://www.w3.org/2000/svg">
<path d="M10.6865 7.77314L8.28005 6.74183C8.17726 6.69803 8.06302 6.68883 7.95455 6.71562C7.84607 6.7424 7.74925 6.80373 7.67867 6.89034L6.61341 8.19209C4.94079 7.40353 3.59473 6.05751 2.80616 4.38494L4.10794 3.31971C4.19468 3.24923 4.2561 3.1524 4.28289 3.0439C4.30969 2.93539 4.30041 2.82111 4.25645 2.71834L3.22511 0.311036C3.17669 0.200274 3.09112 0.109894 2.98316 0.0554992C2.87521 0.00110438 2.75165 -0.013891 2.63381 0.013102L0.399701 0.528299C0.286057 0.554443 0.184643 0.618366 0.112039 0.709618C0.0394352 0.800869 -6.35493e-05 0.914052 7.67482e-08 1.03066C-0.000120332 2.33989 0.257669 3.63631 0.758647 4.8459C1.25962 6.0555 1.99398 7.15455 2.91976 8.08032C3.84555 9.00608 4.94464 9.74041 6.15427 10.2414C7.36389 10.7423 8.66035 11.0001 9.96961 11C10.0862 11.0001 10.1994 10.9606 10.2907 10.888C10.3819 10.8154 10.4458 10.714 10.472 10.6003L10.9872 8.36626C11.0139 8.24786 10.9985 8.12384 10.9436 8.01558C10.8887 7.90731 10.7978 7.82158 10.6865 7.77314Z" fill="#12784A"/>
</svg>
