<svg width="17" height="11" viewBox="0 0 17 11" fill="none" xmlns="http://www.w3.org/2000/svg">
<g clip-path="url(#clip0)">
<path d="M15.2999 -0.000564618H1.69481C1.2708 -0.022275 0.854601 0.110126 0.537073 0.367737C0.219544 0.625348 0.0264713 0.987248 0 1.37444V9.62444C0.0286279 10.0109 0.222331 10.3716 0.539358 10.6288C0.856385 10.886 1.27135 11.0191 1.69481 10.9994H15.2999C15.7234 11.0191 16.1383 10.886 16.4553 10.6288C16.7724 10.3716 16.9661 10.0109 16.9947 9.62444V1.37444C16.9661 0.987989 16.7724 0.627292 16.4553 0.370088C16.1383 0.112883 15.7234 -0.0202312 15.2999 -0.000564618ZM15.2999 2.74944L8.49947 6.18742L1.69481 2.74944V1.37444L8.49523 4.81242L15.2957 1.37444L15.2999 2.74944Z" fill="#12784A"/>
</g>
<defs>
<clipPath id="clip0">
<rect y="-0.000488281" width="17" height="11" fill="white"/>
</clipPath>
</defs>
</svg>
