<svg width="17" height="11" fill="none" xmlns="http://www.w3.org/2000/svg"><g clip-path="url(#clip0)"><path d="M15.3 0H1.695A1.7 1.7 0 00.537.367C.22.625.027.988 0 1.374v8.25c.029.387.222.748.54 1.005.316.257.731.39 1.155.37H15.3c.423.02.838-.113 1.155-.37.317-.257.511-.618.54-1.005v-8.25a1.433 1.433 0 00-.54-1.004A1.712 1.712 0 0015.3 0zm0 2.75L8.5 6.186 1.694 2.75V1.374l6.8 3.438 6.8-3.438.005 1.375z" fill="#12784A"/></g><defs><clipPath id="clip0"><path fill="#fff" d="M0 0h17v11H0z"/></clipPath></defs></svg>