<svg width="11" height="11" viewBox="0 0 11 11" fill="none" xmlns="http://www.w3.org/2000/svg">
<path d="M10.6865 7.77265L8.28005 6.74134C8.17726 6.69754 8.06302 6.68834 7.95455 6.71513C7.84607 6.74191 7.74925 6.80324 7.67867 6.88985L6.61341 8.1916C4.94079 7.40305 3.59473 6.05702 2.80616 4.38446L4.10794 3.31923C4.19468 3.24874 4.2561 3.15192 4.28289 3.04341C4.30969 2.9349 4.30041 2.82062 4.25645 2.71786L3.22511 0.310548C3.17669 0.199786 3.09112 0.109406 2.98316 0.0550109C2.87521 0.000616098 2.75165 -0.0143793 2.63381 0.0126137L0.399701 0.527811C0.286057 0.553955 0.184643 0.617878 0.112039 0.709129C0.0394352 0.800381 -6.35493e-05 0.913564 7.67482e-08 1.03017C-0.000120332 2.3394 0.257669 3.63583 0.758647 4.84542C1.25962 6.05501 1.99398 7.15407 2.91976 8.07983C3.84555 9.00559 4.94464 9.73992 6.15427 10.2409C7.36389 10.7418 8.66035 10.9996 9.96961 10.9995C10.0862 10.9996 10.1994 10.9601 10.2907 10.8875C10.3819 10.8149 10.4458 10.7135 10.472 10.5998L10.9872 8.36577C11.0139 8.24737 10.9985 8.12335 10.9436 8.01509C10.8887 7.90682 10.7978 7.82109 10.6865 7.77265Z" fill="#12784A"/>
</svg>
