<svg width="30" height="30" viewBox="0 0 30 30" fill="none" xmlns="http://www.w3.org/2000/svg">
<g clip-path="url(#clip0)">
<path d="M19.915 19.6568C19.915 22.0797 23.7907 26.8993 24.233 27.4408C24.3967 27.6409 24.6915 27.6704 24.8916 27.5068C24.9157 27.4871 24.9378 27.465 24.9575 27.4408C25.3998 26.8993 29.2754 22.0797 29.2754 19.6568C29.2754 17.0719 27.18 14.9766 24.5952 14.9766C22.0104 14.9766 19.915 17.0719 19.915 19.6568ZM28.3394 19.6568C28.3394 21.2621 25.9015 24.7198 24.5952 26.3962C23.289 24.7221 20.8511 21.2644 20.8511 19.6568C20.8511 17.5889 22.5274 15.9126 24.5952 15.9126C26.6631 15.9126 28.3394 17.5889 28.3394 19.6568Z" fill="#333333" stroke="white" stroke-width="0.2"/>
<path d="M22.0195 19.2352C22.0195 20.6569 23.172 21.8093 24.5936 21.8093C26.0153 21.8093 27.1677 20.6569 27.1677 19.2352C27.1677 17.8136 26.0153 16.6611 24.5936 16.6611C23.1727 16.6629 22.0213 17.8143 22.0195 19.2352ZM26.2317 19.2352C26.2317 20.1399 25.4983 20.8733 24.5936 20.8733C23.689 20.8733 22.9556 20.1399 22.9556 19.2352C22.9556 18.3306 23.689 17.5972 24.5936 17.5972C25.4983 17.5972 26.2317 18.3306 26.2317 19.2352Z" fill="#333333" stroke="white" stroke-width="0.2"/>
<path d="M24.5958 28.128C24.3373 28.128 24.1277 28.3375 24.1277 28.596V29.064H8.68312V28.128H13.3633C13.6218 28.128 13.8313 27.9184 13.8313 27.66V26.2559C13.8313 25.9974 13.6218 25.7879 13.3633 25.7879H5.87501V23.4478H15.2354C15.4938 23.4478 15.7034 23.2382 15.7034 22.9798V20.1717C15.7034 19.9132 15.4938 19.7036 15.2354 19.7036H2.13086V17.8316H17.1075C17.3659 17.8316 17.5755 17.622 17.5755 17.3635V15.4915C17.5755 15.233 17.3659 15.0234 17.1075 15.0234H5.87501V13.6194C5.87501 13.3609 5.66546 13.1514 5.40699 13.1514C5.14853 13.1514 4.93897 13.3609 4.93897 13.6194V15.4915C4.93897 15.7499 5.14853 15.9595 5.40699 15.9595H16.6394V16.8955H1.66284C1.40438 16.8955 1.19482 17.1051 1.19482 17.3635V20.1717C1.19482 20.4301 1.40438 20.6397 1.66284 20.6397H14.7674V22.5117H5.40699C5.14853 22.5117 4.93897 22.7213 4.93897 22.9798V26.2559C4.93897 26.5144 5.14853 26.7239 5.40699 26.7239H12.8953V27.1919H8.2151C7.95664 27.1919 7.74709 27.4015 7.74709 27.66V29.532C7.74709 29.7905 7.95664 30 8.2151 30H24.5958C24.8542 30 25.0638 29.7905 25.0638 29.532V28.596C25.0638 28.3375 24.8542 28.128 24.5958 28.128Z" fill="#333333" stroke="white" stroke-width="0.2"/>
<path d="M17.1047 2.85498H26.4651C26.7236 2.85498 26.9331 2.64543 26.9331 2.38696C26.9331 2.1285 26.7236 1.91895 26.4651 1.91895H17.1047C16.8463 1.91895 16.6367 2.1285 16.6367 2.38696C16.6367 2.64543 16.8463 2.85498 17.1047 2.85498Z" fill="#333333" stroke="white" stroke-width="0.2"/>
<path d="M17.1047 9.87549H26.4651C26.7236 9.87549 26.9331 9.66593 26.9331 9.40747C26.9331 9.14901 26.7236 8.93945 26.4651 8.93945H17.1047C16.8463 8.93945 16.6367 9.14901 16.6367 9.40747C16.6367 9.66593 16.8463 9.87549 17.1047 9.87549Z" fill="#333333" stroke="white" stroke-width="0.2"/>
<path d="M17.1047 5.19483H23.189C23.4474 5.19483 23.657 4.98527 23.657 4.72681C23.657 4.46834 23.4474 4.25879 23.189 4.25879H17.1047C16.8463 4.25879 16.6367 4.46834 16.6367 4.72681C16.6367 4.98527 16.8463 5.19483 17.1047 5.19483Z" fill="#333333" stroke="white" stroke-width="0.2"/>
<path d="M26.469 5.19483C26.7275 5.19483 26.937 4.98527 26.937 4.72681C26.937 4.46834 26.7275 4.25879 26.469 4.25879H24.5969C24.3385 4.25879 24.1289 4.46834 24.1289 4.72681C24.1289 4.98527 24.3385 5.19483 24.5969 5.19483H26.469Z" fill="#333333" stroke="white" stroke-width="0.2"/>
<path d="M17.1047 7.53565H18.9768C19.2353 7.53565 19.4448 7.32609 19.4448 7.06763C19.4448 6.80916 19.2353 6.59961 18.9768 6.59961H17.1047C16.8463 6.59961 16.6367 6.80916 16.6367 7.06763C16.6367 7.32609 16.8463 7.53565 17.1047 7.53565Z" fill="#333333" stroke="white" stroke-width="0.2"/>
<path d="M19.915 7.06665C19.915 7.32512 20.1246 7.53467 20.3831 7.53467H26.4673C26.7258 7.53467 26.9353 7.32512 26.9353 7.06665C26.9353 6.80819 26.7258 6.59863 26.4673 6.59863H20.3831C20.1246 6.59863 19.915 6.80819 19.915 7.06665Z" fill="#333333" stroke="white" stroke-width="0.2"/>
<path d="M5.40675 12.6365C5.54733 12.6369 5.68054 12.5736 5.769 12.4643C6.21127 11.9228 10.0869 7.10312 10.0869 4.68019C10.0869 2.09538 7.99156 0 5.40675 0C2.82194 0 0.726562 2.09538 0.726562 4.68019C0.726562 7.10312 4.60223 11.9228 5.0445 12.4643C5.13296 12.5736 5.26617 12.6369 5.40675 12.6365ZM5.40675 0.936037C7.47364 0.938378 9.14856 2.6133 9.1509 4.68019C9.1509 6.28549 6.71299 9.74321 5.40675 11.4197C4.10051 9.74321 1.6626 6.28549 1.6626 4.68019C1.66494 2.6133 3.33986 0.938378 5.40675 0.936037Z" fill="#333333" stroke="white" stroke-width="0.2"/>
<path d="M7.98073 4.25867C7.98073 2.83701 6.82829 1.68457 5.40662 1.68457C3.98496 1.68457 2.83252 2.83701 2.83252 4.25867C2.83252 5.68034 3.98496 6.83278 5.40662 6.83278C6.82753 6.83096 7.97891 5.67958 7.98073 4.25867ZM3.76856 4.25867C3.76856 3.35399 4.50194 2.62061 5.40662 2.62061C6.3113 2.62061 7.04469 3.35399 7.04469 4.25867C7.04469 5.16335 6.3113 5.89674 5.40662 5.89674C4.50194 5.89674 3.76856 5.16335 3.76856 4.25867Z" fill="#333333" stroke="white" stroke-width="0.2"/>
</g>
<rect width="30" height="30" stroke="white"/>
<defs>
<clipPath id="clip0">
<rect width="30" height="30" fill="white"/>
</clipPath>
</defs>
</svg>
