<svg width="29" height="31" viewBox="0 0 29 31" fill="none" xmlns="http://www.w3.org/2000/svg">
<path d="M18.8339 2.24219C18.5245 2.24219 18.2734 2.49327 18.2734 2.80265C18.2734 3.11202 18.5245 3.36311 18.8339 3.36311C19.1433 3.36311 19.3944 3.11202 19.3944 2.80265C19.3944 2.49327 19.1433 2.24219 18.8339 2.24219Z" fill="#333333" stroke="#F4F4F4" stroke-width="0.3"/>
<path d="M9.86906 2.24219C9.55968 2.24219 9.30859 2.49327 9.30859 2.80265C9.30859 3.11202 9.55968 3.36311 9.86906 3.36311C10.1784 3.36311 10.4295 3.11202 10.4295 2.80265C10.4295 2.49327 10.1784 2.24219 9.86906 2.24219Z" fill="#333333" stroke="#F4F4F4" stroke-width="0.3"/>
<path d="M16.5949 2.24219H12.1112C11.8018 2.24219 11.5508 2.49316 11.5508 2.80265C11.5508 3.11214 11.8018 3.36311 12.1112 3.36311H16.5949C16.9044 3.36311 17.1554 3.11214 17.1554 2.80265C17.1554 2.49316 16.9044 2.24219 16.5949 2.24219Z" fill="#333333" stroke="#F4F4F4" stroke-width="0.3"/>
<path d="M26.0096 29.0513L22.3009 25.1768C23.7992 25.1231 25.0017 23.8883 25.0017 22.3771V5.74649C25.0017 4.84095 24.6852 3.95666 24.1104 3.25647C23.5352 2.55646 22.7294 2.07407 21.8416 1.89847C19.8525 1.5038 17.8158 1.30371 15.7883 1.30371H12.8274C10.899 1.30371 8.89038 1.48844 6.85781 1.89466C5.03042 2.26025 3.70414 3.87836 3.70414 5.74201V22.3771C3.70414 23.901 4.92707 25.1438 6.44295 25.1778L2.6924 29.0489C2.53575 29.2106 2.49102 29.4502 2.57885 29.6574C2.66656 29.8647 2.86984 29.9994 3.09492 29.9994H7.10222C7.28191 29.9994 7.45066 29.9132 7.55609 29.7677L9.25619 27.4212H19.4995L21.1996 29.7678C21.3051 29.9132 21.4739 29.9994 21.6535 29.9994H25.6048C25.8292 29.9994 26.032 29.8654 26.1202 29.6591C26.2083 29.4526 26.1648 29.2135 26.0096 29.0513ZM4.82507 22.3771V5.74201C4.82507 4.41074 5.77242 3.25496 7.07756 2.99378C8.90708 2.62814 10.8403 2.42463 12.8273 2.42463H15.7883C17.7428 2.42463 19.7059 2.61749 21.6237 2.99793C22.2578 3.12342 22.8334 3.46799 23.2441 3.96787C23.6546 4.46797 23.8807 5.09961 23.8807 5.74644V22.3771C23.8807 23.3042 23.1264 24.0585 22.1993 24.0585H6.5064C5.57934 24.0585 4.82507 23.3042 4.82507 22.3771ZM6.81622 28.8784H4.41828L8.00205 25.1794H9.49635L6.81622 28.8784ZM10.0684 26.3003L10.8805 25.1794H17.8753L18.6874 26.3003H10.0684ZM21.9395 28.8784L19.2595 25.1794H20.7517L24.2924 28.8784H21.9395Z" fill="#333333" stroke="#F4F4F4" stroke-width="0.3"/>
<path d="M22.1994 5.78809H6.50651C6.19702 5.78809 5.94604 6.03906 5.94604 6.34855V15.6522C5.94604 15.9617 6.19702 16.2127 6.50651 16.2127H22.1994C22.5089 16.2127 22.7599 15.9617 22.7599 15.6522V6.34855C22.7599 6.03906 22.5089 5.78809 22.1994 5.78809ZM13.7925 15.0918H7.06697V6.90901H13.7925V15.0918ZM21.639 15.0918H14.9134V6.90901H21.639V15.0918Z" fill="#333333" stroke="#F4F4F4" stroke-width="0.3"/>
<path d="M20.5155 17.8936C19.2794 17.8936 18.2737 18.8992 18.2737 20.1354C18.2737 21.3716 19.2794 22.3773 20.5155 22.3773C21.7517 22.3773 22.7574 21.3716 22.7574 20.1354C22.7574 18.8992 21.7517 17.8936 20.5155 17.8936ZM20.5155 21.2563C19.8975 21.2563 19.3946 20.7535 19.3946 20.1354C19.3946 19.5173 19.8975 19.0145 20.5155 19.0145C21.1336 19.0145 21.6365 19.5173 21.6365 20.1354C21.6365 20.7535 21.1336 21.2563 20.5155 21.2563Z" fill="#333333" stroke="#F4F4F4" stroke-width="0.3"/>
<path d="M8.18789 17.8936C6.95174 17.8936 5.94604 18.8992 5.94604 20.1354C5.94604 21.3716 6.95179 22.3773 8.18789 22.3773C9.42404 22.3773 10.4297 21.3716 10.4297 20.1354C10.4297 18.8992 9.42404 17.8936 8.18789 17.8936ZM8.18789 21.2563C7.56981 21.2563 7.06697 20.7535 7.06697 20.1354C7.06697 19.5173 7.56981 19.0145 8.18789 19.0145C8.80597 19.0145 9.30881 19.5173 9.30881 20.1354C9.30881 20.7535 8.80597 21.2563 8.18789 21.2563Z" fill="#333333" stroke="#F4F4F4" stroke-width="0.3"/>
<path d="M16.5947 18.4541H12.111C11.8015 18.4541 11.5505 18.7051 11.5505 19.0146C11.5505 19.3241 11.8015 19.575 12.111 19.575H16.5947C16.9042 19.575 17.1552 19.3241 17.1552 19.0146C17.1552 18.7051 16.9042 18.4541 16.5947 18.4541Z" fill="#333333" stroke="#F4F4F4" stroke-width="0.3"/>
<path d="M16.5947 20.6963H12.111C11.8015 20.6963 11.5505 20.9473 11.5505 21.2568C11.5505 21.5662 11.8015 21.8172 12.111 21.8172H16.5947C16.9042 21.8172 17.1552 21.5662 17.1552 21.2568C17.1552 20.9473 16.9042 20.6963 16.5947 20.6963Z" fill="#333333" stroke="#F4F4F4" stroke-width="0.3"/>
</svg>
