<svg width="32" height="32" viewBox="0 0 32 32" fill="none" xmlns="http://www.w3.org/2000/svg">
<path d="M29.125 23.5V20.6875C29.1225 18.4607 27.5562 16.5419 25.375 16.0938V8.5H27.25V12.25H29.125V6.625H25.375V1H23.5V4.75H8.5V1H6.625V6.625H2.875V12.25H4.75V8.5H6.625V16.0938C4.44379 16.5419 2.87746 18.4607 2.875 20.6875V23.5H1V25.375H4.75V28.1875C4.75 29.7408 6.00918 31 7.5625 31C9.11582 31 10.375 29.7408 10.375 28.1875V25.375H21.625V28.1875C21.625 29.7408 22.8842 31 24.4375 31C25.9908 31 27.25 29.7408 27.25 28.1875V25.375H31V23.5H29.125ZM8.5 6.625H23.5V12.25H8.5V6.625ZM8.5 28.1875C8.5 28.7053 8.08029 29.125 7.5625 29.125C7.04471 29.125 6.625 28.7053 6.625 28.1875V25.375H8.5V28.1875ZM25.375 28.1875C25.375 28.7053 24.9553 29.125 24.4375 29.125C23.9197 29.125 23.5 28.7053 23.5 28.1875V25.375H25.375V28.1875ZM27.25 23.5H4.75V20.6875C4.75 19.1342 6.00918 17.875 7.5625 17.875H8.5V14.125H23.5V17.875H24.4375C25.9908 17.875 27.25 19.1342 27.25 20.6875V23.5Z" fill="#333333" stroke="white" stroke-width="0.6"/>
<path d="M21.625 16H10.375V17.875H21.625V16Z" fill="#333333" stroke="white" stroke-width="0.6"/>
<path d="M21.625 19.75H10.375V21.625H21.625V19.75Z" fill="#333333" stroke="white" stroke-width="0.6"/>
<path d="M8.5 19.75H6.625V21.625H8.5V19.75Z" fill="#333333" stroke="white" stroke-width="0.6"/>
<path d="M25.375 19.75H23.5V21.625H25.375V19.75Z" fill="#333333" stroke="white" stroke-width="0.6"/>
</svg>
