<svg width="19" height="23" viewBox="0 0 19 23" fill="none" xmlns="http://www.w3.org/2000/svg">
<path d="M17.9562 1H0.496907C0.425207 1 0.356444 1.02812 0.305745 1.07819C0.255045 1.12825 0.226563 1.19615 0.226562 1.26695V21.7331C0.226562 21.8039 0.255045 21.8717 0.305745 21.9218C0.356444 21.9719 0.425207 22 0.496907 22H4.80498C4.87668 22 4.94545 21.9719 4.99615 21.9218C5.04685 21.8717 5.07533 21.8039 5.07533 21.7331V5.78791H17.9562C18.0279 5.78791 18.0967 5.75979 18.1474 5.70972C18.1981 5.65966 18.2266 5.59176 18.2266 5.52096V1.26695C18.2266 1.19615 18.1981 1.12825 18.1474 1.07819C18.0967 1.02812 18.0279 1 17.9562 1ZM4.53464 2.89285H3.06514C2.99344 2.89285 2.92467 2.92097 2.87397 2.97104C2.82327 3.0211 2.79479 3.089 2.79479 3.1598C2.79479 3.2306 2.82327 3.2985 2.87397 3.34856C2.92467 3.39862 2.99344 3.42675 3.06514 3.42675H4.53464V4.35826H3.83111C3.75941 4.35826 3.69065 4.38639 3.63995 4.43645C3.58925 4.48652 3.56077 4.55441 3.56077 4.62521C3.56077 4.69601 3.58925 4.76391 3.63995 4.81398C3.69065 4.86404 3.75941 4.89216 3.83111 4.89216H4.53464V5.77643H3.06514C2.99344 5.77643 2.92467 5.80456 2.87397 5.85462C2.82327 5.90468 2.79479 5.97258 2.79479 6.04338C2.79479 6.11418 2.82327 6.18208 2.87397 6.23214C2.92467 6.28221 2.99344 6.31033 3.06514 6.31033H4.53464V7.24185H3.83111C3.75941 7.24185 3.69065 7.26997 3.63995 7.32004C3.58925 7.3701 3.56077 7.438 3.56077 7.5088C3.56077 7.5796 3.58925 7.6475 3.63995 7.69756C3.69065 7.74762 3.75941 7.77575 3.83111 7.77575H4.53464V8.65997H3.06514C2.99344 8.65997 2.92467 8.6881 2.87397 8.73816C2.82327 8.78822 2.79479 8.85612 2.79479 8.92692C2.79479 8.99772 2.82327 9.06562 2.87397 9.11568C2.92467 9.16575 2.99344 9.19387 3.06514 9.19387H4.53464V10.1252H3.83111C3.75941 10.1252 3.69065 10.1533 3.63995 10.2034C3.58925 10.2535 3.56077 10.3214 3.56077 10.3922C3.56077 10.463 3.58925 10.5309 3.63995 10.5809C3.69065 10.631 3.75941 10.6591 3.83111 10.6591H4.53464V11.4961H3.06514C2.99344 11.4961 2.92467 11.5243 2.87397 11.5743C2.82327 11.6244 2.79479 11.6923 2.79479 11.7631C2.79479 11.8339 2.82327 11.9018 2.87397 11.9518C2.92467 12.0019 2.99344 12.03 3.06514 12.03H4.53464V12.9615H3.83111C3.75941 12.9615 3.69065 12.9896 3.63995 13.0397C3.58925 13.0898 3.56077 13.1577 3.56077 13.2285C3.56077 13.2993 3.58925 13.3672 3.63995 13.4172C3.69065 13.4673 3.75941 13.4954 3.83111 13.4954H4.53464V14.3797H3.06514C2.99344 14.3797 2.92467 14.4078 2.87397 14.4579C2.82327 14.5079 2.79479 14.5758 2.79479 14.6466C2.79479 14.7174 2.82327 14.7853 2.87397 14.8354C2.92467 14.8854 2.99344 14.9136 3.06514 14.9136H4.53464V15.8451H3.83111C3.75941 15.8451 3.69065 15.8732 3.63995 15.9233C3.58925 15.9733 3.56077 16.0412 3.56077 16.112C3.56077 16.12 3.56126 16.1279 3.56199 16.1357C3.56126 16.1434 3.56077 16.1513 3.56077 16.1593C3.56077 16.2301 3.58925 16.298 3.63995 16.348C3.69065 16.3981 3.75941 16.4262 3.83111 16.4262H4.53464V17.2632H3.06514C2.99344 17.2632 2.92467 17.2913 2.87397 17.3414C2.82327 17.3915 2.79479 17.4594 2.79479 17.5302C2.79479 17.601 2.82327 17.6689 2.87397 17.7189C2.92467 17.769 2.99344 17.7971 3.06514 17.7971H4.53464V18.7759H3.83111C3.75941 18.7759 3.69065 18.804 3.63995 18.8541C3.58925 18.9042 3.56077 18.9721 3.56077 19.0429C3.56077 19.1137 3.58925 19.1816 3.63995 19.2316C3.69065 19.2817 3.75941 19.3098 3.83111 19.3098H4.53464V20.1468H3.06514C2.99344 20.1468 2.92467 20.1749 2.87397 20.225C2.82327 20.275 2.79479 20.3429 2.79479 20.4137C2.79479 20.4845 2.82327 20.5524 2.87397 20.6025C2.92467 20.6526 2.99344 20.6807 3.06514 20.6807H4.53464V21.4661H0.767252V1.5339H4.53464V2.89285ZM17.6859 5.25401H16.656V3.80297C16.656 3.73217 16.6276 3.66427 16.5769 3.6142C16.5262 3.56414 16.4574 3.53602 16.3857 3.53602C16.314 3.53602 16.2452 3.56414 16.1945 3.6142C16.1438 3.66427 16.1154 3.73217 16.1154 3.80297V5.25401H15.172V4.55932C15.172 4.48852 15.1435 4.42062 15.0928 4.37056C15.0421 4.3205 14.9733 4.29237 14.9016 4.29237C14.8299 4.29237 14.7612 4.3205 14.7105 4.37056C14.6598 4.42062 14.6313 4.48852 14.6313 4.55932V5.25401H13.7358V3.80297C13.7358 3.73217 13.7073 3.66427 13.6566 3.6142C13.6059 3.56414 13.5371 3.53602 13.4654 3.53602C13.3937 3.53602 13.325 3.56414 13.2743 3.6142C13.2236 3.66427 13.1951 3.73217 13.1951 3.80297V5.25401H12.2518V4.55932C12.2518 4.48852 12.2233 4.42062 12.1726 4.37056C12.1219 4.3205 12.0531 4.29237 11.9814 4.29237C11.9097 4.29237 11.841 4.3205 11.7903 4.37056C11.7396 4.42062 11.7111 4.48852 11.7111 4.55932V5.25401H10.8634V3.80297C10.8634 3.73217 10.8349 3.66427 10.7842 3.6142C10.7335 3.56414 10.6648 3.53602 10.5931 3.53602C10.5214 3.53602 10.4526 3.56414 10.4019 3.6142C10.3512 3.66427 10.3227 3.73217 10.3227 3.80297V5.25401H9.3794V4.55932C9.3794 4.48852 9.35091 4.42062 9.30022 4.37056C9.24952 4.3205 9.18075 4.29237 9.10905 4.29237C9.03735 4.29237 8.96859 4.3205 8.91789 4.37056C8.86719 4.42062 8.83871 4.48852 8.83871 4.55932V5.25401H7.94324V3.80297C7.94324 3.73217 7.91475 3.66427 7.86405 3.6142C7.81335 3.56414 7.74459 3.53602 7.67289 3.53602C7.60119 3.53602 7.53243 3.56414 7.48173 3.6142C7.43103 3.66427 7.40255 3.73217 7.40255 3.80297V5.25401H6.45913V4.55932C6.45913 4.48852 6.43065 4.42062 6.37995 4.37056C6.32925 4.3205 6.26049 4.29237 6.18879 4.29237C6.18072 4.29237 6.17275 4.29286 6.16486 4.29353C6.15698 4.29286 6.149 4.29237 6.14094 4.29237C6.06924 4.29237 6.00048 4.3205 5.94978 4.37056C5.89908 4.42062 5.87059 4.48852 5.87059 4.55932V5.25401H5.07533V1.5339H17.6859V5.25401Z" fill="#12784A" stroke="white" stroke-width="0.1"/>
</svg>
