<svg width="16" height="8" viewBox="0 0 16 8" fill="none" xmlns="http://www.w3.org/2000/svg">
<path d="M6.78656 2.74C7.43323 2.74 7.9399 2.93 8.30656 3.31C8.6799 3.69 8.86656 4.23667 8.86656 4.95V8H8.36656V4.99C8.36656 4.40333 8.22323 3.95667 7.93656 3.65C7.6499 3.34333 7.2499 3.19 6.73656 3.19C6.1499 3.19 5.68323 3.37333 5.33656 3.74C4.99656 4.10667 4.82656 4.6 4.82656 5.22V8H4.32656V4.99C4.32656 4.40333 4.18323 3.95667 3.89656 3.65C3.6099 3.34333 3.2099 3.19 2.69656 3.19C2.1099 3.19 1.64323 3.37333 1.29656 3.74C0.956563 4.10667 0.786563 4.6 0.786563 5.22V8H0.286563V2.78H0.766563V3.9C0.939896 3.53333 1.19656 3.25 1.53656 3.05C1.88323 2.84333 2.29323 2.74 2.76656 2.74C3.2399 2.74 3.6399 2.84667 3.96656 3.06C4.2999 3.27333 4.53656 3.58667 4.67656 4C4.8499 3.61333 5.1199 3.30667 5.48656 3.08C5.8599 2.85333 6.29323 2.74 6.78656 2.74ZM15.5423 7.54V8H10.7323V7.64L13.6923 4.7C14.0789 4.31333 14.3389 3.98333 14.4723 3.71C14.6123 3.43 14.6823 3.14333 14.6823 2.85C14.6823 2.40333 14.5289 2.05333 14.2223 1.8C13.9223 1.54667 13.4856 1.42 12.9123 1.42C12.4723 1.42 12.0856 1.48667 11.7523 1.62C11.4256 1.75333 11.1423 1.95667 10.9023 2.23L10.5423 1.91C10.8089 1.60333 11.1456 1.36667 11.5523 1.2C11.9656 1.03333 12.4323 0.95 12.9523 0.95C13.6389 0.95 14.1856 1.11667 14.5923 1.45C14.9989 1.78333 15.2023 2.23333 15.2023 2.8C15.2023 3.16 15.1223 3.50333 14.9623 3.83C14.8023 4.15667 14.5023 4.53667 14.0623 4.97L11.4823 7.54H15.5423Z" fill="#12784A"/>
</svg>
