<svg width="27" height="27" viewBox="0 0 27 27" fill="none" xmlns="http://www.w3.org/2000/svg">
<path d="M25.4766 2C25.4766 1.86193 25.3646 1.75 25.2266 1.75L22.9766 1.75C22.8385 1.75 22.7266 1.86193 22.7266 2C22.7266 2.13807 22.8385 2.25 22.9766 2.25L24.9766 2.25L24.9766 4.25C24.9766 4.38807 25.0885 4.5 25.2266 4.5C25.3646 4.5 25.4766 4.38807 25.4766 4.25L25.4766 2ZM2.40334 25.1768L25.4033 2.17678L25.0498 1.82322L2.04979 24.8232L2.40334 25.1768Z" fill="#12784A"/>
<path d="M1.97656 25C1.97656 25.1381 2.08849 25.25 2.22656 25.25L4.47656 25.25C4.61463 25.25 4.72656 25.1381 4.72656 25C4.72656 24.8619 4.61463 24.75 4.47656 24.75L2.47656 24.75L2.47656 22.75C2.47656 22.6119 2.36463 22.5 2.22656 22.5C2.08849 22.5 1.97656 22.6119 1.97656 22.75L1.97656 25ZM25.0498 1.82322L2.04979 24.8232L2.40334 25.1768L25.4033 2.17678L25.0498 1.82322Z" fill="#12784A"/>
</svg>
