<svg width="16" height="15" viewBox="0 0 16 15" fill="none" xmlns="http://www.w3.org/2000/svg">
<path d="M12.7179 3.32578C13.3831 3.32501 14.0208 3.06042 14.4911 2.59007C14.9615 2.11972 15.226 1.482 15.2268 0.81684V0.220802C15.2268 0.191801 15.2211 0.163081 15.21 0.136285C15.1989 0.109488 15.1826 0.085141 15.1621 0.0646343C15.1416 0.0441277 15.1173 0.0278642 15.0905 0.0167738C15.0637 0.00568334 15.035 -1.655e-05 15.006 3.60937e-08H0.447431C0.41843 -1.655e-05 0.38971 0.00568334 0.362914 0.0167738C0.336118 0.0278642 0.31177 0.0441277 0.291264 0.0646343C0.270757 0.085141 0.254493 0.109488 0.243403 0.136285C0.232313 0.163081 0.226613 0.191801 0.226629 0.220802V0.81684C0.227364 1.482 0.491916 2.11972 0.962247 2.59007C1.43258 3.06042 2.07028 3.32501 2.73544 3.32578H6.46497V4.75405H3.23193C2.79669 4.75281 2.37526 4.90672 2.04325 5.18816C1.71125 5.46959 1.4904 5.86013 1.42035 6.28969L0.229531 13.4625C0.224292 13.4941 0.226002 13.5265 0.234541 13.5574C0.243081 13.5883 0.258245 13.6169 0.27898 13.6414C0.299715 13.6658 0.325524 13.6855 0.354614 13.6989C0.383703 13.7124 0.415376 13.7194 0.447431 13.7194H1.19753V14.7792C1.19751 14.8082 1.20321 14.8369 1.2143 14.8637C1.22539 14.8905 1.24165 14.9149 1.26216 14.9354C1.28267 14.9559 1.30701 14.9721 1.33381 14.9832C1.36061 14.9943 1.38933 15 1.41833 15H14.0353C14.0643 15 14.093 14.9943 14.1198 14.9832C14.1466 14.9721 14.171 14.9559 14.1915 14.9354C14.212 14.9149 14.2282 14.8905 14.2393 14.8637C14.2504 14.8369 14.2561 14.8082 14.2561 14.7792V13.7194H15.0062C15.0383 13.7194 15.0699 13.7124 15.099 13.6989C15.1281 13.6855 15.1539 13.6658 15.1747 13.6414C15.1954 13.6169 15.2106 13.5883 15.2191 13.5574C15.2276 13.5265 15.2293 13.4941 15.2241 13.4625L14.0333 6.28969C13.9632 5.86009 13.7423 5.46951 13.4103 5.18807C13.0782 4.90663 12.6567 4.75275 12.2215 4.75405H8.98905V3.32578H12.7179ZM0.668232 0.81684V0.441603H14.7852V0.81684C14.7847 1.36496 14.5667 1.89048 14.1791 2.27807C13.7916 2.66566 13.2661 2.88364 12.7179 2.88417H2.73544C2.18732 2.88364 1.66181 2.66566 1.27425 2.27807C0.886685 1.89048 0.668734 1.36496 0.668232 0.81684ZM13.8143 14.5585H1.63862V13.7194H13.8143V14.5585ZM13.5974 6.36199L14.7455 13.2777H0.707851L1.85602 6.36199C1.90922 6.03573 2.07695 5.7391 2.32911 5.52535C2.58127 5.31159 2.90136 5.1947 3.23193 5.19565H12.2215C12.552 5.1947 12.8721 5.31159 13.1243 5.52535C13.3764 5.7391 13.5442 6.03573 13.5974 6.36199ZM8.54744 4.75405H6.90657V3.32578H8.54807L8.54744 4.75405Z" fill="#12784A"/>
<path d="M4.48596 9.23659C4.48594 9.87757 4.67599 10.5042 5.03208 11.0371C5.38818 11.5701 5.89432 11.9855 6.48651 12.2308C7.0787 12.4762 7.73033 12.5404 8.35901 12.4153C8.98768 12.2903 9.56516 11.9816 10.0184 11.5284C10.4717 11.0752 10.7803 10.4977 10.9054 9.86902C11.0305 9.24035 10.9663 8.58871 10.721 7.99652C10.4757 7.40432 10.0603 6.89816 9.52736 6.54204C8.9944 6.18593 8.36781 5.99585 7.72682 5.99585C6.86761 5.99682 6.04387 6.33856 5.4363 6.9461C4.82874 7.55364 4.48696 8.37738 4.48596 9.23659ZM10.517 9.01578H10.1471C10.0885 9.01578 10.0323 9.03905 9.99093 9.08046C9.94952 9.12186 9.92626 9.17803 9.92626 9.23659C9.92626 9.29515 9.94952 9.35131 9.99093 9.39272C10.0323 9.43412 10.0885 9.45739 10.1471 9.45739H10.5165C10.4632 10.1209 10.1754 10.7438 9.7047 11.2145C9.23401 11.6851 8.61114 11.9729 7.94763 12.0263V11.6568C7.94763 11.5983 7.92436 11.5421 7.88296 11.5007C7.84155 11.4593 7.78539 11.436 7.72682 11.436C7.66826 11.436 7.6121 11.4593 7.57069 11.5007C7.52929 11.5421 7.50602 11.5983 7.50602 11.6568V12.0263C6.84251 11.9729 6.21964 11.6851 5.74895 11.2145C5.27826 10.7438 4.99049 10.1209 4.93715 9.45739H5.30659C5.36515 9.45739 5.42131 9.43412 5.46272 9.39272C5.50413 9.35131 5.52739 9.29515 5.52739 9.23659C5.52739 9.17803 5.50413 9.12186 5.46272 9.08046C5.42131 9.03905 5.36515 9.01578 5.30659 9.01578H4.93715C4.99054 8.35229 5.27833 7.72945 5.74901 7.25877C6.21969 6.78809 6.84253 6.5003 7.50602 6.44692V6.81635C7.50602 6.87491 7.52929 6.93107 7.57069 6.97248C7.6121 7.01389 7.66826 7.03715 7.72682 7.03715C7.78539 7.03715 7.84155 7.01389 7.88296 6.97248C7.92436 6.93107 7.94763 6.87491 7.94763 6.81635V6.44692C8.61112 6.5003 9.23396 6.78809 9.70464 7.25877C10.1753 7.72945 10.4631 8.35229 10.5165 9.01578H10.517Z" fill="#12784A"/>
<path d="M8.01465 8.63553C7.92478 8.59138 7.82608 8.56817 7.72596 8.56765C7.59371 8.56765 7.46442 8.60686 7.35445 8.68034C7.24448 8.75382 7.15877 8.85826 7.10815 8.98045C7.05754 9.10265 7.0443 9.2371 7.0701 9.36682C7.0959 9.49654 7.15959 9.61569 7.25311 9.70921C7.34663 9.80273 7.46579 9.86642 7.59551 9.89222C7.72522 9.91803 7.85968 9.90478 7.98187 9.85417C8.10406 9.80356 8.2085 9.71785 8.28198 9.60788C8.35546 9.49791 8.39468 9.36862 8.39468 9.23636C8.39414 9.13625 8.37084 9.03758 8.32655 8.9478L9.19625 8.07797C9.21675 8.05747 9.23301 8.03314 9.2441 8.00636C9.25519 7.97958 9.2609 7.95088 9.2609 7.9219C9.2609 7.89291 9.25519 7.86421 9.2441 7.83743C9.23301 7.81065 9.21675 7.78632 9.19625 7.76582C9.17575 7.74532 9.15142 7.72907 9.12464 7.71797C9.09786 7.70688 9.06916 7.70117 9.04018 7.70117C9.01119 7.70117 8.98249 7.70688 8.95571 7.71797C8.92893 7.72907 8.9046 7.74532 8.8841 7.76582L8.01465 8.63553ZM7.72596 9.46397C7.68105 9.46397 7.63714 9.45065 7.59979 9.4257C7.56244 9.40074 7.53333 9.36527 7.51614 9.32378C7.49895 9.28228 7.49445 9.23661 7.50322 9.19256C7.51198 9.1485 7.53361 9.10803 7.56537 9.07627C7.59714 9.04451 7.6376 9.02288 7.68166 9.01412C7.72571 9.00535 7.77138 9.00985 7.81288 9.02704C7.85437 9.04423 7.88984 9.07334 7.9148 9.11069C7.93975 9.14804 7.95308 9.19195 7.95308 9.23686C7.95308 9.2971 7.92915 9.35486 7.88656 9.39746C7.84396 9.44005 7.7862 9.46397 7.72596 9.46397Z" fill="#12784A"/>
<path d="M4.70708 0.940674H2.41074C2.38175 0.940674 2.35303 0.946385 2.32625 0.957481C2.29946 0.968578 2.27512 0.984842 2.25461 1.00535C2.23411 1.02585 2.21785 1.05019 2.20675 1.07698C2.19565 1.10377 2.18994 1.13248 2.18994 1.16148C2.18994 1.19047 2.19565 1.21918 2.20675 1.24597C2.21785 1.27276 2.23411 1.2971 2.25461 1.31761C2.27512 1.33811 2.29946 1.35437 2.32625 1.36547C2.35303 1.37657 2.38175 1.38228 2.41074 1.38228H4.70708C4.76564 1.38228 4.8218 1.35901 4.86321 1.31761C4.90462 1.2762 4.92788 1.22004 4.92788 1.16148C4.92788 1.10292 4.90462 1.04675 4.86321 1.00535C4.8218 0.963937 4.76564 0.940674 4.70708 0.940674Z" fill="#12784A"/>
<path d="M6.32455 0.940674H5.64902C5.59046 0.940674 5.5343 0.963937 5.49289 1.00535C5.45149 1.04675 5.42822 1.10292 5.42822 1.16148C5.42822 1.22004 5.45149 1.2762 5.49289 1.31761C5.5343 1.35901 5.59046 1.38228 5.64902 1.38228H6.32455C6.35355 1.38228 6.38226 1.37657 6.40905 1.36547C6.43584 1.35437 6.46018 1.33811 6.48068 1.31761C6.50118 1.2971 6.51745 1.27276 6.52854 1.24597C6.53964 1.21918 6.54535 1.19047 6.54535 1.16148C6.54535 1.13248 6.53964 1.10377 6.52854 1.07698C6.51745 1.05019 6.50118 1.02585 6.48068 1.00535C6.46018 0.984842 6.43584 0.968578 6.40905 0.957481C6.38226 0.946385 6.35355 0.940674 6.32455 0.940674Z" fill="#12784A"/>
</svg>
