<svg width="31" height="35" viewBox="0 0 31 35" fill="none" xmlns="http://www.w3.org/2000/svg">
<path d="M15.0294 23.4795C15.0294 27.701 18.4639 31.1355 22.6854 31.1355C26.907 31.1355 30.3415 27.701 30.3415 23.4795C30.3415 20.7273 28.8816 18.3101 26.6957 16.9605V7.36534C26.6957 7.17503 26.6042 7.00652 26.4631 6.89999C19.2156 -0.347508 19.6846 0.0614714 19.4366 0.0123269C19.3499 -0.00488092 20.2653 0.000952258 2.33327 0.000952258C1.04669 0.000952258 0 1.04764 0 2.33422V32.6667C0 33.9533 1.04669 35 2.33327 35H24.3535C25.6401 35 26.6868 33.9533 26.6868 32.6667C26.6868 32.3446 26.4256 32.0834 26.1035 32.0834C25.7813 32.0834 25.5201 32.3446 25.5201 32.6667C25.5201 33.31 24.9968 33.8334 24.3535 33.8334H2.33327C1.69002 33.8334 1.16663 33.31 1.16663 32.6667V2.33422C1.16663 1.69097 1.69002 1.16759 2.33327 1.16759H18.7391V5.61538C18.7391 6.90196 19.7858 7.94865 21.0723 7.94865H25.5291V16.3714C24.5781 15.9896 23.5447 15.7967 22.4667 15.8268V11.6674C22.4667 10.7025 21.6816 9.91742 20.7167 9.91742H5.98797C5.02302 9.91742 4.23802 10.7025 4.23802 11.6674V19.1047C4.23802 20.0696 5.02302 20.8546 5.98797 20.8546H13.644C13.9662 20.8546 14.2273 20.5934 14.2273 20.2713C14.2273 19.9492 13.9662 19.688 13.644 19.688H11.0191V15.9693H16.2689C16.5911 15.9693 16.8523 15.7082 16.8523 15.386V11.0841H20.7167C21.0384 11.0841 21.3001 11.3457 21.3001 11.6674V15.9494C17.7376 16.6032 15.0294 19.7309 15.0294 23.4795ZM21.0723 6.78202C20.4291 6.78202 19.9057 6.25864 19.9057 5.61538V1.99254L24.6953 6.78209H21.0723V6.78202ZM5.98797 11.084H9.85245V14.8026H5.40465V11.6673C5.40465 11.3457 5.66635 11.084 5.98797 11.084ZM9.85245 19.6879H5.98797C5.66635 19.6879 5.40465 19.4262 5.40465 19.1046V15.9693H9.85245V19.6879ZM15.6856 14.8026H11.0191V11.084H15.6856V14.8026ZM29.1748 23.4795C29.1748 27.0578 26.2637 29.9689 22.6854 29.9689C19.1071 29.9689 16.196 27.0578 16.196 23.4795C16.196 19.9012 19.1071 16.9901 22.6854 16.9901C26.2637 16.9901 29.1748 19.9012 29.1748 23.4795ZM4.23802 24.0628C4.23802 23.7407 4.4992 23.4795 4.82134 23.4795H10.5087C10.8308 23.4795 11.092 23.7407 11.092 24.0628C11.092 24.3849 10.8308 24.6461 10.5087 24.6461H4.82134C4.4992 24.6461 4.23802 24.3849 4.23802 24.0628ZM4.23802 28.4377C4.23802 28.1155 4.4992 27.8544 4.82134 27.8544H11.967C12.2891 27.8544 12.5503 28.1155 12.5503 28.4377C12.5503 28.7598 12.2891 29.021 11.967 29.021H4.82134C4.4992 29.021 4.23802 28.7598 4.23802 28.4377Z" fill="#12784A"/>
<path d="M24.4375 24.6667C24.5204 24.6667 24.5999 24.6359 24.6585 24.5812C24.7171 24.5265 24.75 24.4524 24.75 24.375C24.75 24.2976 24.7171 24.2235 24.6585 24.1688C24.5999 24.1141 24.5204 24.0833 24.4375 24.0833H22.25V23.5H24.125C24.6223 23.5 25.0992 23.3156 25.4508 22.9874C25.8025 22.6592 26 22.2141 26 21.75C26 21.2859 25.8025 20.8408 25.4508 20.5126C25.0992 20.1844 24.6223 20 24.125 20H21.9375C21.8546 20 21.7751 20.0307 21.7165 20.0854C21.6579 20.1401 21.625 20.2143 21.625 20.2917V22.9167H21.3125C21.2296 22.9167 21.1501 22.9474 21.0915 23.0021C21.0329 23.0568 21 23.131 21 23.2083C21 23.2857 21.0329 23.3599 21.0915 23.4146C21.1501 23.4693 21.2296 23.5 21.3125 23.5H21.625V24.0833H21.3125C21.2296 24.0833 21.1501 24.1141 21.0915 24.1688C21.0329 24.2235 21 24.2976 21 24.375C21 24.4524 21.0329 24.5265 21.0915 24.5812C21.1501 24.6359 21.2296 24.6667 21.3125 24.6667H21.625V26.7083C21.625 26.7857 21.6579 26.8599 21.7165 26.9146C21.7751 26.9693 21.8546 27 21.9375 27C22.0204 27 22.0999 26.9693 22.1585 26.9146C22.2171 26.8599 22.25 26.7857 22.25 26.7083V24.6667H24.4375ZM25.375 21.75C25.3746 22.0593 25.2428 22.3559 25.0085 22.5746C24.7741 22.7933 24.4564 22.9163 24.125 22.9167H22.25V20.5833H24.125C24.4564 20.5837 24.7741 20.7067 25.0085 20.9254C25.2428 21.1441 25.3746 21.4407 25.375 21.75Z" fill="#12784A"/>
</svg>
