<svg width="304" height="333" viewBox="0 0 304 333" fill="none" xmlns="http://www.w3.org/2000/svg">
<g opacity="0.05">
<path fill-rule="evenodd" clip-rule="evenodd" d="M125.1 2.87064L125.939 2.32674L124.851 0.648438L124.012 1.19233L5.01008 78.3234L3.7143 79.1633L5.01072 80.0021L42.4744 104.243L43.0198 104.596L43.5639 104.241L92.7038 72.1936V134.258H94.7038V70.3476V68.5015L93.1575 69.51L43.0155 102.211L7.39365 79.1618L125.1 2.87064ZM94.7038 253.26H92.7038V290.198L37.4064 328.481V123.237V122.711L36.9729 122.413L1.71301 98.1722L0.146484 97.0952V98.9963V306.148V307.148H2.14648V306.148V100.897L35.4064 123.763V330.389V332.298L36.9756 331.212L94.273 291.544L94.7038 291.246V290.722V253.26Z" fill="black"/>
<path d="M60.9043 169.518V147.915H74.809V151.907H65.7702V156.623H69.9431C72.253 156.623 74.0357 157.16 75.291 158.234C76.5565 159.299 77.1892 160.775 77.1892 162.663C77.1892 164.833 76.5163 166.52 75.1705 167.725C73.8348 168.92 71.9367 169.518 69.4761 169.518H60.9043ZM65.7702 160.163V165.963H68.6174C70.8972 165.963 72.0371 164.968 72.0371 162.98C72.0371 161.102 70.9474 160.163 68.768 160.163H65.7702Z" fill="black"/>
<path d="M88.316 169.895C85.2227 169.895 82.7019 168.89 80.7535 166.882C78.8051 164.863 77.8309 162.237 77.8309 159.003C77.8309 155.588 78.8202 152.826 80.7987 150.717C82.7772 148.608 85.3984 147.554 88.6624 147.554C91.7457 147.554 94.2364 148.563 96.1345 150.582C98.0427 152.6 98.9968 155.262 98.9968 158.566C98.9968 161.96 98.0075 164.697 96.0291 166.776C94.0606 168.855 91.4896 169.895 88.316 169.895ZM88.5269 151.742C86.8195 151.742 85.4637 152.384 84.4594 153.67C83.4551 154.945 82.9529 156.638 82.9529 158.747C82.9529 160.886 83.4551 162.578 84.4594 163.823C85.4637 165.069 86.7794 165.691 88.4063 165.691C90.0835 165.691 91.4143 165.089 92.3985 163.884C93.3827 162.669 93.8748 160.986 93.8748 158.837C93.8748 156.597 93.3978 154.855 92.4437 153.61C91.4896 152.364 90.184 151.742 88.5269 151.742Z" fill="black"/>
<path d="M113.92 151.937H105.921V169.518H101.055V147.915H113.92V151.937Z" fill="black"/>
<path d="M134.296 169.518H128.994L127.457 164.712H119.774L118.252 169.518H112.98L120.844 147.915H126.613L134.296 169.518ZM126.342 160.976L124.022 153.715C123.851 153.173 123.731 152.525 123.661 151.772H123.54C123.49 152.404 123.364 153.032 123.164 153.655L120.813 160.976H126.342Z" fill="black"/>
<path d="M154.146 169.518H149.265V160.72H140.316V169.518H135.45V147.915H140.316V156.532H149.265V147.915H154.146V169.518Z" fill="black"/>
<path d="M177.881 175.408H173.603V169.518H159.894V175.408H155.676V165.541H157.68C160.472 160.489 162.013 154.614 162.305 147.915H174.808V165.541H177.881V175.408ZM169.927 165.541V151.968H166.251C166.141 153.966 165.759 156.216 165.107 158.717C164.454 161.217 163.645 163.492 162.681 165.541H169.927Z" fill="black"/>
<path d="M199.373 169.518H194.778V157.647C194.778 156.281 194.828 155.116 194.929 154.152H194.838C194.627 154.564 194.266 155.161 193.754 155.945L184.835 169.518H179.939V147.915H184.534V159.861C184.534 161.338 184.494 162.327 184.413 162.829H184.474C184.524 162.709 184.895 162.121 185.588 161.067L194.16 147.915H199.373V169.518Z" fill="black"/>
<path d="M221.497 169.518H216.616V160.72H207.667V169.518H202.801V147.915H207.667V156.532H216.616V147.915H221.497V169.518Z" fill="black"/>
<path d="M240.397 168.75C238.82 169.513 236.761 169.895 234.22 169.895C230.906 169.895 228.3 168.92 226.402 166.972C224.504 165.024 223.554 162.427 223.554 159.184C223.554 155.729 224.619 152.927 226.748 150.777C228.887 148.628 231.659 147.554 235.064 147.554C237.173 147.554 238.951 147.82 240.397 148.352V153.037C238.951 152.173 237.303 151.742 235.456 151.742C233.427 151.742 231.79 152.379 230.544 153.655C229.299 154.93 228.676 156.658 228.676 158.837C228.676 160.926 229.264 162.593 230.439 163.839C231.614 165.074 233.196 165.691 235.184 165.691C237.082 165.691 238.82 165.23 240.397 164.306V168.75Z" fill="black"/>
<path d="M260.577 169.518H254.431L248.134 160.133C248.013 159.952 247.823 159.555 247.561 158.943H247.486V169.518H242.62V147.915H247.486V158.129H247.561C247.682 157.848 247.883 157.446 248.164 156.924L254.13 147.915H259.93L252.397 158.219L260.577 169.518Z" fill="black"/>
<path d="M280.547 169.518H275.952V157.647C275.952 156.281 276.003 155.116 276.103 154.152H276.013C275.802 154.564 275.44 155.161 274.928 155.945L266.01 169.518H261.114V147.915H265.708V159.861C265.708 161.338 265.668 162.327 265.588 162.829H265.648C265.698 162.709 266.07 162.121 266.763 161.067L275.335 147.915H280.547V169.518Z" fill="black"/>
<path d="M303.409 169.518H298.814V157.647C298.814 156.281 298.865 155.116 298.965 154.152H298.875C298.664 154.564 298.302 155.161 297.79 155.945L288.872 169.518H283.976V147.915H288.57V159.861C288.57 161.338 288.53 162.327 288.45 162.829H288.51C288.56 162.709 288.932 162.121 289.625 161.067L298.197 147.915H303.409V169.518ZM300.351 140.699C300.17 142.296 299.482 143.567 298.287 144.511C297.092 145.455 295.611 145.927 293.843 145.927C292.045 145.927 290.549 145.455 289.354 144.511C288.159 143.567 287.516 142.296 287.426 140.699H290.89C290.941 141.473 291.257 142.11 291.84 142.612C292.422 143.105 293.11 143.351 293.903 143.351C294.687 143.351 295.365 143.1 295.937 142.597C296.51 142.095 296.826 141.462 296.886 140.699H300.351Z" fill="black"/>
<path d="M78.8614 204.778H72.715L66.418 195.392C66.2974 195.212 66.1066 194.815 65.8455 194.202H65.7702V204.778H60.9043V183.175H65.7702V193.389H65.8455C65.966 193.108 66.1669 192.706 66.4481 192.184L72.4137 183.175H78.2136L70.6813 193.479L78.8614 204.778Z" fill="black"/>
<path d="M98.8311 204.778H94.2364V192.907C94.2364 191.541 94.2866 190.376 94.387 189.412H94.2966C94.0857 189.823 93.7242 190.421 93.212 191.204L84.2937 204.778H79.3977V183.175H83.9924V195.121C83.9924 196.598 83.9522 197.587 83.8719 198.089H83.9321C83.9824 197.968 84.354 197.381 85.0469 196.326L93.6187 183.175H98.8311V204.778Z" fill="black"/>
<path d="M107.126 197.336V204.778H102.26V183.175H109.883C115.326 183.175 118.048 185.47 118.048 190.06C118.048 192.229 117.264 193.986 115.697 195.332C114.141 196.668 112.057 197.336 109.446 197.336H107.126ZM107.126 186.911V193.645H109.039C111.63 193.645 112.926 192.51 112.926 190.24C112.926 188.021 111.63 186.911 109.039 186.911H107.126Z" fill="black"/>
<path d="M138.349 204.778H133.483V187.423H124.534V204.778H119.669V183.175H138.349V204.778Z" fill="black"/>
<path d="M161.181 204.778H156.586V192.907C156.586 191.541 156.636 190.376 156.737 189.412H156.646C156.435 189.823 156.074 190.421 155.562 191.204L146.643 204.778H141.747V183.175H146.342V195.121C146.342 196.598 146.302 197.587 146.222 198.089H146.282C146.332 197.968 146.704 197.381 147.397 196.326L155.968 183.175H161.181V204.778Z" fill="black"/>
<path d="M181.949 204.778H177.068V196.206C175.049 197.311 173.005 197.863 170.937 197.863C166.467 197.863 164.233 195.714 164.233 191.415V183.175H169.084V190.994C169.084 192.862 170.113 193.796 172.172 193.796C173.799 193.796 175.431 193.303 177.068 192.319V183.175H181.949V204.778Z" fill="black"/>
<path d="M204.178 204.778H199.297V195.98H190.349V204.778H185.483V183.175H190.349V191.792H199.297V183.175H204.178V204.778Z" fill="black"/>
<path d="M230.355 204.778H225.519V183.175H230.355V204.778ZM207.592 204.778V183.175H212.458V191.265H215.636C220.849 191.265 223.455 193.384 223.455 197.622C223.455 199.882 222.752 201.639 221.346 202.895C219.94 204.15 217.956 204.778 215.395 204.778H207.592ZM212.458 194.94V201.072H214.657C217.108 201.072 218.333 200.032 218.333 197.953C218.333 195.945 217.138 194.94 214.748 194.94H212.458Z" fill="black"/>
<path d="M253.202 204.778H248.607V192.907C248.607 191.541 248.657 190.376 248.758 189.412H248.667C248.456 189.823 248.095 190.421 247.583 191.204L238.664 204.778H233.768V183.175H238.363V195.121C238.363 196.598 238.323 197.587 238.242 198.089H238.303C238.353 197.968 238.725 197.381 239.418 196.326L247.989 183.175H253.202V204.778ZM250.144 175.959C249.963 177.556 249.275 178.826 248.08 179.77C246.885 180.714 245.403 181.186 243.636 181.186C241.838 181.186 240.342 180.714 239.146 179.77C237.951 178.826 237.308 177.556 237.218 175.959H240.683C240.733 176.732 241.05 177.37 241.632 177.872C242.215 178.364 242.902 178.61 243.696 178.61C244.479 178.61 245.157 178.359 245.73 177.857C246.302 177.355 246.618 176.722 246.679 175.959H250.144Z" fill="black"/>
<path d="M59.5312 239.238V234.975C61.2486 236.13 63.202 236.707 65.3914 236.707C68.103 236.707 69.4589 235.728 69.4589 233.77C69.4589 231.781 67.9675 230.787 64.9847 230.787H62.2128V227.141H64.8641C67.5155 227.141 68.8412 226.207 68.8412 224.339C68.8412 222.632 67.7114 221.778 65.4517 221.778C63.8347 221.778 62.1073 222.29 60.2694 223.315V219.338C62.1174 218.494 64.1611 218.072 66.4007 218.072C68.7609 218.072 70.5887 218.564 71.8843 219.549C73.1899 220.523 73.8427 221.848 73.8427 223.526C73.8427 224.841 73.4711 225.961 72.7279 226.885C71.9947 227.799 70.9452 228.417 69.5794 228.738V228.813C71.116 229.014 72.3161 229.572 73.1798 230.486C74.0536 231.389 74.4905 232.514 74.4905 233.86C74.4905 235.939 73.7372 237.551 72.2308 238.696C70.7243 239.841 68.555 240.413 65.7228 240.413C63.0313 240.413 60.9674 240.021 59.5312 239.238Z" fill="black"/>
<path d="M95.6051 240.037H90.3023L88.7657 235.231H81.0828L79.5612 240.037H74.2886L82.1523 218.434H87.9221L95.6051 240.037ZM87.6509 231.495L85.331 224.234C85.1603 223.691 85.0397 223.044 84.9694 222.29H84.8489C84.7987 222.923 84.6732 223.551 84.4723 224.173L82.1222 231.495H87.6509Z" fill="black"/>
<path d="M96.759 240.037V218.434H104.623C107.033 218.434 108.886 218.876 110.182 219.76C111.477 220.643 112.125 221.889 112.125 223.496C112.125 224.661 111.728 225.68 110.935 226.554C110.152 227.427 109.147 228.035 107.922 228.376V228.437C109.459 228.628 110.684 229.195 111.598 230.139C112.522 231.083 112.984 232.233 112.984 233.589C112.984 235.567 112.276 237.139 110.86 238.304C109.443 239.459 107.51 240.037 105.06 240.037H96.759ZM101.625 222.019V227.141H103.764C104.768 227.141 105.557 226.9 106.129 226.418C106.712 225.926 107.003 225.253 107.003 224.399C107.003 222.813 105.818 222.019 103.448 222.019H101.625ZM101.625 230.757V236.451H104.261C105.386 236.451 106.265 236.19 106.898 235.668C107.54 235.146 107.862 234.432 107.862 233.529C107.862 232.665 107.545 231.987 106.913 231.495C106.29 231.003 105.416 230.757 104.291 230.757H101.625Z" fill="black"/>
<path d="M124.141 240.413C121.047 240.413 118.526 239.409 116.578 237.4C114.63 235.382 113.656 232.755 113.656 229.521C113.656 226.107 114.645 223.345 116.623 221.236C118.602 219.127 121.223 218.072 124.487 218.072C127.57 218.072 130.061 219.082 131.959 221.1C133.867 223.119 134.821 225.78 134.821 229.085C134.821 232.479 133.832 235.216 131.854 237.295C129.885 239.374 127.314 240.413 124.141 240.413ZM124.351 222.26C122.644 222.26 121.288 222.903 120.284 224.189C119.28 225.464 118.778 227.156 118.778 229.265C118.778 231.404 119.28 233.097 120.284 234.342C121.288 235.587 122.604 236.21 124.231 236.21C125.908 236.21 127.239 235.608 128.223 234.402C129.207 233.187 129.699 231.505 129.699 229.356C129.699 227.116 129.222 225.374 128.268 224.128C127.314 222.883 126.009 222.26 124.351 222.26Z" fill="black"/>
<path d="M157.201 245.927H152.923V240.037H139.214V245.927H134.996V236.059H137C139.792 231.008 141.333 225.133 141.625 218.434H154.128V236.059H157.201V245.927ZM149.247 236.059V222.486H145.572C145.461 224.485 145.079 226.734 144.427 229.235C143.774 231.736 142.965 234.011 142.001 236.059H149.247Z" fill="black"/>
</g>
</svg>
