<svg width="35" height="24" viewBox="0 0 35 24" fill="none" xmlns="http://www.w3.org/2000/svg">
<path d="M33.1543 0H1.8457C1.35637 0.000578922 0.887244 0.195222 0.541233 0.541233C0.195222 0.887244 0.000578922 1.35637 0 1.8457L0 21.6344C0.000578922 22.1237 0.195222 22.5928 0.541233 22.9388C0.887244 23.2849 1.35637 23.4795 1.8457 23.4801H33.1543C33.6436 23.4795 34.1128 23.2849 34.4588 22.9388C34.8048 22.5928 34.9994 22.1237 35 21.6344V1.8457C34.9994 1.35637 34.8048 0.887244 34.4588 0.541233C34.1128 0.195222 33.6436 0.000578922 33.1543 0ZM1.8457 0.957031H33.1543C33.3899 0.957321 33.6158 1.05104 33.7824 1.21764C33.949 1.38423 34.0427 1.6101 34.043 1.8457V3.82894H0.957031V1.8457C0.957321 1.6101 1.05104 1.38423 1.21764 1.21764C1.38423 1.05104 1.6101 0.957321 1.8457 0.957031ZM34.043 7.17008H0.957031V4.78598H34.043V7.17008ZM33.1543 22.523H1.8457C1.6101 22.5228 1.38423 22.429 1.21764 22.2624C1.05104 22.0958 0.957321 21.87 0.957031 21.6344V8.12656H34.043V21.6344C34.0427 21.87 33.949 22.0958 33.7824 22.2624C33.6158 22.429 33.3899 22.5228 33.1543 22.523Z" fill="#12784A"/>
<path d="M29.3467 13.9703C29.1754 13.7989 28.9719 13.663 28.748 13.5702C28.5241 13.4775 28.2841 13.4297 28.0418 13.4297C27.7994 13.4297 27.5594 13.4775 27.3355 13.5702C27.1116 13.663 26.9082 13.7989 26.7368 13.9703L25.8954 14.8128L25.0532 13.9703C24.8818 13.7989 24.6784 13.6629 24.4544 13.5702C24.2305 13.4774 23.9905 13.4297 23.7481 13.4297C23.5057 13.4297 23.2657 13.4774 23.0418 13.5702C22.8179 13.6629 22.6144 13.7989 22.443 13.9703L20.6304 15.7832C20.2849 16.1296 20.0908 16.5989 20.0908 17.0882C20.0908 17.5774 20.2849 18.0467 20.6304 18.3931L22.443 20.206C22.6144 20.3774 22.8179 20.5134 23.0418 20.6061C23.2657 20.6989 23.5057 20.7466 23.7481 20.7466C23.9905 20.7466 24.2305 20.6989 24.4544 20.6061C24.6784 20.5134 24.8818 20.3774 25.0532 20.206L25.8954 19.3636L26.7376 20.206C26.909 20.3774 27.1124 20.5134 27.3363 20.6061C27.5602 20.6989 27.8002 20.7466 28.0426 20.7466C28.2849 20.7466 28.5249 20.6989 28.7488 20.6061C28.9728 20.5134 29.1762 20.3774 29.3476 20.206L31.1605 18.3931C31.506 18.0467 31.7 17.5774 31.7 17.0882C31.7 16.5989 31.506 16.1296 31.1605 15.7832L29.3467 13.9703ZM24.3757 19.5293C24.2062 19.691 23.981 19.7813 23.7467 19.7813C23.5125 19.7813 23.2873 19.691 23.1178 19.5293L21.3052 17.7167C21.1386 17.5498 21.045 17.3236 21.045 17.0877C21.045 16.8519 21.1386 16.6257 21.3052 16.4588L23.1178 14.6462C23.2872 14.4844 23.5125 14.394 23.7467 14.394C23.981 14.394 24.2063 14.4844 24.3757 14.6462L26.188 16.4591C26.2708 16.5416 26.3365 16.6396 26.3813 16.7475C26.4261 16.8555 26.4491 16.9712 26.4491 17.088C26.4491 17.2049 26.4261 17.3206 26.3813 17.4285C26.3365 17.5364 26.2708 17.6344 26.188 17.7169L25.5561 18.3488L24.3757 19.5293ZM30.4829 17.7167L28.6703 19.5293C28.5009 19.6911 28.2756 19.7815 28.0414 19.7815C27.8071 19.7815 27.5818 19.6911 27.4125 19.5293L26.5711 18.6863L26.8648 18.3926C27.0362 18.2212 27.1722 18.0178 27.265 17.7938C27.3578 17.5699 27.4056 17.3299 27.4056 17.0875C27.4056 16.8451 27.3578 16.605 27.265 16.3811C27.1722 16.1572 27.0362 15.9537 26.8648 15.7824L26.5711 15.4884L27.4135 14.6462C27.5829 14.4842 27.8081 14.3938 28.0425 14.3938C28.2768 14.3938 28.5021 14.4842 28.6714 14.6462L30.484 16.4588C30.6505 16.6259 30.7439 16.8521 30.7437 17.088C30.7435 17.3238 30.6497 17.5499 30.4829 17.7167Z" fill="#12784A"/>
<path d="M15.9983 19.7891H3.21289C3.08598 19.7891 2.96427 19.8395 2.87453 19.9292C2.78479 20.019 2.73438 20.1407 2.73438 20.2676C2.73437 20.3945 2.78479 20.5162 2.87453 20.6059C2.96427 20.6957 3.08598 20.7461 3.21289 20.7461H15.9983C16.1252 20.7461 16.2469 20.6957 16.3366 20.6059C16.4264 20.5162 16.4768 20.3945 16.4768 20.2676C16.4768 20.1407 16.4264 20.019 16.3366 19.9292C16.2469 19.8395 16.1252 19.7891 15.9983 19.7891Z" fill="#12784A"/>
<path d="M15.9983 17.4492H3.21289C3.08598 17.4492 2.96427 17.4996 2.87453 17.5894C2.78479 17.6791 2.73438 17.8008 2.73438 17.9277C2.73437 18.0546 2.78479 18.1764 2.87453 18.2661C2.96427 18.3558 3.08598 18.4062 3.21289 18.4062H15.9983C16.1252 18.4062 16.2469 18.3558 16.3366 18.2661C16.4264 18.1764 16.4768 18.0546 16.4768 17.9277C16.4768 17.8008 16.4264 17.6791 16.3366 17.5894C16.2469 17.4996 16.1252 17.4492 15.9983 17.4492Z" fill="#12784A"/>
<path d="M15.9983 15.1094H3.21289C3.08598 15.1094 2.96427 15.1598 2.87453 15.2495C2.78479 15.3393 2.73438 15.461 2.73438 15.5879C2.73437 15.7148 2.78479 15.8365 2.87453 15.9263C2.96427 16.016 3.08598 16.0664 3.21289 16.0664H15.9983C16.1252 16.0664 16.2469 16.016 16.3366 15.9263C16.4264 15.8365 16.4768 15.7148 16.4768 15.5879C16.4768 15.461 16.4264 15.3393 16.3366 15.2495C16.2469 15.1598 16.1252 15.1094 15.9983 15.1094Z" fill="#12784A"/>
</svg>
