<svg width="35" height="35" viewBox="0 0 35 35" fill="none" xmlns="http://www.w3.org/2000/svg">
<g clip-path="url(#clip0)">
<path d="M1.0293 21.0445H3.08008C4.5555 21.0445 5.75625 22.2453 5.75625 23.7207V31.9238C5.75625 33.3992 4.55543 34.6 3.08008 34.6H1.0293C0.683443 34.6 0.403906 34.3205 0.403906 33.9746V21.6699C0.403906 21.3241 0.683443 21.0445 1.0293 21.0445Z" fill="white" stroke="#12784A" stroke-width="0.8"/>
<path d="M34.3532 22.8403L34.358 22.8484L34.3633 22.8563C34.5323 23.1099 34.6272 23.5101 34.5874 23.9747C34.5482 24.4333 34.3799 24.9185 34.0705 25.3247L34.0687 25.3271L29.1468 31.8896C27.8688 33.5935 25.8545 34.6007 23.7246 34.6007H14.4413C12.4675 34.6007 10.5112 34.3456 8.60703 33.8523V21.7606C11.1286 20.119 14.4749 20.2963 16.7821 22.3199L16.7821 22.32L16.7869 22.324C17.3904 22.8369 18.1413 23.0961 18.8506 23.0961H22.6992C23.6038 23.0961 24.3316 23.8177 24.35 24.7302V24.7468C24.35 25.6538 23.6062 26.3976 22.6992 26.3976H16.3076C15.5124 26.3976 14.8822 27.0278 14.8822 27.823C14.8822 28.618 15.5124 29.2484 16.3076 29.2484H24.4014C25.5576 29.2484 26.4078 28.7558 27.1017 27.9635L27.103 27.9619L31.754 22.5939C32.3554 21.9471 33.3777 21.9124 33.9612 22.4228L33.9699 22.4304L33.979 22.4375C34.1379 22.5611 34.263 22.69 34.3532 22.8403Z" fill="white" stroke="#12784A" stroke-width="0.8"/>
<path d="M16.8785 12.8545L17.7381 12.2812C17.7382 12.2812 17.7382 12.2811 17.7383 12.2811C18.2171 11.9609 18.8411 11.9608 19.3201 12.281L19.32 12.2809L16.8785 12.8545ZM16.8785 12.8545V8.60313H20.1801V12.8545L19.3204 12.2812L16.8785 12.8545Z" fill="white" stroke="#12784A" stroke-width="0.8"/>
<path d="M28.3465 0.678502L28.3465 0.678519L31.7291 5.75234H23.0309V0.4H27.8262C28.035 0.4 28.2305 0.504488 28.3465 0.678502Z" fill="white" stroke="#12784A" stroke-width="0.8"/>
<path d="M16.8775 5.75234V0.4H20.1791V5.75234H16.8775Z" fill="white" stroke="#12784A" stroke-width="0.8"/>
<path d="M22.2772 16.7744C22.7407 16.5264 23.03 16.0435 23.03 15.5176V8.60313H32.5523V19.2409C31.4431 19.3443 30.4007 19.8543 29.6109 20.712L29.6108 20.7119L29.6028 20.7211L27.0655 23.6499C26.5776 21.6769 24.8214 20.2445 22.6984 20.2445H18.8497C18.837 20.2445 18.8025 20.241 18.7585 20.226C18.717 20.2119 18.6818 20.1926 18.6571 20.1723C16.9101 18.6421 14.6669 17.8002 12.3387 17.8002C10.3533 17.8002 8.4403 18.4 6.80733 19.5339L6.80714 19.534L6.73807 19.582C6.1059 19.0225 5.3445 18.6051 4.50449 18.3808V8.60313H14.0268V15.5176C14.0268 16.0436 14.3162 16.5266 14.7797 16.7745C15.2435 17.023 15.8062 16.9928 16.2419 16.7043L16.2428 16.7036L18.5284 15.1802L20.8139 16.7036C20.814 16.7036 20.814 16.7036 20.814 16.7036C21.2554 16.9978 21.819 17.0201 22.2772 16.7744ZM22.2772 16.7744C22.2771 16.7745 22.277 16.7745 22.2769 16.7746L22.0883 16.4219L22.2773 16.7743C22.2773 16.7744 22.2773 16.7744 22.2772 16.7744ZM25.7746 18.9938H29.8761C30.6638 18.9938 31.3015 18.356 31.3015 17.5684C31.3015 16.7807 30.6638 16.143 29.8761 16.143H25.7746C24.9869 16.143 24.3492 16.7807 24.3492 17.5684C24.3492 18.356 24.9869 18.9938 25.7746 18.9938Z" fill="white" stroke="#12784A" stroke-width="0.8"/>
<path d="M8.71201 0.678522L8.71202 0.678502C8.82803 0.504463 9.0235 0.4 9.23231 0.4H14.0276V5.75234H5.32944L8.71201 0.678522Z" fill="white" stroke="#12784A" stroke-width="0.8"/>
</g>
<defs>
<clipPath id="clip0">
<rect width="35" height="35" fill="white"/>
</clipPath>
</defs>
</svg>
