<svg width="35" height="31" viewBox="0 0 35 31" fill="none" xmlns="http://www.w3.org/2000/svg">
<path d="M14.9238 17.0254H20.0762V18.0762H14.9238V17.0254Z" fill="white" stroke="#12784A"/>
<path d="M3.30739 16.5991L3.30744 16.5993C3.78167 18.0201 5.10696 18.9755 6.60496 18.9755H11.973V19.6009C11.973 20.3884 12.6109 21.0263 13.3984 21.0263H21.6016C22.3891 21.0263 23.027 20.3884 23.027 19.6009V18.9755H28.395C29.893 18.9755 31.2184 18.0202 31.6923 16.5992L31.6923 16.5991L34.6 7.87593V27.804C34.6 29.2792 33.3991 30.4802 31.9238 30.4802H3.07617C1.60092 30.4802 0.4 29.2792 0.4 27.804V7.87546L3.30739 16.5991Z" fill="white" stroke="#12784A" stroke-width="0.8"/>
<path d="M10.3222 4.6207H10.7222V4.2207V3.19531C10.7222 1.72006 11.9231 0.519141 13.3983 0.519141H21.6015C23.0767 0.519141 24.2776 1.72006 24.2776 3.19531V4.2207V4.6207H24.6776H32.681L28.9889 15.6977C28.9033 15.9538 28.6647 16.1254 28.3949 16.1254H23.0269V15.5C23.0269 14.7125 22.389 14.0746 21.6015 14.0746H13.3983C12.6108 14.0746 11.9729 14.7125 11.9729 15.5V16.1254H6.60486C6.3352 16.1254 6.09671 15.954 6.01102 15.698C6.01098 15.6979 6.01095 15.6978 6.01091 15.6977L2.31911 4.6207H10.3222ZM11.9729 4.2207V4.6207H12.3729H22.6269H23.0269V4.2207V3.19531C23.0269 2.40856 22.3882 1.76992 21.6015 1.76992H13.3983C12.6116 1.76992 11.9729 2.40856 11.9729 3.19531V4.2207Z" fill="white" stroke="#12784A" stroke-width="0.8"/>
</svg>
