<svg width="35" height="35" viewBox="0 0 35 35" fill="none" xmlns="http://www.w3.org/2000/svg">
<path d="M20.5085 34.5633L20.5082 34.5632L20.507 34.5629L20.5034 34.562C20.506 34.5626 20.508 34.5631 20.5085 34.5633ZM20.5085 34.5633L20.5086 34.5633L20.5085 34.5633ZM33.0806 27.0712L33.0806 27.0712C34.0178 27.5643 34.6 28.5281 34.5999 29.5895V34.3682C34.5999 34.4696 34.518 34.5515 34.4166 34.5515H20.4548C20.4434 34.5497 20.4301 34.5481 20.4154 34.5471L20.4021 34.5462L20.3888 34.5462L14.5833 34.5515H14.5829H0.583311C0.481977 34.5515 0.4 34.4696 0.4 34.3682V29.5895C0.4 28.5281 0.982201 27.5643 1.91939 27.0711L1.91942 27.0711C5.40263 25.2378 8.03675 24.2372 10.3542 23.8431L10.9902 23.7349L10.6105 23.2133L10.3515 22.8575C10.3198 22.814 10.309 22.7586 10.3222 22.706L10.3223 22.7057L10.8636 20.5398L10.9082 20.3615L10.8018 20.2115C9.39549 18.2278 8.56669 15.7515 8.56669 13.4166V9.3333C8.56669 4.40806 12.5748 0.4 17.5 0.4C22.4252 0.4 26.4333 4.40806 26.4333 9.33337V13.4167C26.4333 15.7516 25.6045 18.2278 24.1982 20.2116L24.0918 20.3616L24.1364 20.5399L24.6777 22.7058L24.6778 22.7061C24.691 22.7587 24.6801 22.8142 24.6485 22.8575L24.6485 22.8576L24.3895 23.2134L24.0098 23.735L24.6458 23.8432C26.9633 24.2372 29.5974 25.2379 33.0806 27.0712ZM9.85095 23.5292C7.58214 23.9801 5.02072 24.9868 1.73312 26.7171L24.5245 20.4429C25.9752 18.3966 26.8333 15.8404 26.8333 13.4167V9.33337C26.8333 4.18714 22.6462 0 17.5 0C12.3538 0 8.16669 4.18714 8.16669 9.3333V13.4166C8.16669 15.8404 9.02481 18.3965 10.4755 20.4429L9.93419 22.6088C9.89263 22.7745 9.92593 22.95 10.0251 23.0888C10.029 23.0881 10.0328 23.0874 10.0367 23.0867C10.098 23.0755 10.1591 23.0648 10.2201 23.0544L10.2871 23.4488L9.96374 23.6842L9.85095 23.5292ZM18.9356 28.9833H19.5511L19.3011 28.4208L17.8655 25.1904L17.5 24.3678L17.1345 25.1904L15.6989 28.4209L15.449 28.9833H16.0645H18.9356ZM10.7437 22.5298L10.6984 22.7111L10.8083 22.8622L14.7207 28.2417L15.1283 28.8022L15.4097 28.1689L16.9923 24.607L17.1933 24.1547L16.7088 24.0531L16.7059 24.0525L16.6891 24.049L16.6721 24.0469C14.7641 23.8152 13.0528 22.7937 11.6928 21.3144L11.6871 21.3082L11.6812 21.3022L11.6811 21.3022L11.6811 21.3022L11.6811 21.3022L11.6811 21.3022L11.6811 21.3021L11.681 21.3021L11.681 21.3021L11.681 21.3021L11.681 21.3021L11.681 21.302L11.681 21.302L11.6809 21.302L11.6809 21.302L11.6809 21.302L11.6809 21.302L11.6809 21.3019L11.6808 21.3019L11.6808 21.3019L11.6808 21.3019L11.6808 21.3019L11.6808 21.3018L11.6807 21.3018L11.6807 21.3018L11.6807 21.3018L11.6807 21.3018L11.6807 21.3017L11.6806 21.3017L11.6806 21.3017L11.6806 21.3017L11.6806 21.3017L11.6806 21.3016L11.6806 21.3016L11.6805 21.3016L11.6805 21.3016L11.6805 21.3016L11.6805 21.3016L11.6805 21.3015L11.6804 21.3015L11.6804 21.3015L11.6804 21.3015L11.6804 21.3015L11.6804 21.3014L11.6804 21.3014L11.6803 21.3014L11.6803 21.3014L11.6803 21.3014L11.6803 21.3014L11.6803 21.3013L11.6802 21.3013L11.6802 21.3013L11.6802 21.3013L11.6802 21.3013L11.6802 21.3012L11.6802 21.3012L11.6801 21.3012L11.6801 21.3012L11.6801 21.3012L11.6801 21.3012L11.6801 21.3011L11.68 21.3011L11.68 21.3011L11.68 21.3011L11.68 21.3011L11.68 21.3011L11.68 21.301L11.6799 21.301L11.6799 21.301L11.6799 21.301L11.6799 21.301L11.6799 21.3009L11.6799 21.3009L11.6798 21.3009L11.6798 21.3009L11.6798 21.3009L11.6798 21.3009L11.6798 21.3008L11.6797 21.3008L11.6797 21.3008L11.6797 21.3008L11.6797 21.3008L11.6797 21.3008L11.6797 21.3007L11.6796 21.3007L11.6796 21.3007L11.6796 21.3007L11.6796 21.3007L11.6796 21.3006L11.6796 21.3006L11.6795 21.3006L11.6795 21.3006L11.6795 21.3006L11.6795 21.3006L11.6795 21.3005L11.6795 21.3005L11.6794 21.3005L11.6794 21.3005L11.6794 21.3005L11.6794 21.3005L11.6794 21.3004L11.6793 21.3004L11.6793 21.3004L11.6793 21.3004L11.6793 21.3004L11.6793 21.3004L11.6793 21.3003L11.6792 21.3003L11.6792 21.3003L11.6792 21.3003L11.6792 21.3003L11.6792 21.3003L11.6792 21.3002L11.6791 21.3002L11.6791 21.3002L11.6791 21.3002L11.6791 21.3002L11.6791 21.3002L11.6791 21.3001L11.679 21.3001L11.679 21.3001L11.679 21.3001L11.679 21.3001L11.679 21.3L11.679 21.3L11.6789 21.3L11.6789 21.3L11.6789 21.3L11.6789 21.3L11.6789 21.2999L11.6789 21.2999L11.6788 21.2999L11.6788 21.2999L11.6788 21.2999L11.6788 21.2999L11.6788 21.2998L11.6788 21.2998L11.6787 21.2998L11.6787 21.2998L11.6787 21.2998L11.6787 21.2998L11.6787 21.2997L11.6787 21.2997L11.6786 21.2997L11.6786 21.2997L11.6786 21.2997L11.6786 21.2997L11.6786 21.2996L11.6785 21.2996L11.6785 21.2996L11.6785 21.2996L11.6785 21.2996L11.6785 21.2996L11.6785 21.2995L11.6784 21.2995L11.6784 21.2995L11.6784 21.2995L11.6784 21.2995L11.6784 21.2995L11.6784 21.2994L11.6783 21.2994L11.6783 21.2994L11.6783 21.2994L11.6783 21.2994L11.6783 21.2993L11.6783 21.2993L11.6782 21.2993L11.6782 21.2993L11.6782 21.2993L11.6782 21.2993L11.6782 21.2992L11.6782 21.2992L11.6781 21.2992L11.6781 21.2992L11.6781 21.2992L11.6781 21.2992L11.6781 21.2991L11.678 21.2991L11.678 21.2991L11.678 21.2991L11.678 21.2991L11.678 21.299L11.678 21.299L11.6779 21.299L11.6779 21.299L11.6779 21.299L11.6779 21.299L11.6779 21.2989L11.6778 21.2989L11.6778 21.2989L11.6778 21.2989L11.6778 21.2989L11.6778 21.2989L11.6778 21.2988L11.6777 21.2988L11.6777 21.2988L11.6777 21.2988L11.6777 21.2988L11.6777 21.2987L11.6777 21.2987L11.6776 21.2987L11.6776 21.2987L11.6776 21.2987L11.6776 21.2987L11.6776 21.2986L11.6775 21.2986L11.6775 21.2986L11.6775 21.2986L11.6775 21.2986L11.6775 21.2985L11.6774 21.2985L11.6774 21.2985L11.6774 21.2985L11.6774 21.2985L11.6774 21.2984L11.6774 21.2984L11.6773 21.2984L11.6773 21.2984L11.6773 21.2984L11.6773 21.2984L11.6773 21.2983L11.6772 21.2983L11.6772 21.2983L11.6772 21.2983L11.6772 21.2983L11.6772 21.2982L11.6771 21.2982L11.6771 21.2982L11.6771 21.2982L11.6771 21.2982L11.6771 21.2982L11.6771 21.2981L11.677 21.2981L11.677 21.2981L11.677 21.2981L11.677 21.2981L11.677 21.298L11.677 21.298L11.6769 21.298L11.6769 21.298L11.6769 21.298L11.6769 21.2979L11.6769 21.2979L11.6768 21.2979L11.6768 21.2979L11.6768 21.2979L11.6768 21.2979L11.6768 21.2978L11.6767 21.2978L11.6767 21.2978L11.6767 21.2978L11.6767 21.2978L11.6767 21.2978L11.6767 21.2977L11.6767 21.2977L11.6766 21.2977L11.6766 21.2977L11.6766 21.2977L11.6766 21.2977L11.6766 21.2976L11.6766 21.2976L11.6765 21.2976L11.6765 21.2976L11.3937 21.5804L11.6765 21.2976L11.1771 20.7982L11.0056 21.4833L10.7437 22.5298ZM14.8386 33.7398L14.7887 34.1847L15.2364 34.1843L19.7642 34.1802L20.2112 34.1798L20.1614 33.7356L19.7507 30.0747L19.7093 29.7054L19.6694 29.35H19.3118H15.6881H15.3305L15.2906 29.7054L14.8386 33.7398ZM19.5903 28.1688L19.8717 28.8022L20.2793 28.2417L24.1912 22.8621L24.301 22.7111L24.2558 22.53L23.9944 21.4834L23.8232 20.7978L23.3235 21.2975L23.3188 21.3022L23.3129 21.3081L23.3072 21.3143C21.9472 22.7936 20.2359 23.8151 18.3279 24.0468L18.3109 24.0489L18.2941 24.0524L18.2912 24.053L17.8067 24.1546L18.0077 24.607L19.5903 28.1688Z" fill="white" stroke="#12784A" stroke-width="0.8"/>
</svg>
