<svg width="37" height="37" viewBox="0 0 37 37" fill="none" xmlns="http://www.w3.org/2000/svg">
<rect x="1.5" y="1.5" width="34" height="34" stroke="white"/>
<path d="M34.9746 31.0781H2.02539C1.4591 31.0781 1 30.619 1 30.0527V28.6855C1 28.1193 1.4591 27.6602 2.02539 27.6602H34.9746C35.5409 27.6602 36 28.1193 36 28.6855V30.0527C36 30.619 35.5409 31.0781 34.9746 31.0781Z" fill="white" stroke="#12784A" stroke-width="0.7"/>
<path d="M7.7334 36H4.65723C4.09094 36 3.63184 35.5409 3.63184 34.9746V33.1289H8.75879V34.9746C8.75879 35.5409 8.29969 36 7.7334 36Z" fill="white" stroke="#12784A" stroke-width="0.7"/>
<path d="M32.3428 36H29.2666C28.7003 36 28.2412 35.5409 28.2412 34.9746V33.1289H33.3682V34.9746C33.3682 35.5409 32.9091 36 32.3428 36Z" fill="white" stroke="#12784A" stroke-width="0.7"/>
<path d="M20.0381 36H16.9619C16.3956 36 15.9365 35.5409 15.9365 34.9746V33.1289H21.0635V34.9746C21.0635 35.5409 20.6044 36 20.0381 36Z" fill="white" stroke="#12784A" stroke-width="0.7"/>
<path d="M18.5 3.05078C18.6982 3.05078 18.8966 3.1082 19.0687 3.22298L19.5254 3.52738V1H17.4746V3.52738L17.9312 3.22298C18.1034 3.1082 18.3018 3.05078 18.5 3.05078Z" fill="white" stroke="#12784A" stroke-width="0.7"/>
<path d="M23.627 1H21.5762V5.44336C21.5762 5.82152 21.368 6.16899 21.0346 6.34741C20.883 6.42855 20.7168 6.46875 20.5508 6.46875C20.3519 6.46875 20.1535 6.41092 19.982 6.29655L18.5 5.30855L17.018 6.29655C16.7033 6.50628 16.2988 6.52583 15.9654 6.34741C15.632 6.16899 15.4238 5.82152 15.4238 5.44336V1H13.373C12.8068 1 12.3477 1.4591 12.3477 2.02539V12.2793H24.6523V2.02539C24.6523 1.4591 24.1932 1 23.627 1Z" fill="white" stroke="#12784A" stroke-width="0.7"/>
<path d="M25.6777 16.3809C25.876 16.3809 26.0743 16.4383 26.2465 16.5531L26.7031 16.8575V14.3301H24.6523V16.8575L25.109 16.5531C25.2812 16.4383 25.4795 16.3809 25.6777 16.3809Z" fill="white" stroke="#12784A" stroke-width="0.7"/>
<path d="M30.8047 14.3301H28.7539V18.7415C28.7539 19.1022 28.5805 19.4488 28.2753 19.6409C28.1074 19.7466 27.9177 19.7988 27.7286 19.7988C27.5297 19.7988 27.3313 19.741 27.1598 19.6266L25.6777 18.6386L24.1957 19.6266C23.8313 19.8694 23.3465 19.8574 22.991 19.5781C22.7379 19.3792 22.6016 19.0662 22.6016 18.7444V14.3301H19.5254V25.6094H31.8301V15.3555C31.8301 14.7892 31.371 14.3301 30.8047 14.3301Z" fill="white" stroke="#12784A" stroke-width="0.7"/>
<path d="M11.3223 16.3809C11.124 16.3809 10.9257 16.4383 10.7535 16.5531L10.2969 16.8575V14.3301H12.3477V16.8575L11.891 16.5531C11.7188 16.4383 11.5205 16.3809 11.3223 16.3809Z" fill="white" stroke="#12784A" stroke-width="0.7"/>
<path d="M6.19531 14.3301H8.24609V18.7415C8.24609 19.1022 8.41945 19.4488 8.72475 19.6409C8.89257 19.7466 9.08227 19.7988 9.27142 19.7988C9.47034 19.7988 9.66872 19.741 9.84023 19.6266L11.3223 18.6386L12.8043 19.6266C13.1687 19.8694 13.6535 19.8574 14.009 19.5781C14.2621 19.3792 14.3984 19.0662 14.3984 18.7444V14.3301H17.4746V25.6094H5.16992V15.3555C5.16992 14.7892 5.62902 14.3301 6.19531 14.3301Z" fill="white" stroke="#12784A" stroke-width="0.7"/>
</svg>
