<svg width="33" height="33" viewBox="0 0 33 33" fill="none" xmlns="http://www.w3.org/2000/svg">
<path d="M4.11197 14.8593C4.0321 14.8594 3.95317 14.842 3.88075 14.8083C3.80832 14.7746 3.74415 14.7255 3.69274 14.6644C3.64134 14.6032 3.60395 14.5316 3.58321 14.4544C3.56247 14.3773 3.55888 14.2965 3.57269 14.2179C4.04297 11.5667 5.31618 9.12396 7.22011 7.22005C9.12403 5.31614 11.5668 4.04294 14.2179 3.57268C14.3608 3.54762 14.5078 3.58034 14.6265 3.66365C14.7453 3.74695 14.826 3.87401 14.8511 4.01688C14.8762 4.15974 14.8434 4.30671 14.7601 4.42545C14.6768 4.54418 14.5498 4.62497 14.4069 4.65002C11.977 5.08102 9.73806 6.24797 7.99302 7.99301C6.24798 9.73804 5.08103 11.977 4.65003 14.4069C4.62782 14.5335 4.56172 14.6483 4.46332 14.731C4.36493 14.8137 4.24053 14.8591 4.11197 14.8593Z" fill="#12784A"/>
<path d="M18.6877 29.4357C18.5508 29.4358 18.4188 29.3844 18.3179 29.2919C18.217 29.1994 18.1544 29.0723 18.1427 28.9359C18.1309 28.7995 18.1707 28.6636 18.2542 28.5551C18.3378 28.4466 18.459 28.3735 18.5939 28.35C21.0238 27.919 23.2628 26.7521 25.0078 25.007C26.7528 23.262 27.9198 21.0231 28.3508 18.5931C28.3628 18.522 28.3887 18.4539 28.427 18.3928C28.4654 18.3317 28.5155 18.2787 28.5744 18.2371C28.6333 18.1954 28.6999 18.1658 28.7703 18.15C28.8407 18.1342 28.9136 18.1325 28.9846 18.1449C29.0557 18.1574 29.1236 18.1838 29.1844 18.2226C29.2453 18.2615 29.2978 18.312 29.339 18.3712C29.3802 18.4304 29.4093 18.4972 29.4246 18.5677C29.4399 18.6383 29.4411 18.7111 29.4281 18.7821C28.9578 21.4333 27.6846 23.876 25.7807 25.78C23.8768 27.6839 21.434 28.9571 18.7829 29.4274C18.7514 29.4329 18.7196 29.4357 18.6877 29.4357Z" fill="#12784A"/>
<path d="M16.4063 32.8125C13.1614 32.8125 9.98946 31.8503 7.29146 30.0476C4.59345 28.2448 2.49062 25.6825 1.24886 22.6847C0.00710716 19.6868 -0.317791 16.3881 0.315252 13.2055C0.948295 10.023 2.51085 7.09972 4.80531 4.80527C7.88209 1.7285 12.0551 -6.40992e-06 16.4063 0C20.7575 6.40995e-06 24.9305 1.72852 28.0073 4.8053C31.084 7.88208 32.8125 12.0551 32.8125 16.4063C32.8125 20.7575 31.084 24.9305 28.0072 28.0073C26.4873 29.5355 24.6794 30.7471 22.6881 31.5719C20.6968 32.3967 18.5617 32.8184 16.4063 32.8125ZM16.4063 1.09376C13.3778 1.09376 10.4173 1.99182 7.89913 3.67438C5.381 5.35694 3.41836 7.74842 2.25939 10.5464C1.10042 13.3444 0.797186 16.4233 1.38802 19.3936C1.97886 22.3639 3.43724 25.0923 5.57873 27.2338C8.45038 30.1055 12.3452 31.7188 16.4063 31.7188C20.4674 31.7188 24.3622 30.1055 27.2339 27.2338C30.1055 24.3622 31.7188 20.4674 31.7188 16.4063C31.7188 12.3451 30.1055 8.45034 27.2339 5.57868C25.8153 4.15233 24.1279 3.02151 22.2693 2.25167C20.4108 1.48184 18.418 1.08827 16.4063 1.09376Z" fill="#12784A"/>
<path d="M18.2344 18.2344C18.3794 18.2344 18.5185 18.1768 18.6211 18.0742C18.7236 17.9716 18.7812 17.8325 18.7812 17.6875C18.7812 17.5425 18.7236 17.4034 18.6211 17.3008C18.5185 17.1982 18.3794 17.1406 18.2344 17.1406H14.4062V16.0469H17.6875C18.5577 16.0469 19.3923 15.7012 20.0077 15.0858C20.623 14.4705 20.9688 13.6359 20.9688 12.7656C20.9688 11.8954 20.623 11.0608 20.0077 10.4454C19.3923 9.83008 18.5577 9.48438 17.6875 9.48438H13.8594C13.7143 9.48438 13.5752 9.54199 13.4727 9.64455C13.3701 9.74711 13.3125 9.88621 13.3125 10.0312V14.9531H12.7656C12.6206 14.9531 12.4815 15.0107 12.3789 15.1133C12.2764 15.2159 12.2188 15.355 12.2188 15.5C12.2188 15.645 12.2764 15.7841 12.3789 15.8867C12.4815 15.9893 12.6206 16.0469 12.7656 16.0469H13.3125V17.1406H12.7656C12.6206 17.1406 12.4815 17.1982 12.3789 17.3008C12.2764 17.4034 12.2188 17.5425 12.2188 17.6875C12.2188 17.8325 12.2764 17.9716 12.3789 18.0742C12.4815 18.1768 12.6206 18.2344 12.7656 18.2344H13.3125V22.0625C13.3125 22.2075 13.3701 22.3466 13.4727 22.4492C13.5752 22.5518 13.7143 22.6094 13.8594 22.6094C14.0044 22.6094 14.1435 22.5518 14.2461 22.4492C14.3486 22.3466 14.4062 22.2075 14.4062 22.0625V18.2344H18.2344ZM19.875 12.7656C19.8743 13.3456 19.6437 13.9016 19.2336 14.3117C18.8235 14.7218 18.2675 14.9525 17.6875 14.9531H14.4062V10.5781H17.6875C18.2675 10.5788 18.8235 10.8095 19.2336 11.2195C19.6437 11.6296 19.8743 12.1857 19.875 12.7656Z" fill="#12784A"/>
</svg>
